{
classes = (
{
automatic = 1;
code = "A Aacute Acircumflex Adieresis Agrave Aring Atilde AE B C Ccedilla D Eth E Eacute Ecircumflex Edieresis Egrave F G H I Iacute Icircumflex Idieresis Igrave J K L Lslash M N Ntilde O Oacute Ocircumflex Odieresis Ograve Oslash Otilde OE P Thorn Q R S Scaron T U Uacute Ucircumflex Udieresis Ugrave V W X Y Yacute Ydieresis Z Zcaron Delta Omega";
name = Uppercase;
}
);
copyright = "Copyright (c) 2011, 2015 Omnibus-Type (www.omnibus-type.com omnibus.type@gmail.com)";
customParameters = (
{
name = description;
value = "Copyright (c) 2011, 2015 Omnibus-Type (www.omnibus-type.com omnibus.type@gmail.com)";
},
{
name = trademark;
value = "Rosario Bold is a trademark of Omnibus-Type.";
},
{
name = licenseURL;
value = "http://scripts.sil.org/OFL";
},
{
name = license;
value = "This Font Software is licensed under the SIL Open Font License Version 1.1. ";
},
{
name = fsType;
value = (
);
},
{
name = "Family Alignment Zones";
value = (
"{724, 20}",
"{490, 20}",
"{0, -12}",
);
}
);
date = "2015-02-18 04:12:27 +0000";
designer = "Hector Gatti";
designerURL = "http://www.gattistudio.com.ar";
familyName = "Rosario";
featurePrefixes = (
{
automatic = 1;
code = "languagesystem DFLT dflt;\012languagesystem grek dflt;\012languagesystem latn dflt;\012";
name = Languagesystems;
}
);
features = (
{
automatic = 1;
code = "feature sups;\012feature frac;\012feature ordn;\012";
name = aalt;
},
{
automatic = 1;
code = "sub one by onesuperior;\012sub two by twosuperior;\012sub three by threesuperior;\012";
name = sups;
},
{
automatic = 1;
code = "sub one slash four by onequarter;\012sub one slash two by onehalf;\012sub three slash four by threequarters;\012";
name = frac;
},
{
automatic = 1;
code = "sub [zero one two three four five six seven eight nine] [A a]' by ordfeminine;\012sub [zero one two three four five six seven eight nine] [O o]' by ordmasculine;\012";
name = ordn;
},
{
automatic = 1;
code = "sub f i by fi;\012sub f l by fl;\012";
name = liga;
},

glyphs = (
{
glyphname = A;
lastChange = "2015-02-06 22:44:54 +0000";
layers = (
{
hints = (
{
horizontal = 1;
place = "{0.000000, 20.000000}";
},
{
horizontal = 1;
place = "{250.000000, 68.000000}";
},
{
horizontal = 1;
place = "{728.000000, -20.000000}";
target = down;
type = TopGhost;
}
);
layerId = UUID0;
name = Regular;
paths = (
{
closed = 1;
nodes = (
"614 0 LINE",
"362 728 LINE",
"271 728 LINE",
"18 0 LINE",
"102 0 LINE",
"187 250 LINE",
"427 250 LINE",
"511 0 LINE"
);
},
{
closed = 1;
nodes = (
"404 318 LINE",
"210 318 LINE",
"308 606 LINE"
);
}
);
width = 631;
},
{
hints = (
{
horizontal = 1;
place = "{210.000000, 98.000000}";
},
{
horizontal = 1;
place = "{0.000000, 21.000000}";
target = up;
type = BottomGhost;
},
{
horizontal = 1;
place = "{732.000000, -20.000000}";
target = down;
type = TopGhost;
}
);
layerId = "9AE9C081-2011-43F2-9F6D-8F63AE9DAFAF";
name = Bold;
paths = (
{
closed = 1;
nodes = (
"629 0 LINE",
"370 732 LINE",
"261 732 LINE",
"2 0 LINE",
"118 0 LINE",
"193 210 LINE",
"409 210 LINE",
"481 0 LINE"
);
},
{
closed = 1;
nodes = (
"227 308 LINE",
"253 391 OFFCURVE",
"277 473 OFFCURVE",
"300 558 CURVE",
"323 474 OFFCURVE",
"349 391 OFFCURVE",
"376 308 CURVE"
);
}
);
width = 631;
}
);
leftKerningGroup = A;
rightKerningGroup = A;
unicode = 0041;
},
{
glyphname = Aacute;
lastChange = "2015-02-06 22:44:54 +0000";
layers = (
{
hints = (
{
horizontal = 1;
place = "{0.000000, 20.000000}";
},
{
horizontal = 1;
place = "{227.000000, 68.000000}";
}
);
layerId = UUID0;
name = Regular;
paths = (
{
closed = 1;
nodes = (
"354 716 LINE",
"494 867 LINE",
"372 867 LINE",
"276 716 LINE"
);
},
{
closed = 1;
nodes = (
"619 0 LINE",
"367 670 LINE",
"276 670 LINE",
"23 0 LINE",
"107 0 LINE",
"191 227 LINE",
"434 227 LINE",
"516 0 LINE"
);
},
{
closed = 1;
nodes = (
"409 295 LINE",
"217 295 LINE",
"313 555 LINE"
);
}
);
width = 631;
},
{
hints = (
{
horizontal = 1;
place = "{190.000000, 98.000000}";
},
{
horizontal = 1;
place = "{0.000000, 21.000000}";
target = up;
type = BottomGhost;
},
{
horizontal = 1;
place = "{881.000000, -20.000000}";
target = down;
type = TopGhost;
}
);
layerId = "9AE9C081-2011-43F2-9F6D-8F63AE9DAFAF";
name = Bold;
paths = (
{
closed = 1;
nodes = (
"629 0 LINE",
"370 680 LINE",
"259 680 LINE",
"2 0 LINE",
"118 0 LINE",
"190 190 LINE",
"414 190 LINE",
"485 0 LINE"
);
},
{
closed = 1;
nodes = (
"227 288 LINE",
"254 372 OFFCURVE",
"279 454 OFFCURVE",
"302 539 CURVE",
"325 455 OFFCURVE",
"348 371 OFFCURVE",
"376 288 CURVE"
);
},
{
closed = 1;
nodes = (
"499 881 LINE",
"353 881 LINE",
"244 717 LINE",
"348 717 LINE"
);
}
);
width = 631;
}
);
leftKerningGroup = A;
rightKerningGroup = A;
unicode = 00C1;
},
{
glyphname = Acircumflex;
lastChange = "2015-02-06 22:44:54 +0000";
layers = (
{
hints = (
{
horizontal = 1;
place = "{0.000000, 20.000000}";
},
{
horizontal = 1;
place = "{227.000000, 68.000000}";
}
);
layerId = UUID0;
name = Regular;
paths = (
{
closed = 1;
nodes = (
"462 696 LINE",
"356 851 LINE",
"273 851 LINE",
"171 696 LINE",
"238 696 LINE",
"314 778 LINE",
"392 696 LINE"
);
},
{
closed = 1;
nodes = (
"614 0 LINE",
"362 670 LINE",
"271 670 LINE",
"18 0 LINE",
"102 0 LINE",
"186 227 LINE",
"429 227 LINE",
"511 0 LINE"
);
},
{
closed = 1;
nodes = (
"404 295 LINE",
"212 295 LINE",
"308 555 LINE"
);
}
);
width = 631;
},
{
hints = (
{
horizontal = 1;
place = "{190.000000, 98.000000}";
},
{
horizontal = 1;
place = "{0.000000, 21.000000}";
target = up;
type = BottomGhost;
},
{
horizontal = 1;
place = "{858.000000, -20.000000}";
target = down;
type = TopGhost;
}
);
layerId = "9AE9C081-2011-43F2-9F6D-8F63AE9DAFAF";
name = Bold;
paths = (
{
closed = 1;
nodes = (
"629 0 LINE",
"370 680 LINE",
"259 680 LINE",
"2 0 LINE",
"118 0 LINE",
"190 190 LINE",
"414 190 LINE",
"485 0 LINE"
);
},
{
closed = 1;
nodes = (
"227 288 LINE",
"254 372 OFFCURVE",
"279 454 OFFCURVE",
"302 539 CURVE",
"325 455 OFFCURVE",
"348 371 OFFCURVE",
"376 288 CURVE"
);
},
{
closed = 1;
nodes = (
"460 713 LINE",
"361 858 LINE",
"263 858 LINE",
"167 714 LINE",
"243 714 LINE",
"312 787 LINE",
"382 713 LINE"
);
}
);
width = 631;
}
);
leftKerningGroup = A;
rightKerningGroup = A;
unicode = 00C2;
},
{
glyphname = Adieresis;
lastChange = "2015-02-06 22:44:54 +0000";
layers = (
{
hints = (
{
place = "{180.000000, 114.000000}";
},
{
place = "{343.000000, 114.000000}";
},
{
horizontal = 1;
place = "{0.000000, 20.000000}";
},
{
horizontal = 1;
place = "{226.000000, 68.000000}";
},
{
horizontal = 1;
place = "{717.000000, 114.000000}";
}
);
layerId = UUID0;
name = Regular;
paths = (
{
closed = 1;
nodes = (
"457 805 OFFCURVE",
"431 831 OFFCURVE",
"400 831 CURVE SMOOTH",
"369 831 OFFCURVE",
"343 805 OFFCURVE",
"343 774 CURVE SMOOTH",
"343 743 OFFCURVE",
"369 717 OFFCURVE",
"400 717 CURVE SMOOTH",
"431 717 OFFCURVE",
"457 743 OFFCURVE",
"457 774 CURVE SMOOTH"
);
},
{
closed = 1;
nodes = (
"294 805 OFFCURVE",
"268 831 OFFCURVE",
"237 831 CURVE SMOOTH",
"206 831 OFFCURVE",
"180 805 OFFCURVE",
"180 774 CURVE SMOOTH",
"180 743 OFFCURVE",
"206 717 OFFCURVE",
"237 717 CURVE SMOOTH",
"268 717 OFFCURVE",
"294 743 OFFCURVE",
"294 774 CURVE SMOOTH"
);
},
{
closed = 1;
nodes = (
"614 0 LINE",
"362 670 LINE",
"271 670 LINE",
"18 0 LINE",
"102 0 LINE",
"186 227 LINE",
"429 227 LINE",
"511 0 LINE"
);
},
{
closed = 1;
nodes = (
"404 295 LINE",
"212 295 LINE",
"308 555 LINE"
);
}
);
width = 631;
},
{
hints = (
{
place = "{179.000000, 114.000000}";
},
{
place = "{339.000000, 115.000000}";
},
{
horizontal = 1;
place = "{735.000000, 114.000000}";
},
{
horizontal = 1;
place = "{190.000000, 98.000000}";
},
{
horizontal = 1;
place = "{0.000000, 21.000000}";
target = up;
type = BottomGhost;
}
);
layerId = "9AE9C081-2011-43F2-9F6D-8F63AE9DAFAF";
name = Bold;
paths = (
{
closed = 1;
nodes = (
"629 0 LINE",
"370 680 LINE",
"259 680 LINE",
"2 0 LINE",
"118 0 LINE",
"190 190 LINE",
"414 190 LINE",
"485 0 LINE"
);
},
{
closed = 1;
nodes = (
"227 288 LINE",
"254 372 OFFCURVE",
"279 454 OFFCURVE",
"302 539 CURVE",
"325 455 OFFCURVE",
"348 371 OFFCURVE",
"376 288 CURVE"
);
},
{
closed = 1;
nodes = (
"454 824 OFFCURVE",
"428 849 OFFCURVE",
"396 849 CURVE SMOOTH",
"365 849 OFFCURVE",
"339 823 OFFCURVE",
"339 792 CURVE SMOOTH",
"339 760 OFFCURVE",
"365 735 OFFCURVE",
"396 735 CURVE SMOOTH",
"428 735 OFFCURVE",
"454 760 OFFCURVE",
"454 792 CURVE SMOOTH"
);
},
{
closed = 1;
nodes = (
"293 823 OFFCURVE",
"268 849 OFFCURVE",
"236 849 CURVE SMOOTH",
"204 849 OFFCURVE",
"179 823 OFFCURVE",
"179 792 CURVE SMOOTH",
"179 760 OFFCURVE",
"204 735 OFFCURVE",
"236 735 CURVE SMOOTH",
"268 735 OFFCURVE",
"293 760 OFFCURVE",
"293 792 CURVE SMOOTH"
);
}
);
width = 631;
}
);
leftKerningGroup = A;
rightKerningGroup = A;
unicode = 00C4;
},
{
glyphname = Agrave;
lastChange = "2015-02-06 22:44:54 +0000";
layers = (
{
hints = (
{
horizontal = 1;
place = "{0.000000, 20.000000}";
},
{
horizontal = 1;
place = "{227.000000, 68.000000}";
}
);
layerId = UUID0;
name = Regular;
paths = (
{
closed = 1;
nodes = (
"373 721 LINE",
"278 873 LINE",
"155 873 LINE",
"295 721 LINE"
);
},
{
closed = 1;
nodes = (
"614 0 LINE",
"362 670 LINE",
"271 670 LINE",
"18 0 LINE",
"102 0 LINE",
"186 227 LINE",
"429 227 LINE",
"511 0 LINE"
);
},
{
closed = 1;
nodes = (
"404 295 LINE",
"212 295 LINE",
"308 555 LINE"
);
}
);
width = 631;
},
{
hints = (
{
horizontal = 1;
place = "{190.000000, 98.000000}";
},
{
horizontal = 1;
place = "{0.000000, 21.000000}";
target = up;
type = BottomGhost;
},
{
horizontal = 1;
place = "{882.000000, -20.000000}";
target = down;
type = TopGhost;
}
);
layerId = "9AE9C081-2011-43F2-9F6D-8F63AE9DAFAF";
name = Bold;
paths = (
{
closed = 1;
nodes = (
"629 0 LINE",
"370 680 LINE",
"259 680 LINE",
"2 0 LINE",
"118 0 LINE",
"190 190 LINE",
"414 190 LINE",
"485 0 LINE"
);
},
{
closed = 1;
nodes = (
"227 288 LINE",
"254 372 OFFCURVE",
"279 454 OFFCURVE",
"302 539 CURVE",
"325 455 OFFCURVE",
"348 371 OFFCURVE",
"376 288 CURVE"
);
},
{
closed = 1;
nodes = (
"383 717 LINE",
"274 882 LINE",
"128 882 LINE",
"279 717 LINE"
);
}
);
width = 631;
}
);
leftKerningGroup = A;
rightKerningGroup = A;
unicode = 00C0;
},
{
glyphname = Aring;
lastChange = "2015-02-06 22:44:54 +0000";
layers = (
{
hints = (
{
place = "{215.000000, 50.000000}";
},
{
place = "{361.000000, 50.000000}";
},
{
horizontal = 1;
place = "{0.000000, 20.000000}";
},
{
horizontal = 1;
place = "{226.000000, 68.000000}";
},
{
horizontal = 1;
place = "{783.000000, 51.000000}";
}
);
layerId = UUID0;
name = Regular;
paths = (
{
closed = 1;
nodes = (
"614 0 LINE",
"368 653 LINE",
"396 670 OFFCURVE",
"411 703 OFFCURVE",
"411 735 CURVE SMOOTH",
"411 790 OFFCURVE",
"369 834 OFFCURVE",
"314 834 CURVE SMOOTH",
"259 834 OFFCURVE",
"215 790 OFFCURVE",
"215 735 CURVE SMOOTH",
"215 701 OFFCURVE",
"233 667 OFFCURVE",
"263 650 CURVE",
"18 0 LINE",
"102 0 LINE",
"186 226 LINE",
"429 226 LINE",
"511 0 LINE"
);
},
{
closed = 1;
nodes = (
"361 708 OFFCURVE",
"340 687 OFFCURVE",
"313 687 CURVE SMOOTH",
"287 687 OFFCURVE",
"265 709 OFFCURVE",
"265 735 CURVE SMOOTH",
"265 761 OFFCURVE",
"287 783 OFFCURVE",
"313 783 CURVE SMOOTH",
"339 783 OFFCURVE",
"361 761 OFFCURVE",
"361 735 CURVE SMOOTH"
);
},
{
closed = 1;
nodes = (
"404 294 LINE",
"212 294 LINE",
"308 554 LINE"
);
}
);
width = 631;
},
{
hints = (
{
place = "{207.000000, 66.000000}";
},
{
place = "{354.000000, 67.000000}";
},
{
horizontal = 1;
place = "{792.000000, 63.000000}";
},
{
horizontal = 1;
place = "{190.000000, 98.000000}";
},
{
horizontal = 1;
place = "{0.000000, 21.000000}";
target = up;
type = BottomGhost;
}
);
layerId = "9AE9C081-2011-43F2-9F6D-8F63AE9DAFAF";
name = Bold;
paths = (
{
closed = 1;
nodes = (
"629 0 LINE",
"376 665 LINE",
"404 685 OFFCURVE",
"421 717 OFFCURVE",
"421 752 CURVE SMOOTH",
"421 811 OFFCURVE",
"372 855 OFFCURVE",
"313 855 CURVE SMOOTH",
"255 855 OFFCURVE",
"207 811 OFFCURVE",
"207 751 CURVE SMOOTH",
"207 717 OFFCURVE",
"224 684 OFFCURVE",
"253 664 CURVE",
"2 0 LINE",
"118 0 LINE",
"190 190 LINE",
"414 190 LINE",
"485 0 LINE"
);
},
{
closed = 1;
nodes = (
"354 730 OFFCURVE",
"335 711 OFFCURVE",
"313 711 CURVE SMOOTH",
"291 711 OFFCURVE",
"273 730 OFFCURVE",
"273 752 CURVE SMOOTH",
"273 773 OFFCURVE",
"291 792 OFFCURVE",
"313 792 CURVE SMOOTH",
"335 792 OFFCURVE",
"354 773 OFFCURVE",
"354 752 CURVE SMOOTH"
);
},
{
closed = 1;
nodes = (
"227 288 LINE",
"254 372 OFFCURVE",
"279 454 OFFCURVE",
"302 539 CURVE",
"325 455 OFFCURVE",
"348 371 OFFCURVE",
"376 288 CURVE"
);
}
);
width = 631;
}
);
leftKerningGroup = A;
rightKerningGroup = A;
unicode = 00C5;
},
{
glyphname = Atilde;
lastChange = "2015-02-06 22:44:54 +0000";
layers = (
{
hints = (
{
horizontal = 1;
place = "{0.000000, 20.000000}";
},
{
horizontal = 1;
place = "{227.000000, 68.000000}";
},
{
horizontal = 1;
place = "{701.000000, 99.000000}";
}
);
layerId = UUID0;
name = Regular;
paths = (
{
closed = 1;
nodes = (
"435 800 LINE",
"430 785 OFFCURVE",
"416 774 OFFCURVE",
"400 774 CURVE SMOOTH",
"360 774 OFFCURVE",
"313 813 OFFCURVE",
"259 813 CURVE SMOOTH",
"205 813 OFFCURVE",
"172 762 OFFCURVE",
"165 713 CURVE",
"215 713 LINE",
"219 727 OFFCURVE",
"233 740 OFFCURVE",
"248 740 CURVE SMOOTH",
"300 740 OFFCURVE",
"342 701 OFFCURVE",
"398 701 CURVE SMOOTH",
"450 701 OFFCURVE",
"478 755 OFFCURVE",
"483 800 CURVE"
);
},
{
closed = 1;
nodes = (
"614 0 LINE",
"362 670 LINE",
"271 670 LINE",
"18 0 LINE",
"102 0 LINE",
"186 227 LINE",
"429 227 LINE",
"511 0 LINE"
);
},
{
closed = 1;
nodes = (
"404 295 LINE",
"212 295 LINE",
"308 555 LINE"
);
}
);
width = 631;
},
{
hints = (
{
horizontal = 1;
place = "{190.000000, 98.000000}";
},
{
horizontal = 1;
place = "{713.000000, 87.000000}";
},
{
horizontal = 1;
place = "{753.000000, 47.000000}";
},
{
horizontal = 1;
place = "{753.000000, 87.000000}";
},
{
horizontal = 1;
place = "{0.000000, 21.000000}";
target = up;
type = BottomGhost;
}
);
layerId = "9AE9C081-2011-43F2-9F6D-8F63AE9DAFAF";
name = Bold;
paths = (
{
closed = 1;
nodes = (
"629 0 LINE",
"370 680 LINE",
"259 680 LINE",
"2 0 LINE",
"118 0 LINE",
"190 190 LINE",
"414 190 LINE",
"485 0 LINE"
);
},
{
closed = 1;
nodes = (
"227 288 LINE",
"254 372 OFFCURVE",
"279 454 OFFCURVE",
"302 539 CURVE",
"325 455 OFFCURVE",
"348 371 OFFCURVE",
"376 288 CURVE"
);
},
{
closed = 1;
nodes = (
"424 830 LINE",
"424 810 OFFCURVE",
"401 800 OFFCURVE",
"383 800 CURVE SMOOTH",
"346 800 OFFCURVE",
"309 840 OFFCURVE",
"253 840 CURVE SMOOTH",
"185 840 OFFCURVE",
"147 787 OFFCURVE",
"147 723 CURVE",
"212 723 LINE",
"212 744 OFFCURVE",
"235 753 OFFCURVE",
"252 753 CURVE SMOOTH",
"290 753 OFFCURVE",
"327 713 OFFCURVE",
"382 713 CURVE SMOOTH",
"450 713 OFFCURVE",
"489 766 OFFCURVE",
"489 830 CURVE"
);
}
);
width = 631;
}
);
leftKerningGroup = A;
rightKerningGroup = A;
unicode = 00C3;
},
{
glyphname = AE;
lastChange = "2015-02-06 22:44:54 +0000";
layers = (
{
hints = (
{
place = "{390.000000, 326.000000}";
},
{
horizontal = 1;
place = "{0.000000, 71.000000}";
},
{
horizontal = 1;
place = "{248.000000, 72.000000}";
},
{
horizontal = 1;
place = "{338.000000, 72.000000}";
},
{
horizontal = 1;
place = "{660.000000, 68.000000}";
}
);
layerId = UUID0;
name = Regular;
paths = (
{
closed = 1;
nodes = (
"747 0 LINE",
"747 71 LINE",
"482 71 LINE",
"482 338 LINE",
"716 338 LINE",
"716 410 LINE",
"482 410 LINE",
"482 660 LINE",
"747 660 LINE",
"747 728 LINE",
"299 728 LINE",
"313 663 LINE",
"12 0 LINE",
"97 0 LINE",
"211 248 LINE",
"390 248 LINE",
"390 0 LINE"
);
},
{
closed = 1;
nodes = (
"390 320 LINE",
"243 320 LINE",
"390 641 LINE"
);
}
);
width = 794;
},
{
hints = (
{
place = "{442.000000, 138.000000}";
},
{
horizontal = 1;
place = "{0.000000, 99.000000}";
},
{
horizontal = 1;
place = "{210.000000, 98.000000}";
},
{
horizontal = 1;
place = "{327.000000, 99.000000}";
},
{
horizontal = 1;
place = "{633.000000, 99.000000}";
}
);
layerId = "9AE9C081-2011-43F2-9F6D-8F63AE9DAFAF";
name = Bold;
paths = (
{
closed = 1;
nodes = (
"887 0 LINE",
"887 99 LINE",
"580 99 LINE",
"580 327 LINE",
"815 327 LINE",
"815 426 LINE",
"580 426 LINE",
"580 633 LINE",
"887 633 LINE",
"887 732 LINE",
"323 732 LINE",
"337 670 LINE",
"-2 0 LINE",
"120 0 LINE",
"227 210 LINE",
"442 210 LINE",
"442 0 LINE"
);
},
{
closed = 1;
nodes = (
"442 308 LINE",
"278 308 LINE",
"442 633 LINE"
);
}
);
width = 924;
}
);
leftKerningGroup = A;
rightKerningGroup = E;
unicode = 00C6;
},
{
glyphname = B;
lastChange = "2015-02-06 22:44:54 +0000";
layers = (
{
hints = (
{
place = "{85.000000, 93.000000}";
},
{
place = "{438.000000, 97.000000}";
},
{
horizontal = 1;
place = "{0.000000, 69.000000}";
},
{
horizontal = 1;
place = "{358.000000, 69.000000}";
},
{
horizontal = 1;
place = "{659.000000, 69.000000}";
}
);
layerId = UUID0;
name = Regular;
paths = (
{
closed = 1;
nodes = (
"283 0 LINE",
"425 0 OFFCURVE",
"568 30 OFFCURVE",
"568 204 CURVE SMOOTH",
"568 301 OFFCURVE",
"511 382 OFFCURVE",
"412 397 CURVE",
"490 411 OFFCURVE",
"535 484 OFFCURVE",
"535 559 CURVE SMOOTH",
"535 694 OFFCURVE",
"428 728 OFFCURVE",
"314 728 CURVE SMOOTH",
"71 728 LINE",
"72 722 OFFCURVE",
"85 664 OFFCURVE",
"85 662 CURVE SMOOTH",
"85 0 LINE"
);
},
{
closed = 1;
nodes = (
"178 427 LINE",
"178 659 LINE",
"311 659 LINE SMOOTH",
"379 659 OFFCURVE",
"438 636 OFFCURVE",
"438 557 CURVE SMOOTH",
"438 459 OFFCURVE",
"378 427 OFFCURVE",
"285 427 CURVE SMOOTH"
);
},
{
closed = 1;
nodes = (
"178 69 LINE",
"178 358 LINE",
"289 358 LINE SMOOTH",
"377 358 OFFCURVE",
"469 321 OFFCURVE",
"469 219 CURVE SMOOTH",
"469 100 OFFCURVE",
"394 69 OFFCURVE",
"289 69 CURVE SMOOTH"
);
}
);
width = 614;
},
{
hints = (
{
place = "{67.000000, 138.000000}";
},
{
place = "{407.000000, 145.000000}";
},
{
place = "{441.000000, 111.000000}";
},
{
place = "{441.000000, 145.000000}";
},
{
horizontal = 1;
place = "{0.000000, 99.000000}";
},
{
horizontal = 1;
place = "{347.000000, 99.000000}";
},
{
horizontal = 1;
place = "{633.000000, 99.000000}";
}
);
layerId = "9AE9C081-2011-43F2-9F6D-8F63AE9DAFAF";
name = Bold;
paths = (
{
closed = 1;
nodes = (
"586 308 OFFCURVE",
"501 383 OFFCURVE",
"403 399 CURVE",
"485 411 OFFCURVE",
"552 475 OFFCURVE",
"552 561 CURVE SMOOTH",
"552 699 OFFCURVE",
"428 732 OFFCURVE",
"313 732 CURVE SMOOTH",
"53 732 LINE",
"54 727 OFFCURVE",
"67 673 OFFCURVE",
"67 671 CURVE SMOOTH",
"67 0 LINE",
"323 0 LINE SMOOTH",
"452 0 OFFCURVE",
"586 53 OFFCURVE",
"586 203 CURVE SMOOTH"
);
},
{
closed = 1;
nodes = (
"407 484 OFFCURVE",
"364 446 OFFCURVE",
"308 446 CURVE SMOOTH",
"205 446 LINE",
"205 633 LINE",
"305 633 LINE SMOOTH",
"364 633 OFFCURVE",
"407 606 OFFCURVE",
"407 542 CURVE SMOOTH"
);
},
{
closed = 1;
nodes = (
"441 143 OFFCURVE",
"388 99 OFFCURVE",
"314 99 CURVE SMOOTH",
"205 99 LINE",
"205 347 LINE",
"283 347 LINE SMOOTH",
"363 347 OFFCURVE",
"441 309 OFFCURVE",
"441 219 CURVE SMOOTH"
);
}
);
width = 614;
}
);
leftKerningGroup = M;
unicode = 0042;
},
{
glyphname = C;
lastChange = "2015-02-06 22:44:54 +0000";
layers = (
{
hints = (
{
place = "{46.000000, 102.000000}";
},
{
horizontal = 1;
place = "{-12.000000, 75.000000}";
},
{
horizontal = 1;
place = "{668.000000, 70.000000}";
}
);
layerId = UUID0;
name = Regular;
paths = (
{
closed = 1;
nodes = (
"564 125 LINE",
"519 86 OFFCURVE",
"445 63 OFFCURVE",
"387 63 CURVE SMOOTH",
"215 63 OFFCURVE",
"148 206 OFFCURVE",
"148 360 CURVE SMOOTH",
"148 509 OFFCURVE",
"213 668 OFFCURVE",
"385 668 CURVE SMOOTH",
"441 668 OFFCURVE",
"514 644 OFFCURVE",
"553 601 CURVE",
"605 659 LINE",
"556 714 OFFCURVE",
"457 738 OFFCURVE",
"387 738 CURVE SMOOTH",
"169 738 OFFCURVE",
"46 575 OFFCURVE",
"46 366 CURVE SMOOTH",
"46 162 OFFCURVE",
"166 -12 OFFCURVE",
"385 -12 CURVE SMOOTH",
"455 -12 OFFCURVE",
"551 11 OFFCURVE",
"607 58 CURVE"
);
}
);
width = 624;
},
{
hints = (
{
place = "{20.000000, 149.000000}";
},
{
horizontal = 1;
place = "{-12.000000, 94.000000}";
},
{
horizontal = 1;
place = "{649.000000, 97.000000}";
}
);
layerId = "9AE9C081-2011-43F2-9F6D-8F63AE9DAFAF";
name = Bold;
paths = (
{
closed = 1;
nodes = (
"549 157 LINE",
"500 110 OFFCURVE",
"448 82 OFFCURVE",
"378 82 CURVE SMOOTH",
"232 82 OFFCURVE",
"169 252 OFFCURVE",
"169 374 CURVE SMOOTH",
"169 509 OFFCURVE",
"220 649 OFFCURVE",
"376 649 CURVE SMOOTH",
"431 649 OFFCURVE",
"499 625 OFFCURVE",
"536 583 CURVE",
"608 675 LINE",
"552 725 OFFCURVE",
"443 746 OFFCURVE",
"371 746 CURVE SMOOTH",
"152 746 OFFCURVE",
"20 583 OFFCURVE",
"20 371 CURVE SMOOTH",
"20 151 OFFCURVE",
"138 -12 OFFCURVE",
"370 -12 CURVE SMOOTH",
"467 -12 OFFCURVE",
"532 12 OFFCURVE",
"612 62 CURVE"
);
}
);
width = 624;
}
);
leftKerningGroup = O;
rightKerningGroup = C;
unicode = 0043;
},
{
glyphname = Ccedilla;
lastChange = "2015-02-06 22:44:54 +0000";
layers = (
{
hints = (
{
place = "{46.000000, 102.000000}";
},
{
place = "{398.000000, 83.000000}";
},
{
horizontal = 1;
place = "{-220.000000, 51.000000}";
},
{
horizontal = 1;
place = "{-95.000000, 158.000000}";
},
{
horizontal = 1;
place = "{668.000000, 70.000000}";
}
);
layerId = UUID0;
name = Regular;
paths = (
{
closed = 1;
nodes = (
"265 -192 LINE",
"292 -209 OFFCURVE",
"323 -220 OFFCURVE",
"351 -220 CURVE SMOOTH",
"409 -220 OFFCURVE",
"481 -204 OFFCURVE",
"481 -127 CURVE SMOOTH",
"481 -68 OFFCURVE",
"424 -46 OFFCURVE",
"377 -46 CURVE",
"365 -46 LINE",
"383 -12 LINE",
"455 -12 OFFCURVE",
"551 11 OFFCURVE",
"607 58 CURVE",
"564 125 LINE",
"519 86 OFFCURVE",
"445 63 OFFCURVE",
"387 63 CURVE SMOOTH",
"215 63 OFFCURVE",
"148 206 OFFCURVE",
"148 360 CURVE SMOOTH",
"148 509 OFFCURVE",
"213 668 OFFCURVE",
"385 668 CURVE SMOOTH",
"441 668 OFFCURVE",
"514 644 OFFCURVE",
"553 601 CURVE",
"605 659 LINE",
"556 714 OFFCURVE",
"457 738 OFFCURVE",
"387 738 CURVE SMOOTH",
"169 738 OFFCURVE",
"46 575 OFFCURVE",
"46 366 CURVE SMOOTH",
"46 177 OFFCURVE",
"149 14 OFFCURVE",
"337 -9 CURVE",
"299 -77 LINE",
"298 -79 OFFCURVE",
"297 -81 OFFCURVE",
"297 -83 CURVE SMOOTH",
"297 -90 OFFCURVE",
"305 -95 OFFCURVE",
"312 -95 CURVE SMOOTH",
"360 -95 LINE SMOOTH",
"382 -95 OFFCURVE",
"398 -108 OFFCURVE",
"398 -130 CURVE SMOOTH",
"398 -153 OFFCURVE",
"376 -169 OFFCURVE",
"354 -169 CURVE SMOOTH",
"336 -169 OFFCURVE",
"311 -158 OFFCURVE",
"290 -146 CURVE"
);
}
);
width = 624;
},
{
hints = (
{
place = "{20.000000, 149.000000}";
},
{
place = "{369.000000, 93.000000}";
},
{
horizontal = 1;
place = "{-220.000000, 58.000000}";
},
{
horizontal = 1;
place = "{-100.000000, 52.000000}";
},
{
horizontal = 1;
place = "{-12.000000, 94.000000}";
},
{
horizontal = 1;
place = "{649.000000, 97.000000}";
}
);
layerId = "9AE9C081-2011-43F2-9F6D-8F63AE9DAFAF";
name = Bold;
paths = (
{
closed = 1;
nodes = (
"549 157 LINE",
"500 110 OFFCURVE",
"448 82 OFFCURVE",
"378 82 CURVE SMOOTH",
"232 82 OFFCURVE",
"169 252 OFFCURVE",
"169 374 CURVE SMOOTH",
"169 509 OFFCURVE",
"220 649 OFFCURVE",
"376 649 CURVE SMOOTH",
"431 649 OFFCURVE",
"499 625 OFFCURVE",
"536 583 CURVE",
"608 675 LINE",
"552 725 OFFCURVE",
"443 746 OFFCURVE",
"371 746 CURVE SMOOTH",
"152 746 OFFCURVE",
"20 583 OFFCURVE",
"20 371 CURVE SMOOTH",
"20 171 OFFCURVE",
"118 17 OFFCURVE",
"311 -8 CURVE",
"273 -73 LINE SMOOTH",
"271 -76 OFFCURVE",
"270 -79 OFFCURVE",
"270 -83 CURVE SMOOTH",
"270 -91 OFFCURVE",
"275 -100 OFFCURVE",
"289 -100 CURVE SMOOTH",
"336 -100 LINE SMOOTH",
"356 -100 OFFCURVE",
"369 -111 OFFCURVE",
"369 -129 CURVE SMOOTH",
"369 -148 OFFCURVE",
"351 -162 OFFCURVE",
"330 -162 CURVE SMOOTH",
"314 -162 OFFCURVE",
"289 -154 OFFCURVE",
"263 -140 CURVE",
"235 -190 LINE",
"267 -209 OFFCURVE",
"299 -220 OFFCURVE",
"327 -220 CURVE SMOOTH",
"385 -220 OFFCURVE",
"462 -205 OFFCURVE",
"462 -126 CURVE SMOOTH",
"462 -65 OFFCURVE",
"400 -48 OFFCURVE",
"352 -48 CURVE SMOOTH",
"348 -48 LINE",
"368 -12 LINE",
"468 -12 OFFCURVE",
"532 12 OFFCURVE",
"612 62 CURVE"
);
}
);
width = 624;
}
);
leftKerningGroup = O;
rightKerningGroup = C;
unicode = 00C7;
},
{
glyphname = D;
lastChange = "2015-02-06 22:44:54 +0000";
layers = (
{
hints = (
{
place = "{86.000000, 93.000000}";
},
{
place = "{556.000000, 97.000000}";
},
{
horizontal = 1;
place = "{0.000000, 69.000000}";
},
{
horizontal = 1;
place = "{659.000000, 69.000000}";
}
);
layerId = UUID0;
name = Regular;
paths = (
{
closed = 1;
nodes = (
"323 0 LINE",
"548 0 OFFCURVE",
"653 152 OFFCURVE",
"653 362 CURVE SMOOTH",
"653 625 OFFCURVE",
"502 728 OFFCURVE",
"259 728 CURVE SMOOTH",
"72 728 LINE",
"73 722 OFFCURVE",
"86 664 OFFCURVE",
"86 662 CURVE SMOOTH",
"86 0 LINE"
);
},
{
closed = 1;
nodes = (
"179 69 LINE",
"179 659 LINE",
"252 659 LINE SMOOTH",
"451 659 OFFCURVE",
"556 575 OFFCURVE",
"556 364 CURVE SMOOTH",
"556 202 OFFCURVE",
"493 69 OFFCURVE",
"311 69 CURVE SMOOTH"
);
}
);
width = 699;
},
{
hints = (
{
place = "{67.000000, 138.000000}";
},
{
place = "{532.000000, 148.000000}";
},
{
horizontal = 1;
place = "{0.000000, 99.000000}";
},
{
horizontal = 1;
place = "{633.000000, 99.000000}";
}
);
layerId = "9AE9C081-2011-43F2-9F6D-8F63AE9DAFAF";
name = Bold;
paths = (
{
closed = 1;
nodes = (
"680 583 OFFCURVE",
"551 732 OFFCURVE",
"328 732 CURVE SMOOTH",
"51 732 LINE",
"53 727 OFFCURVE",
"67 672 OFFCURVE",
"67 671 CURVE",
"67 0 LINE",
"327 0 LINE SMOOTH",
"422 0 OFFCURVE",
"509 27 OFFCURVE",
"577 95 CURVE SMOOTH",
"648 165 OFFCURVE",
"680 267 OFFCURVE",
"680 365 CURVE SMOOTH"
);
},
{
closed = 1;
nodes = (
"532 226 OFFCURVE",
"473 99 OFFCURVE",
"321 99 CURVE SMOOTH",
"205 99 LINE",
"205 633 LINE",
"319 633 LINE SMOOTH",
"474 633 OFFCURVE",
"532 496 OFFCURVE",
"532 361 CURVE SMOOTH"
);
}
);
width = 699;
}
);
leftKerningGroup = M;
rightKerningGroup = O;
unicode = 0044;
},
{
glyphname = Eth;
lastChange = "2015-02-06 22:44:54 +0000";
layers = (
{
layerId = UUID0;
name = Regular;
paths = (
{
closed = 1;
nodes = (
"326 0 LINE",
"551 0 OFFCURVE",
"656 152 OFFCURVE",
"656 362 CURVE SMOOTH",
"656 625 OFFCURVE",
"505 728 OFFCURVE",
"262 728 CURVE SMOOTH",
"75 728 LINE",
"76 722 OFFCURVE",
"89 664 OFFCURVE",
"89 662 CURVE SMOOTH",
"89 395 LINE",
"8 395 LINE",
"8 331 LINE",
"89 331 LINE",
"89 0 LINE"
);
},
{
closed = 1;
nodes = (
"182 69 LINE",
"182 331 LINE",
"337 331 LINE",
"337 395 LINE",
"182 395 LINE",
"182 659 LINE",
"255 659 LINE SMOOTH",
"454 659 OFFCURVE",
"559 575 OFFCURVE",
"559 364 CURVE SMOOTH",
"559 202 OFFCURVE",
"496 69 OFFCURVE",
"314 69 CURVE SMOOTH"
);
}
);
width = 714;
},
{
hints = (
{
place = "{67.000000, 138.000000}";
},
{
place = "{532.000000, 148.000000}";
},
{
horizontal = 1;
place = "{0.000000, 99.000000}";
},
{
horizontal = 1;
place = "{324.000000, 88.000000}";
},
{
horizontal = 1;
place = "{633.000000, 99.000000}";
}
);
layerId = "9AE9C081-2011-43F2-9F6D-8F63AE9DAFAF";
name = Bold;
paths = (
{
closed = 1;
nodes = (
"327 0 LINE",
"422 0 OFFCURVE",
"509 27 OFFCURVE",
"577 95 CURVE SMOOTH",
"648 165 OFFCURVE",
"680 267 OFFCURVE",
"680 365 CURVE SMOOTH",
"680 583 OFFCURVE",
"551 732 OFFCURVE",
"328 732 CURVE SMOOTH",
"51 732 LINE",
"53 727 OFFCURVE",
"65 678 OFFCURVE",
"67 672 CURVE",
"67 412 LINE",
"-16 412 LINE",
"-16 324 LINE",
"67 324 LINE",
"67 0 LINE"
);
},
{
closed = 1;
nodes = (
"205 99 LINE",
"205 324 LINE",
"355 324 LINE",
"355 412 LINE",
"205 412 LINE",
"205 633 LINE",
"319 633 LINE SMOOTH",
"474 633 OFFCURVE",
"532 496 OFFCURVE",
"532 361 CURVE SMOOTH",
"532 226 OFFCURVE",
"473 99 OFFCURVE",
"321 99 CURVE SMOOTH"
);
}
);
width = 715;
}
);
leftKerningGroup = M;
rightKerningGroup = O;
unicode = 00D0;
},
{
glyphname = E;
lastChange = "2015-02-06 23:25:56 +0000";
layers = (
{
hints = (
{
place = "{86.000000, 93.000000}";
},
{
horizontal = 1;
place = "{0.000000, 69.000000}";
},
{
horizontal = 1;
place = "{340.000000, 68.000000}";
},
{
horizontal = 1;
place = "{659.000000, 69.000000}";
},
{
horizontal = 1;
origin = "{0, 14}";
type = Anchor;
},
{
horizontal = 1;
origin = "{0, 9}";
type = Anchor;
},
{
horizontal = 1;
origin = "{0, 14}";
target = "{0, 7}";
type = TTStem;
},
{
horizontal = 1;
origin = "{0, 9}";
target = "{0, 7}";
type = TTStem;
},
{
horizontal = 1;
origin = "{0, 14}";
target = "{0, 1}";
type = TTStem;
},
{
horizontal = 1;
origin = "{0, 14}";
target = "{0, 7}";
other1 = "{0, 5}";
type = Interpolate;
},
{
horizontal = 1;
origin = "{0, 5}";
target = "{0, 3}";
type = TTStem;
}
);
layerId = UUID0;
name = Regular;
paths = (
{
closed = 1;
nodes = (
"509 0 LINE",
"509 69 LINE",
"179 69 LINE",
"179 340 LINE",
"435 340 LINE",
"435 408 LINE",
"179 408 LINE",
"179 659 LINE",
"509 659 LINE",
"509 728 LINE",
"72 728 LINE",
"73 722 OFFCURVE",
"86 664 OFFCURVE",
"86 662 CURVE SMOOTH",
"86 0 LINE"
);
}
);
width = 549;
},
{
hints = (
{
horizontal = 1;
origin = "{0, 12}";
type = Anchor;
},
{
horizontal = 1;
origin = "{0, 9}";
type = Anchor;
},
{
horizontal = 1;
origin = "{0, 12}";
target = "{0, 7}";
type = Align;
},
{
horizontal = 1;
origin = "{0, 9}";
target = "{0, 7}";
type = Align;
},
{
horizontal = 1;
origin = "{0, 9}";
target = "{0, 8}";
type = TTStem;
},
{
horizontal = 1;
origin = "{0, 7}";
target = "{0, 11}";
type = TTStem;
},
{
horizontal = 1;
origin = "{0, 0}";
target = "{0, 1}";
type = TTStem;
},
{
horizontal = 1;
origin = "{0, 8}";
target = "{0, 1}";
other1 = "{0, 5}";
type = Interpolate;
},
{
horizontal = 1;
origin = "{0, 5}";
target = "{0, 4}";
type = TTStem;
}
);
layerId = "9AE9C081-2011-43F2-9F6D-8F63AE9DAFAF";
name = Bold;
paths = (
{
closed = 1;
nodes = (
"512 0 LINE",
"512 99 LINE",
"204 99 LINE",
"204 327 LINE",
"440 327 LINE",
"440 426 LINE",
"204 426 LINE",
"204 633 LINE",
"512 633 LINE",
"512 732 LINE",
"52 732 LINE",
"67 671 LINE",
"67 0 LINE"
);
}
);
width = 549;
}
);
leftKerningGroup = M;
rightKerningGroup = E;
unicode = 0045;
},
{
glyphname = Eacute;
lastChange = "2015-02-06 22:44:54 +0000";
layers = (
{
hints = (
{
place = "{86.000000, 94.000000}";
},
{
horizontal = 1;
place = "{-1.000000, 69.000000}";
},
{
horizontal = 1;
place = "{306.000000, 70.000000}";
},
{
horizontal = 1;
place = "{600.000000, 68.000000}";
}
);
layerId = UUID0;
name = Regular;
paths = (
{
closed = 1;
nodes = (
"337 717 LINE",
"477 869 LINE",
"354 869 LINE",
"259 717 LINE"
);
},
{
closed = 1;
nodes = (
"509 0 LINE",
"509 69 LINE",
"180 69 LINE",
"180 306 LINE",
"435 306 LINE",
"435 376 LINE",
"180 376 LINE",
"180 600 LINE",
"509 600 LINE",
"509 668 LINE",
"72 668 LINE",
"73 662 OFFCURVE",
"86 605 OFFCURVE",
"86 603 CURVE SMOOTH",
"86 0 LINE"
);
}
);
width = 549;
},
{
hints = (
{
place = "{68.000000, 138.000000}";
},
{
horizontal = 1;
place = "{0.000000, 99.000000}";
},
{
horizontal = 1;
place = "{292.000000, 99.000000}";
},
{
horizontal = 1;
place = "{575.000000, 99.000000}";
},
{
horizontal = 1;
place = "{881.000000, -20.000000}";
target = down;
type = TopGhost;
}
);
layerId = "9AE9C081-2011-43F2-9F6D-8F63AE9DAFAF";
name = Bold;
paths = (
{
closed = 1;
nodes = (
"513 0 LINE",
"513 99 LINE",
"206 99 LINE",
"206 292 LINE",
"441 292 LINE",
"441 391 LINE",
"206 391 LINE",
"206 575 LINE",
"513 575 LINE",
"513 674 LINE",
"54 674 LINE",
"55 669 OFFCURVE",
"68 615 OFFCURVE",
"68 613 CURVE SMOOTH",
"68 0 LINE"
);
},
{
closed = 1;
nodes = (
"472 881 LINE",
"326 881 LINE",
"217 717 LINE",
"321 717 LINE"
);
}
);
width = 549;
}
);
leftKerningGroup = M;
rightKerningGroup = E;
unicode = 00C9;
},
{
glyphname = Ecircumflex;
lastChange = "2015-02-06 22:44:54 +0000";
layers = (
{
hints = (
{
place = "{86.000000, 94.000000}";
},
{
horizontal = 1;
place = "{0.000000, 69.000000}";
},
{
horizontal = 1;
place = "{307.000000, 70.000000}";
},
{
horizontal = 1;
place = "{601.000000, 68.000000}";
}
);
layerId = UUID0;
name = Regular;
paths = (
{
closed = 1;
nodes = (
"446 696 LINE",
"340 851 LINE",
"256 851 LINE",
"154 696 LINE",
"221 696 LINE",
"298 778 LINE",
"376 696 LINE"
);
},
{
closed = 1;
nodes = (
"509 0 LINE",
"509 69 LINE",
"180 69 LINE",
"180 307 LINE",
"435 307 LINE",
"435 377 LINE",
"180 377 LINE",
"180 601 LINE",
"509 601 LINE",
"509 669 LINE",
"72 669 LINE",
"73 663 OFFCURVE",
"86 606 OFFCURVE",
"86 604 CURVE SMOOTH",
"86 0 LINE"
);
}
);
width = 549;
},
{
hints = (
{
place = "{68.000000, 138.000000}";
},
{
horizontal = 1;
place = "{0.000000, 99.000000}";
},
{
horizontal = 1;
place = "{292.000000, 99.000000}";
},
{
horizontal = 1;
place = "{575.000000, 99.000000}";
},
{
horizontal = 1;
place = "{862.000000, -20.000000}";
target = down;
type = TopGhost;
}
);
layerId = "9AE9C081-2011-43F2-9F6D-8F63AE9DAFAF";
name = Bold;
paths = (
{
closed = 1;
nodes = (
"513 0 LINE",
"513 99 LINE",
"206 99 LINE",
"206 292 LINE",
"441 292 LINE",
"441 391 LINE",
"206 391 LINE",
"206 575 LINE",
"513 575 LINE",
"513 674 LINE",
"54 674 LINE",
"55 669 OFFCURVE",
"68 615 OFFCURVE",
"68 613 CURVE SMOOTH",
"68 0 LINE"
);
},
{
closed = 1;
nodes = (
"442 717 LINE",
"343 862 LINE",
"245 862 LINE",
"149 717 LINE",
"225 717 LINE",
"294 791 LINE",
"364 717 LINE"
);
}
);
width = 549;
}
);
leftKerningGroup = M;
rightKerningGroup = E;
unicode = 00CA;
},
{
glyphname = Edieresis;
lastChange = "2015-02-06 22:44:54 +0000";
layers = (
{
hints = (
{
place = "{84.000000, 94.000000}";
},
{
place = "{328.000000, 114.000000}";
},
{
horizontal = 1;
place = "{0.000000, 69.000000}";
},
{
horizontal = 1;
place = "{307.000000, 70.000000}";
},
{
horizontal = 1;
place = "{601.000000, 68.000000}";
},
{
horizontal = 1;
place = "{721.000000, 114.000000}";
}
);
layerId = UUID0;
name = Regular;
paths = (
{
closed = 1;
nodes = (
"442 809 OFFCURVE",
"416 835 OFFCURVE",
"385 835 CURVE SMOOTH",
"354 835 OFFCURVE",
"328 809 OFFCURVE",
"328 778 CURVE SMOOTH",
"328 746 OFFCURVE",
"353 721 OFFCURVE",
"385 721 CURVE SMOOTH",
"416 721 OFFCURVE",
"442 747 OFFCURVE",
"442 778 CURVE SMOOTH"
);
},
{
closed = 1;
nodes = (
"253 721 OFFCURVE",
"278 747 OFFCURVE",
"278 778 CURVE SMOOTH",
"278 809 OFFCURVE",
"253 835 OFFCURVE",
"222 835 CURVE SMOOTH",
"191 835 OFFCURVE",
"165 809 OFFCURVE",
"165 778 CURVE SMOOTH",
"165 746 OFFCURVE",
"190 721 OFFCURVE",
"222 721 CURVE SMOOTH"
);
},
{
closed = 1;
nodes = (
"507 0 LINE",
"507 69 LINE",
"178 69 LINE",
"178 307 LINE",
"433 307 LINE",
"433 377 LINE",
"178 377 LINE",
"178 601 LINE",
"507 601 LINE",
"507 669 LINE",
"70 669 LINE",
"71 663 OFFCURVE",
"84 606 OFFCURVE",
"84 604 CURVE SMOOTH",
"84 0 LINE"
);
}
);
width = 549;
},
{
hints = (
{
place = "{68.000000, 138.000000}";
},
{
place = "{161.000000, 114.000000}";
},
{
place = "{321.000000, 120.000000}";
},
{
horizontal = 1;
place = "{0.000000, 99.000000}";
},
{
horizontal = 1;
place = "{292.000000, 99.000000}";
},
{
horizontal = 1;
place = "{575.000000, 99.000000}";
},
{
horizontal = 1;
place = "{735.000000, 114.000000}";
}
);
layerId = "9AE9C081-2011-43F2-9F6D-8F63AE9DAFAF";
name = Bold;
paths = (
{
closed = 1;
nodes = (
"513 0 LINE",
"513 99 LINE",
"206 99 LINE",
"206 292 LINE",
"441 292 LINE",
"441 391 LINE",
"206 391 LINE",
"206 575 LINE",
"513 575 LINE",
"513 674 LINE",
"54 674 LINE",
"55 669 OFFCURVE",
"68 615 OFFCURVE",
"68 613 CURVE SMOOTH",
"68 0 LINE"
);
},
{
closed = 1;
nodes = (
"436 824 OFFCURVE",
"410 849 OFFCURVE",
"378 849 CURVE SMOOTH",
"346 849 OFFCURVE",
"321 823 OFFCURVE",
"321 792 CURVE SMOOTH",
"321 760 OFFCURVE",
"346 735 OFFCURVE",
"378 735 CURVE SMOOTH",
"410 735 OFFCURVE",
"436 760 OFFCURVE",
"436 792 CURVE SMOOTH"
);
},
{
closed = 1;
nodes = (
"275 823 OFFCURVE",
"250 849 OFFCURVE",
"218 849 CURVE SMOOTH",
"186 849 OFFCURVE",
"161 823 OFFCURVE",
"161 792 CURVE SMOOTH",
"161 760 OFFCURVE",
"186 735 OFFCURVE",
"218 735 CURVE SMOOTH",
"250 735 OFFCURVE",
"275 760 OFFCURVE",
"275 792 CURVE SMOOTH"
);
}
);
width = 549;
}
);
leftKerningGroup = M;
rightKerningGroup = E;
unicode = 00CB;
},
{
glyphname = Egrave;
lastChange = "2015-02-06 22:44:54 +0000";
layers = (
{
hints = (
{
place = "{86.000000, 94.000000}";
},
{
horizontal = 1;
place = "{0.000000, 69.000000}";
},
{
horizontal = 1;
place = "{307.000000, 70.000000}";
},
{
horizontal = 1;
place = "{601.000000, 68.000000}";
}
);
layerId = UUID0;
name = Regular;
paths = (
{
closed = 1;
nodes = (
"347 721 LINE",
"252 873 LINE",
"130 873 LINE",
"270 721 LINE"
);
},
{
closed = 1;
nodes = (
"509 0 LINE",
"509 69 LINE",
"180 69 LINE",
"180 306 LINE",
"435 306 LINE",
"435 376 LINE",
"180 376 LINE",
"180 600 LINE",
"509 600 LINE",
"509 668 LINE",
"72 668 LINE",
"73 662 OFFCURVE",
"86 605 OFFCURVE",
"86 603 CURVE SMOOTH",
"86 0 LINE"
);
}
);
width = 549;
},
{
hints = (
{
place = "{68.000000, 138.000000}";
},
{
horizontal = 1;
place = "{0.000000, 99.000000}";
},
{
horizontal = 1;
place = "{292.000000, 99.000000}";
},
{
horizontal = 1;
place = "{575.000000, 99.000000}";
},
{
horizontal = 1;
place = "{881.000000, -20.000000}";
target = down;
type = TopGhost;
}
);
layerId = "9AE9C081-2011-43F2-9F6D-8F63AE9DAFAF";
name = Bold;
paths = (
{
closed = 1;
nodes = (
"513 0 LINE",
"513 99 LINE",
"206 99 LINE",
"206 292 LINE",
"441 292 LINE",
"441 391 LINE",
"206 391 LINE",
"206 575 LINE",
"513 575 LINE",
"513 674 LINE",
"54 674 LINE",
"55 669 OFFCURVE",
"68 615 OFFCURVE",
"68 613 CURVE SMOOTH",
"68 0 LINE"
);
},
{
closed = 1;
nodes = (
"366 717 LINE",
"257 881 LINE",
"112 881 LINE",
"263 717 LINE"
);
}
);
width = 549;
}
);
leftKerningGroup = M;
rightKerningGroup = E;
unicode = 00C8;
},
{
glyphname = F;
lastChange = "2015-02-06 23:23:03 +0000";
layers = (
{
hints = (
{
place = "{86.000000, 328.000000}";
},
{
horizontal = 1;
place = "{0.000000, 20.000000}";
},
{
horizontal = 1;
place = "{340.000000, 68.000000}";
},
{
horizontal = 1;
place = "{659.000000, 69.000000}";
}
);
layerId = UUID0;
name = Regular;
paths = (
{
closed = 1;
nodes = (
"179 0 LINE",
"179 340 LINE",
"414 340 LINE",
"414 408 LINE",
"179 408 LINE",
"179 659 LINE",
"475 659 LINE",
"475 728 LINE",
"72 728 LINE",
"73 722 OFFCURVE",
"86 664 OFFCURVE",
"86 662 CURVE SMOOTH",
"86 0 LINE"
);
}
);
width = 510;
},
{
hints = (
{
place = "{67.000000, 139.000000}";
},
{
horizontal = 1;
place = "{327.000000, 99.000000}";
},
{
horizontal = 1;
place = "{633.000000, 99.000000}";
},
{
horizontal = 1;
place = "{0.000000, 21.000000}";
target = up;
type = BottomGhost;
},
{
horizontal = 1;
origin = "{0, 6}";
type = Anchor;
},
{
horizontal = 1;
origin = "{0, 1}";
type = Anchor;
},
{
horizontal = 1;
origin = "{0, 6}";
target = "{0, 12}";
type = TTStem;
},
{
horizontal = 1;
origin = "{0, 1}";
target = "{0, 12}";
type = TTStem;
},
{
horizontal = 1;
origin = "{0, 8}";
target = "{0, 10}";
type = TTStem;
}
);
layerId = "9AE9C081-2011-43F2-9F6D-8F63AE9DAFAF";
name = Bold;
paths = (
{
closed = 1;
nodes = (
"482 633 LINE",
"482 732 LINE",
"53 732 LINE",
"54 727 OFFCURVE",
"67 673 OFFCURVE",
"67 671 CURVE SMOOTH",
"67 0 LINE",
"206 0 LINE",
"206 327 LINE",
"419 327 LINE",
"419 426 LINE",
"206 426 LINE",
"206 633 LINE"
);
}
);
width = 510;
}
);
leftKerningGroup = M;
unicode = 0046;
},
{
glyphname = G;
lastChange = "2015-02-06 22:44:54 +0000";
layers = (
{
hints = (
{
place = "{47.000000, 98.000000}";
},
{
place = "{548.000000, 94.000000}";
},
{
horizontal = 1;
place = "{-12.000000, 74.000000}";
},
{
horizontal = 1;
place = "{307.000000, 68.000000}";
},
{
horizontal = 1;
place = "{666.000000, 72.000000}";
}
);
layerId = UUID0;
name = Regular;
paths = (
{
closed = 1;
nodes = (
"651 0 LINE",
"648 55 OFFCURVE",
"642 111 OFFCURVE",
"642 166 CURVE SMOOTH",
"642 375 LINE",
"381 375 LINE",
"369 307 LINE",
"548 307 LINE",
"548 241 LINE SMOOTH",
"548 138 OFFCURVE",
"480 62 OFFCURVE",
"375 62 CURVE SMOOTH",
"205 62 OFFCURVE",
"145 218 OFFCURVE",
"145 364 CURVE SMOOTH",
"145 518 OFFCURVE",
"210 666 OFFCURVE",
"385 666 CURVE SMOOTH",
"468 666 OFFCURVE",
"508 643 OFFCURVE",
"571 593 CURVE",
"624 655 LINE",
"568 713 OFFCURVE",
"462 738 OFFCURVE",
"385 738 CURVE SMOOTH",
"159 738 OFFCURVE",
"47 568 OFFCURVE",
"47 355 CURVE SMOOTH",
"47 161 OFFCURVE",
"149 -12 OFFCURVE",
"359 -12 CURVE SMOOTH",
"445 -12 OFFCURVE",
"510 13 OFFCURVE",
"569 76 CURVE",
"601 0 LINE"
);
}
);
width = 707;
},
{
hints = (
{
place = "{21.000000, 145.000000}";
},
{
place = "{526.000000, 137.000000}";
},
{
horizontal = 1;
place = "{-11.000000, 96.000000}";
},
{
horizontal = 1;
place = "{302.000000, 88.000000}";
},
{
horizontal = 1;
place = "{650.000000, 94.000000}";
},
{
horizontal = 1;
place = "{-1.000000, 21.000000}";
target = up;
type = BottomGhost;
}
);
layerId = "9AE9C081-2011-43F2-9F6D-8F63AE9DAFAF";
name = Bold;
paths = (
{
closed = 1;
nodes = (
"668 -1 LINE",
"664 68 OFFCURVE",
"663 137 OFFCURVE",
"663 206 CURVE SMOOTH",
"663 268 OFFCURVE",
"664 329 OFFCURVE",
"665 390 CURVE",
"387 390 LINE",
"374 302 LINE",
"526 302 LINE",
"526 240 LINE SMOOTH",
"526 144 OFFCURVE",
"462 85 OFFCURVE",
"368 85 CURVE SMOOTH",
"221 85 OFFCURVE",
"166 245 OFFCURVE",
"166 368 CURVE SMOOTH",
"166 513 OFFCURVE",
"221 650 OFFCURVE",
"387 650 CURVE SMOOTH",
"472 650 OFFCURVE",
"507 630 OFFCURVE",
"571 583 CURVE",
"644 665 LINE",
"584 722 OFFCURVE",
"465 744 OFFCURVE",
"387 744 CURVE SMOOTH",
"154 744 OFFCURVE",
"21 588 OFFCURVE",
"21 359 CURVE SMOOTH",
"21 155 OFFCURVE",
"128 -11 OFFCURVE",
"345 -11 CURVE SMOOTH",
"437 -11 OFFCURVE",
"497 14 OFFCURVE",
"563 75 CURVE",
"597 -1 LINE"
);
}
);
width = 707;
}
);
leftKerningGroup = O;
unicode = 0047;
},
{
glyphname = H;
lastChange = "2015-02-06 22:44:54 +0000";
layers = (
{
hints = (
{
place = "{87.000000, 93.000000}";
},
{
place = "{534.000000, 93.000000}";
},
{
horizontal = 1;
place = "{0.000000, 20.000000}";
},
{
horizontal = 1;
place = "{344.000000, 68.000000}";
},
{
horizontal = 1;
place = "{728.000000, -20.000000}";
target = down;
type = TopGhost;
}
);
layerId = UUID0;
name = Regular;
paths = (
{
closed = 1;
nodes = (
"627 0 LINE",
"627 728 LINE",
"534 728 LINE",
"534 412 LINE",
"180 412 LINE",
"180 728 LINE",
"73 728 LINE",
"74 722 OFFCURVE",
"87 664 OFFCURVE",
"87 662 CURVE SMOOTH",
"87 0 LINE",
"180 0 LINE",
"180 344 LINE",
"534 344 LINE",
"534 0 LINE"
);
}
);
width = 714;
},
{
hints = (
{
place = "{67.000000, 138.000000}";
},
{
place = "{512.000000, 138.000000}";
},
{
horizontal = 1;
place = "{327.000000, 99.000000}";
},
{
horizontal = 1;
place = "{0.000000, 21.000000}";
target = up;
type = BottomGhost;
},
{
horizontal = 1;
place = "{732.000000, -20.000000}";
target = down;
type = TopGhost;
}
);
layerId = "9AE9C081-2011-43F2-9F6D-8F63AE9DAFAF";
name = Bold;
paths = (
{
closed = 1;
nodes = (
"650 0 LINE",
"650 732 LINE",
"512 732 LINE",
"512 426 LINE",
"205 426 LINE",
"205 732 LINE",
"53 732 LINE",
"54 727 OFFCURVE",
"67 673 OFFCURVE",
"67 671 CURVE SMOOTH",
"67 0 LINE",
"205 0 LINE",
"205 327 LINE",
"512 327 LINE",
"512 0 LINE"
);
}
);
width = 714;
}
);
leftKerningGroup = M;
rightKerningGroup = M;
unicode = 0048;
},
{
glyphname = I;
lastChange = "2015-02-06 22:44:54 +0000";
layers = (
{
hints = (
{
place = "{87.000000, 93.000000}";
},
{
horizontal = 1;
place = "{0.000000, 20.000000}";
},
{
horizontal = 1;
place = "{728.000000, -20.000000}";
target = down;
type = TopGhost;
}
);
layerId = UUID0;
name = Regular;
paths = (
{
closed = 1;
nodes = (
"180 0 LINE",
"180 728 LINE",
"73 728 LINE",
"74 722 OFFCURVE",
"87 664 OFFCURVE",
"87 662 CURVE SMOOTH",
"87 0 LINE"
);
}
);
width = 268;
},
{
hints = (
{
place = "{66.000000, 138.000000}";
},
{
horizontal = 1;
place = "{0.000000, 21.000000}";
target = up;
type = BottomGhost;
},
{
horizontal = 1;
place = "{732.000000, -20.000000}";
target = down;
type = TopGhost;
}
);
layerId = "9AE9C081-2011-43F2-9F6D-8F63AE9DAFAF";
name = Bold;
paths = (
{
closed = 1;
nodes = (
"204 0 LINE",
"204 732 LINE",
"52 732 LINE",
"53 727 OFFCURVE",
"66 673 OFFCURVE",
"66 671 CURVE SMOOTH",
"66 0 LINE"
);
}
);
width = 268;
}
);
unicode = 0049;
},
{
glyphname = Iacute;
lastChange = "2015-02-06 22:44:54 +0000";
layers = (
{
hints = (
{
place = "{86.000000, 94.000000}";
},
{
horizontal = 1;
place = "{0.000000, 20.000000}";
}
);
layerId = UUID0;
name = Regular;
paths = (
{
closed = 1;
nodes = (
"148 716 LINE",
"288 867 LINE",
"165 867 LINE",
"70 716 LINE"
);
},
{
closed = 1;
nodes = (
"180 0 LINE",
"180 669 LINE",
"71 669 LINE",
"86 603 LINE",
"86 0 LINE"
);
}
);
width = 270;
},
{
hints = (
{
place = "{66.000000, 138.000000}";
},
{
horizontal = 1;
place = "{0.000000, 21.000000}";
target = up;
type = BottomGhost;
},
{
horizontal = 1;
place = "{881.000000, -20.000000}";
target = down;
type = TopGhost;
}
);
layerId = "9AE9C081-2011-43F2-9F6D-8F63AE9DAFAF";
name = Bold;
paths = (
{
closed = 1;
nodes = (
"204 0 LINE",
"204 674 LINE",
"52 674 LINE",
"53 669 OFFCURVE",
"66 615 OFFCURVE",
"66 613 CURVE SMOOTH",
"66 0 LINE"
);
},
{
closed = 1;
nodes = (
"300 881 LINE",
"155 881 LINE",
"46 716 LINE",
"149 716 LINE"
);
}
);
width = 261;
}
);
unicode = 00CD;
},
{
glyphname = Icircumflex;
lastChange = "2015-02-06 22:44:54 +0000";
layers = (
{
hints = (
{
place = "{86.000000, 95.000000}";
},
{
horizontal = 1;
place = "{0.000000, 20.000000}";
}
);
layerId = UUID0;
name = Regular;
paths = (
{
closed = 1;
nodes = (
"277 696 LINE",
"171 851 LINE",
"87 851 LINE",
"-15 696 LINE",
"53 696 LINE",
"129 778 LINE",
"207 696 LINE"
);
},
{
closed = 1;
nodes = (
"181 0 LINE",
"181 668 LINE",
"71 668 LINE",
"86 602 LINE",
"86 0 LINE"
);
}
);
width = 270;
},
{
hints = (
{
place = "{67.000000, 138.000000}";
},
{
horizontal = 1;
place = "{0.000000, 21.000000}";
target = up;
type = BottomGhost;
},
{
horizontal = 1;
place = "{858.000000, -20.000000}";
target = down;
type = TopGhost;
}
);
layerId = "9AE9C081-2011-43F2-9F6D-8F63AE9DAFAF";
name = Bold;
paths = (
{
closed = 1;
nodes = (
"205 0 LINE",
"205 674 LINE",
"53 674 LINE",
"54 669 OFFCURVE",
"67 615 OFFCURVE",
"67 613 CURVE SMOOTH",
"67 0 LINE"
);
},
{
closed = 1;
nodes = (
"282 713 LINE",
"183 858 LINE",
"85 858 LINE",
"-11 714 LINE",
"65 714 LINE",
"134 787 LINE",
"204 713 LINE"
);
}
);
width = 261;
}
);
unicode = 00CE;
},
{
glyphname = Idieresis;
lastChange = "2015-02-06 22:44:54 +0000";
layers = (
{
hints = (
{
place = "{-7.000000, 114.000000}";
},
{
place = "{156.000000, 114.000000}";
},
{
horizontal = 1;
place = "{0.000000, 20.000000}";
},
{
horizontal = 1;
place = "{721.000000, 114.000000}";
}
);
layerId = UUID0;
name = Regular;
paths = (
{
closed = 1;
nodes = (
"270 809 OFFCURVE",
"244 835 OFFCURVE",
"213 835 CURVE SMOOTH",
"182 835 OFFCURVE",
"156 809 OFFCURVE",
"156 778 CURVE SMOOTH",
"156 747 OFFCURVE",
"182 721 OFFCURVE",
"213 721 CURVE SMOOTH",
"245 721 OFFCURVE",
"270 746 OFFCURVE",
"270 778 CURVE SMOOTH"
);
},
{
closed = 1;
nodes = (
"107 809 OFFCURVE",
"81 835 OFFCURVE",
"50 835 CURVE SMOOTH",
"19 835 OFFCURVE",
"-7 809 OFFCURVE",
"-7 778 CURVE SMOOTH",
"-7 747 OFFCURVE",
"19 721 OFFCURVE",
"50 721 CURVE SMOOTH",
"81 721 OFFCURVE",
"107 747 OFFCURVE",
"107 778 CURVE SMOOTH"
);
},
{
closed = 1;
nodes = (
"180 0 LINE",
"180 668 LINE",
"71 668 LINE",
"72 662 OFFCURVE",
"85 604 OFFCURVE",
"85 602 CURVE SMOOTH",
"85 0 LINE"
);
}
);
width = 270;
},
{
hints = (
{
place = "{-3.000000, 114.000000}";
},
{
place = "{67.000000, 138.000000}";
},
{
place = "{157.000000, 115.000000}";
},
{
horizontal = 1;
place = "{735.000000, 114.000000}";
},
{
horizontal = 1;
place = "{0.000000, 21.000000}";
target = up;
type = BottomGhost;
}
);
layerId = "9AE9C081-2011-43F2-9F6D-8F63AE9DAFAF";
name = Bold;
paths = (
{
closed = 1;
nodes = (
"205 0 LINE",
"205 674 LINE",
"53 674 LINE",
"54 669 OFFCURVE",
"67 615 OFFCURVE",
"67 613 CURVE SMOOTH",
"67 0 LINE"
);
},
{
closed = 1;
nodes = (
"272 824 OFFCURVE",
"246 849 OFFCURVE",
"214 849 CURVE SMOOTH",
"183 849 OFFCURVE",
"157 823 OFFCURVE",
"157 792 CURVE SMOOTH",
"157 760 OFFCURVE",
"183 735 OFFCURVE",
"214 735 CURVE SMOOTH",
"246 735 OFFCURVE",
"272 760 OFFCURVE",
"272 792 CURVE SMOOTH"
);
},
{
closed = 1;
nodes = (
"111 823 OFFCURVE",
"86 849 OFFCURVE",
"54 849 CURVE SMOOTH",
"22 849 OFFCURVE",
"-3 823 OFFCURVE",
"-3 792 CURVE SMOOTH",
"-3 760 OFFCURVE",
"22 735 OFFCURVE",
"54 735 CURVE SMOOTH",
"86 735 OFFCURVE",
"111 760 OFFCURVE",
"111 792 CURVE SMOOTH"
);
}
);
width = 261;
}
);
unicode = 00CF;
},
{
glyphname = Igrave;
lastChange = "2015-02-06 22:44:54 +0000";
layers = (
{
hints = (
{
place = "{86.000000, 95.000000}";
},
{
horizontal = 1;
place = "{0.000000, 20.000000}";
}
);
layerId = UUID0;
name = Regular;
paths = (
{
closed = 1;
nodes = (
"181 719 LINE",
"86 871 LINE",
"-36 871 LINE",
"104 719 LINE"
);
},
{
closed = 1;
nodes = (
"181 0 LINE",
"181 668 LINE",
"72 668 LINE",
"73 662 OFFCURVE",
"86 604 OFFCURVE",
"86 602 CURVE SMOOTH",
"86 0 LINE"
);
}
);
width = 268;
},
{
hints = (
{
place = "{67.000000, 138.000000}";
},
{
horizontal = 1;
place = "{0.000000, 21.000000}";
target = up;
type = BottomGhost;
},
{
horizontal = 1;
place = "{881.000000, -20.000000}";
target = down;
type = TopGhost;
}
);
layerId = "9AE9C081-2011-43F2-9F6D-8F63AE9DAFAF";
name = Bold;
paths = (
{
closed = 1;
nodes = (
"205 0 LINE",
"205 674 LINE",
"53 674 LINE",
"54 669 OFFCURVE",
"67 615 OFFCURVE",
"67 613 CURVE SMOOTH",
"67 0 LINE"
);
},
{
closed = 1;
nodes = (
"204 717 LINE",
"95 881 LINE",
"-50 881 LINE",
"101 717 LINE"
);
}
);
width = 261;
}
);
unicode = 00CC;
},
{
glyphname = J;
lastChange = "2015-02-06 22:44:54 +0000";
layers = (
{
hints = (
{
place = "{88.000000, 93.000000}";
},
{
horizontal = 1;
place = "{728.000000, -20.000000}";
target = down;
type = TopGhost;
}
);
layerId = UUID0;
name = Regular;
paths = (
{
closed = 1;
nodes = (
"-11 -211 LINE",
"151 -196 OFFCURVE",
"181 -78 OFFCURVE",
"181 61 CURVE",
"181 728 LINE",
"73 728 LINE",
"88 662 LINE",
"88 55 LINE SMOOTH",
"88 -29 OFFCURVE",
"82 -144 OFFCURVE",
"-23 -159 CURVE"
);
}
);
width = 268;
},
{
hints = (
{
place = "{67.000000, 138.000000}";
},
{
horizontal = 1;
place = "{732.000000, -20.000000}";
target = down;
type = TopGhost;
},
{
horizontal = 1;
place = "{-209.000000, 21.000000}";
target = up;
type = BottomGhost;
}
);
layerId = "9AE9C081-2011-43F2-9F6D-8F63AE9DAFAF";
name = Bold;
paths = (
{
closed = 1;
nodes = (
"205 732 LINE",
"53 732 LINE",
"54 727 OFFCURVE",
"67 673 OFFCURVE",
"67 671 CURVE SMOOTH",
"67 47 LINE SMOOTH",
"67 -34 OFFCURVE",
"59 -119 OFFCURVE",
"-38 -131 CURVE",
"-18 -209 LINE",
"179 -200 OFFCURVE",
"205 -70 OFFCURVE",
"205 98 CURVE"
);
}
);
width = 268;
}
);
leftKerningGroup = M;
rightKerningGroup = M;
unicode = 004A;
},
{
glyphname = K;
lastChange = "2015-02-06 22:44:54 +0000";
layers = (
{
hints = (
{
place = "{86.000000, 93.000000}";
},
{
horizontal = 1;
place = "{0.000000, 20.000000}";
},
{
horizontal = 1;
place = "{728.000000, -20.000000}";
target = down;
type = TopGhost;
}
);
layerId = UUID0;
name = Regular;
paths = (
{
closed = 1;
nodes = (
"583 0 LINE",
"278 404 LINE",
"565 728 LINE",
"468 728 LINE",
"179 403 LINE",
"179 728 LINE",
"72 728 LINE",
"73 722 OFFCURVE",
"86 664 OFFCURVE",
"86 662 CURVE SMOOTH",
"86 0 LINE",
"179 0 LINE",
"179 379 LINE",
"467 0 LINE"
);
}
);
width = 583;
},
{
hints = (
{
place = "{66.000000, 138.000000}";
},
{
horizontal = 1;
place = "{0.000000, 21.000000}";
target = up;
type = BottomGhost;
},
{
horizontal = 1;
place = "{732.000000, -20.000000}";
target = down;
type = TopGhost;
}
);
layerId = "9AE9C081-2011-43F2-9F6D-8F63AE9DAFAF";
name = Bold;
paths = (
{
closed = 1;
nodes = (
"597 0 LINE",
"338 412 LINE",
"576 732 LINE",
"448 732 LINE",
"204 405 LINE",
"204 732 LINE",
"52 732 LINE",
"53 727 OFFCURVE",
"66 673 OFFCURVE",
"66 671 CURVE SMOOTH",
"66 0 LINE",
"204 0 LINE",
"204 371 LINE",
"437 0 LINE"
);
}
);
width = 583;
}
);
leftKerningGroup = M;
unicode = 004B;
},
{
glyphname = L;
lastChange = "2015-02-06 22:44:54 +0000";
layers = (
{
hints = (
{
place = "{86.000000, 93.000000}";
},
{
horizontal = 1;
place = "{0.000000, 69.000000}";
},
{
horizontal = 1;
place = "{728.000000, -20.000000}";
target = down;
type = TopGhost;
}
);
layerId = UUID0;
name = Regular;
paths = (
{
closed = 1;
nodes = (
"485 0 LINE",
"485 69 LINE",
"179 69 LINE",
"179 728 LINE",
"72 728 LINE",
"73 722 OFFCURVE",
"86 664 OFFCURVE",
"86 662 CURVE SMOOTH",
"86 0 LINE"
);
}
);
width = 514;
},
{
hints = (
{
place = "{66.000000, 139.000000}";
},
{
horizontal = 1;
place = "{0.000000, 99.000000}";
},
{
horizontal = 1;
place = "{732.000000, -20.000000}";
target = down;
type = TopGhost;
}
);
layerId = "9AE9C081-2011-43F2-9F6D-8F63AE9DAFAF";
name = Bold;
paths = (
{
closed = 1;
nodes = (
"492 0 LINE",
"492 99 LINE",
"205 99 LINE",
"205 732 LINE",
"53 732 LINE",
"54 727 OFFCURVE",
"66 673 OFFCURVE",
"66 671 CURVE SMOOTH",
"66 0 LINE"
);
}
);
width = 514;
}
);
leftKerningGroup = M;
rightKerningGroup = L;
unicode = 004C;
},
{
glyphname = Lslash;
lastChange = "2015-02-06 22:44:54 +0000";
layers = (
{
background = {
paths = (
{
closed = 1;
nodes = (
"8 241 LINE",
"86 277 LINE",
"86 0 LINE",
"485 0 LINE",
"485 69 LINE",
"179 69 LINE",
"179 320 LINE",
"385 416 LINE",
"385 485 LINE",
"179 389 LINE",
"179 728 LINE",
"72 728 LINE",
"73 722 OFFCURVE",
"86 664 OFFCURVE",
"86 662 CURVE SMOOTH",
"86 346 LINE",
"8 310 LINE"
);
}
);
};
layerId = UUID0;
name = Regular;
paths = (
{
closed = 1;
nodes = (
"485 0 LINE",
"485 69 LINE",
"179 69 LINE",
"179 320 LINE",
"385 416 LINE",
"385 485 LINE",
"179 389 LINE",
"179 728 LINE",
"72 728 LINE",
"73 722 OFFCURVE",
"86 664 OFFCURVE",
"86 662 CURVE SMOOTH",
"86 346 LINE",
"8 310 LINE",
"8 241 LINE",
"86 277 LINE",
"86 0 LINE"
);
}
);
width = 493;
},
{
hints = (
{
place = "{1.000000, 204.000000}";
},
{
place = "{66.000000, 139.000000}";
},
{
horizontal = 1;
place = "{0.000000, 99.000000}";
},
{
horizontal = 1;
place = "{732.000000, -20.000000}";
target = down;
type = TopGhost;
}
);
layerId = "9AE9C081-2011-43F2-9F6D-8F63AE9DAFAF";
name = Bold;
paths = (
{
closed = 1;
nodes = (
"492 0 LINE",
"492 99 LINE",
"205 99 LINE",
"205 309 LINE",
"402 400 LINE",
"402 498 LINE",
"205 406 LINE",
"205 732 LINE",
"53 732 LINE",
"54 727 OFFCURVE",
"65 679 OFFCURVE",
"66 672 CURVE",
"66 342 LINE",
"1 312 LINE",
"1 215 LINE",
"66 245 LINE",
"66 0 LINE"
);
}
);
width = 492;
}
);
leftKerningGroup = M;
unicode = 0141;
},
{
glyphname = M;
lastChange = "2015-02-06 22:44:54 +0000";
layers = (
{
hints = (
{
place = "{89.000000, 76.000000}";
},
{
place = "{659.000000, 92.000000}";
},
{
horizontal = 1;
place = "{-1.000000, 20.000000}";
},
{
horizontal = 1;
place = "{728.000000, -20.000000}";
target = down;
type = TopGhost;
}
);
layerId = UUID0;
name = Regular;
paths = (
{
closed = 1;
nodes = (
"751 0 LINE",
"751 728 LINE",
"630 728 LINE",
"421 161 LINE",
"209 728 LINE",
"74 728 LINE",
"89 662 LINE",
"89 0 LINE",
"165 0 LINE",
"165 595 LINE",
"384 -1 LINE",
"440 -1 LINE",
"659 595 LINE",
"659 0 LINE"
);
}
);
width = 838;
},
{
hints = (
{
place = "{67.000000, 109.000000}";
},
{
place = "{651.000000, 135.000000}";
},
{
horizontal = 1;
place = "{732.000000, -20.000000}";
target = down;
type = TopGhost;
},
{
horizontal = 1;
place = "{1.000000, 21.000000}";
target = up;
type = BottomGhost;
},
{
horizontal = 1;
place = "{0.000000, 21.000000}";
target = up;
type = BottomGhost;
}
);
layerId = "9AE9C081-2011-43F2-9F6D-8F63AE9DAFAF";
name = Bold;
paths = (
{
closed = 1;
nodes = (
"786 1 LINE",
"786 732 LINE",
"610 732 LINE",
"457 308 LINE SMOOTH",
"443 269 OFFCURVE",
"440 233 OFFCURVE",
"430 191 CURVE",
"422 232 OFFCURVE",
"416 272 OFFCURVE",
"401 312 CURVE SMOOTH",
"245 732 LINE",
"53 732 LINE",
"54 727 OFFCURVE",
"67 673 OFFCURVE",
"67 671 CURVE SMOOTH",
"67 1 LINE",
"176 1 LINE",
"176 497 LINE SMOOTH",
"176 521 OFFCURVE",
"172 546 OFFCURVE",
"171 569 CURVE",
"179 545 OFFCURVE",
"186 521 OFFCURVE",
"195 497 CURVE SMOOTH",
"379 0 LINE",
"453 0 LINE",
"632 497 LINE SMOOTH",
"641 521 OFFCURVE",
"648 545 OFFCURVE",
"656 569 CURVE",
"654 546 OFFCURVE",
"651 521 OFFCURVE",
"651 497 CURVE SMOOTH",
"651 1 LINE"
);
}
);
width = 838;
}
);
leftKerningGroup = M;
rightKerningGroup = M;
unicode = 004D;
},
{
glyphname = N;
lastChange = "2015-02-06 22:44:54 +0000";
layers = (
{
hints = (
{
place = "{87.000000, 76.000000}";
},
{
place = "{551.000000, 76.000000}";
},
{
horizontal = 1;
place = "{-5.000000, 20.000000}";
},
{
horizontal = 1;
place = "{728.000000, -20.000000}";
target = down;
type = TopGhost;
}
);
layerId = UUID0;
name = Regular;
paths = (
{
closed = 1;
nodes = (
"627 -5 LINE",
"627 728 LINE",
"551 728 LINE",
"551 183 LINE",
"197 728 LINE",
"73 728 LINE",
"74 722 OFFCURVE",
"87 664 OFFCURVE",
"87 662 CURVE SMOOTH",
"87 0 LINE",
"163 0 LINE",
"163 615 LINE",
"568 -5 LINE"
);
}
);
width = 714;
},
{
hints = (
{
place = "{66.000000, 111.000000}";
},
{
place = "{539.000000, 111.000000}";
},
{
horizontal = 1;
place = "{-5.000000, 21.000000}";
target = up;
type = BottomGhost;
},
{
horizontal = 1;
place = "{731.000000, -20.000000}";
target = down;
type = TopGhost;
},
{
horizontal = 1;
place = "{0.000000, 21.000000}";
target = up;
type = BottomGhost;
}
);
layerId = "9AE9C081-2011-43F2-9F6D-8F63AE9DAFAF";
name = Bold;
paths = (
{
closed = 1;
nodes = (
"650 -5 LINE",
"650 731 LINE",
"539 731 LINE",
"539 304 LINE SMOOTH",
"539 279 OFFCURVE",
"543 252 OFFCURVE",
"545 227 CURVE",
"532 249 OFFCURVE",
"519 271 OFFCURVE",
"504 293 CURVE SMOOTH",
"216 731 LINE",
"52 731 LINE",
"53 726 OFFCURVE",
"66 672 OFFCURVE",
"66 670 CURVE SMOOTH",
"66 0 LINE",
"177 0 LINE",
"177 497 LINE SMOOTH",
"177 519 OFFCURVE",
"173 542 OFFCURVE",
"171 564 CURVE",
"184 542 OFFCURVE",
"199 519 OFFCURVE",
"213 497 CURVE SMOOTH",
"542 -5 LINE"
);
}
);
width = 714;
}
);
leftKerningGroup = M;
rightKerningGroup = M;
unicode = 004E;
},
{
glyphname = Ntilde;
lastChange = "2015-02-06 22:44:54 +0000";
layers = (
{
hints = (
{
place = "{87.000000, 77.000000}";
},
{
place = "{551.000000, 76.000000}";
},
{
horizontal = 1;
place = "{-6.000000, 20.000000}";
},
{
horizontal = 1;
place = "{700.000000, 99.000000}";
}
);
layerId = UUID0;
name = Regular;
paths = (
{
closed = 1;
nodes = (
"481 799 LINE",
"476 784 OFFCURVE",
"461 773 OFFCURVE",
"445 773 CURVE SMOOTH",
"404 773 OFFCURVE",
"358 813 OFFCURVE",
"304 813 CURVE SMOOTH",
"250 813 OFFCURVE",
"217 762 OFFCURVE",
"211 713 CURVE",
"260 713 LINE",
"265 727 OFFCURVE",
"279 739 OFFCURVE",
"294 739 CURVE SMOOTH",
"345 739 OFFCURVE",
"386 700 OFFCURVE",
"443 700 CURVE SMOOTH",
"495 700 OFFCURVE",
"523 754 OFFCURVE",
"528 799 CURVE"
);
},
{
closed = 1;
nodes = (
"627 -6 LINE",
"627 668 LINE",
"551 668 LINE",
"551 180 LINE",
"197 668 LINE",
"73 668 LINE",
"74 662 OFFCURVE",
"87 604 OFFCURVE",
"87 602 CURVE SMOOTH",
"87 0 LINE",
"164 0 LINE",
"164 557 LINE",
"568 -6 LINE"
);
}
);
width = 714;
},
{
hints = (
{
place = "{85.000000, 111.000000}";
},
{
place = "{558.000000, 111.000000}";
},
{
horizontal = 1;
place = "{713.000000, 87.000000}";
},
{
horizontal = 1;
place = "{753.000000, 47.000000}";
},
{
horizontal = 1;
place = "{753.000000, 87.000000}";
},
{
horizontal = 1;
place = "{-5.000000, 21.000000}";
target = up;
type = BottomGhost;
},
{
horizontal = 1;
place = "{0.000000, 21.000000}";
target = up;
type = BottomGhost;
}
);
layerId = "9AE9C081-2011-43F2-9F6D-8F63AE9DAFAF";
name = Bold;
paths = (
{
closed = 1;
nodes = (
"669 -5 LINE",
"669 674 LINE",
"558 674 LINE",
"558 281 LINE SMOOTH",
"558 256 OFFCURVE",
"562 229 OFFCURVE",
"564 204 CURVE",
"551 225 OFFCURVE",
"538 250 OFFCURVE",
"523 270 CURVE SMOOTH",
"218 674 LINE",
"71 674 LINE",
"72 669 OFFCURVE",
"85 615 OFFCURVE",
"85 613 CURVE SMOOTH",
"85 0 LINE",
"196 0 LINE",
"196 439 LINE SMOOTH",
"196 461 OFFCURVE",
"192 484 OFFCURVE",
"190 506 CURVE",
"204 484 OFFCURVE",
"217 459 OFFCURVE",
"232 439 CURVE SMOOTH",
"569 -5 LINE"
);
},
{
closed = 1;
nodes = (
"494 830 LINE",
"494 810 OFFCURVE",
"471 800 OFFCURVE",
"454 800 CURVE SMOOTH",
"416 800 OFFCURVE",
"379 840 OFFCURVE",
"324 840 CURVE SMOOTH",
"256 840 OFFCURVE",
"218 787 OFFCURVE",
"218 723 CURVE",
"283 723 LINE",
"283 744 OFFCURVE",
"306 753 OFFCURVE",
"323 753 CURVE SMOOTH",
"361 753 OFFCURVE",
"398 713 OFFCURVE",
"453 713 CURVE SMOOTH",
"521 713 OFFCURVE",
"559 766 OFFCURVE",
"559 830 CURVE"
);
}
);
width = 714;
}
);
leftKerningGroup = M;
rightKerningGroup = M;
unicode = 00D1;
},
{
glyphname = O;
lastChange = "2015-02-06 22:44:54 +0000";
layers = (
{
hints = (
{
place = "{46.000000, 99.000000}";
},
{
place = "{594.000000, 97.000000}";
},
{
horizontal = 1;
place = "{-11.000000, 68.000000}";
},
{
horizontal = 1;
place = "{668.000000, 70.000000}";
}
);
layerId = UUID0;
name = Regular;
paths = (
{
closed = 1;
nodes = (
"586 -11 OFFCURVE",
"691 163 OFFCURVE",
"691 363 CURVE SMOOTH",
"691 562 OFFCURVE",
"587 738 OFFCURVE",
"369 738 CURVE SMOOTH",
"150 738 OFFCURVE",
"46 563 OFFCURVE",
"46 363 CURVE SMOOTH",
"46 164 OFFCURVE",
"151 -11 OFFCURVE",
"368 -11 CURVE SMOOTH"
);
},
{
closed = 1;
nodes = (
"200 57 OFFCURVE",
"145 219 OFFCURVE",
"145 362 CURVE SMOOTH",
"145 505 OFFCURVE",
"200 668 OFFCURVE",
"369 668 CURVE SMOOTH",
"538 668 OFFCURVE",
"594 507 OFFCURVE",
"594 363 CURVE SMOOTH",
"594 219 OFFCURVE",
"539 57 OFFCURVE",
"369 57 CURVE SMOOTH"
);
}
);
width = 737;
},
{
hints = (
{
place = "{19.000000, 147.000000}";
},
{
place = "{570.000000, 148.000000}";
},
{
horizontal = 1;
place = "{-11.000000, 95.000000}";
},
{
horizontal = 1;
place = "{648.000000, 95.000000}";
}
);
layerId = "9AE9C081-2011-43F2-9F6D-8F63AE9DAFAF";
name = Bold;
paths = (
{
closed = 1;
nodes = (
"718 584 OFFCURVE",
"594 743 OFFCURVE",
"366 743 CURVE SMOOTH",
"142 743 OFFCURVE",
"19 581 OFFCURVE",
"19 367 CURVE SMOOTH",
"19 155 OFFCURVE",
"141 -11 OFFCURVE",
"365 -11 CURVE SMOOTH",
"587 -11 OFFCURVE",
"718 150 OFFCURVE",
"718 365 CURVE SMOOTH"
);
},
{
closed = 1;
nodes = (
"570 231 OFFCURVE",
"523 84 OFFCURVE",
"369 84 CURVE SMOOTH",
"212 84 OFFCURVE",
"166 240 OFFCURVE",
"166 371 CURVE SMOOTH",
"166 500 OFFCURVE",
"213 648 OFFCURVE",
"367 648 CURVE SMOOTH",
"525 648 OFFCURVE",
"570 491 OFFCURVE",
"570 361 CURVE SMOOTH"
);
}
);
width = 737;
}
);
leftKerningGroup = O;
rightKerningGroup = O;
unicode = 004F;
},
{
glyphname = Oacute;
lastChange = "2015-02-06 22:44:54 +0000";
layers = (
{
hints = (
{
place = "{47.000000, 98.000000}";
},
{
place = "{593.000000, 98.000000}";
},
{
horizontal = 1;
place = "{-12.000000, 68.000000}";
},
{
horizontal = 1;
place = "{611.000000, 68.000000}";
}
);
layerId = UUID0;
name = Regular;
paths = (
{
closed = 1;
nodes = (
"387 718 LINE",
"527 870 LINE",
"404 870 LINE",
"309 718 LINE"
);
},
{
closed = 1;
nodes = (
"561 -12 OFFCURVE",
"691 148 OFFCURVE",
"691 333 CURVE SMOOTH",
"691 518 OFFCURVE",
"561 679 OFFCURVE",
"369 679 CURVE SMOOTH",
"177 679 OFFCURVE",
"47 518 OFFCURVE",
"47 333 CURVE SMOOTH",
"47 148 OFFCURVE",
"177 -12 OFFCURVE",
"369 -12 CURVE SMOOTH"
);
},
{
closed = 1;
nodes = (
"221 56 OFFCURVE",
"145 201 OFFCURVE",
"145 333 CURVE SMOOTH",
"145 465 OFFCURVE",
"220 611 OFFCURVE",
"369 611 CURVE SMOOTH",
"519 611 OFFCURVE",
"593 466 OFFCURVE",
"593 333 CURVE SMOOTH",
"593 200 OFFCURVE",
"518 56 OFFCURVE",
"369 56 CURVE SMOOTH"
);
}
);
width = 737;
},
{
hints = (
{
place = "{19.000000, 146.000000}";
},
{
place = "{571.000000, 147.000000}";
},
{
horizontal = 1;
place = "{-12.000000, 96.000000}";
},
{
horizontal = 1;
place = "{589.000000, 95.000000}";
},
{
horizontal = 1;
place = "{879.000000, -20.000000}";
target = down;
type = TopGhost;
}
);
layerId = "9AE9C081-2011-43F2-9F6D-8F63AE9DAFAF";
name = Bold;
paths = (
{
closed = 1;
nodes = (
"570 879 LINE",
"425 879 LINE",
"316 715 LINE",
"419 715 LINE"
);
},
{
closed = 1;
nodes = (
"718 546 OFFCURVE",
"578 684 OFFCURVE",
"368 684 CURVE SMOOTH",
"158 684 OFFCURVE",
"19 545 OFFCURVE",
"19 336 CURVE SMOOTH",
"19 126 OFFCURVE",
"159 -12 OFFCURVE",
"369 -12 CURVE SMOOTH",
"579 -12 OFFCURVE",
"718 127 OFFCURVE",
"718 336 CURVE SMOOTH"
);
},
{
closed = 1;
nodes = (
"571 208 OFFCURVE",
"513 84 OFFCURVE",
"367 84 CURVE SMOOTH",
"222 84 OFFCURVE",
"165 208 OFFCURVE",
"165 337 CURVE SMOOTH",
"165 465 OFFCURVE",
"223 589 OFFCURVE",
"369 589 CURVE SMOOTH",
"513 589 OFFCURVE",
"571 467 OFFCURVE",
"571 336 CURVE SMOOTH"
);
}
);
width = 736;
}
);
leftKerningGroup = O;
rightKerningGroup = O;
unicode = 00D3;
},
{
glyphname = Ocircumflex;
lastChange = "2015-02-06 22:44:54 +0000";
layers = (
{
hints = (
{
place = "{47.000000, 98.000000}";
},
{
place = "{593.000000, 98.000000}";
},
{
horizontal = 1;
place = "{-13.000000, 68.000000}";
},
{
horizontal = 1;
place = "{610.000000, 68.000000}";
}
);
layerId = UUID0;
name = Regular;
paths = (
{
closed = 1;
nodes = (
"512 694 LINE",
"406 849 LINE",
"323 849 LINE",
"221 694 LINE",
"288 694 LINE",
"364 776 LINE",
"443 694 LINE"
);
},
{
closed = 1;
nodes = (
"561 -13 OFFCURVE",
"691 147 OFFCURVE",
"691 332 CURVE SMOOTH",
"691 518 OFFCURVE",
"562 678 OFFCURVE",
"369 678 CURVE SMOOTH",
"177 678 OFFCURVE",
"47 517 OFFCURVE",
"47 332 CURVE SMOOTH",
"47 148 OFFCURVE",
"178 -13 OFFCURVE",
"369 -13 CURVE SMOOTH"
);
},
{
closed = 1;
nodes = (
"220 55 OFFCURVE",
"145 201 OFFCURVE",
"145 333 CURVE SMOOTH",
"145 465 OFFCURVE",
"221 610 OFFCURVE",
"369 610 CURVE SMOOTH",
"518 610 OFFCURVE",
"593 466 OFFCURVE",
"593 333 CURVE SMOOTH",
"593 200 OFFCURVE",
"519 55 OFFCURVE",
"369 55 CURVE SMOOTH"
);
}
);
width = 737;
},
{
hints = (
{
place = "{19.000000, 146.000000}";
},
{
place = "{571.000000, 147.000000}";
},
{
horizontal = 1;
place = "{-12.000000, 96.000000}";
},
{
horizontal = 1;
place = "{589.000000, 95.000000}";
},
{
horizontal = 1;
place = "{862.000000, -20.000000}";
target = down;
type = TopGhost;
}
);
layerId = "9AE9C081-2011-43F2-9F6D-8F63AE9DAFAF";
name = Bold;
paths = (
{
closed = 1;
nodes = (
"513 717 LINE",
"414 862 LINE",
"316 862 LINE",
"220 717 LINE",
"296 717 LINE",
"365 791 LINE",
"435 717 LINE"
);
},
{
closed = 1;
nodes = (
"718 546 OFFCURVE",
"578 684 OFFCURVE",
"368 684 CURVE SMOOTH",
"158 684 OFFCURVE",
"19 545 OFFCURVE",
"19 336 CURVE SMOOTH",
"19 126 OFFCURVE",
"159 -12 OFFCURVE",
"369 -12 CURVE SMOOTH",
"579 -12 OFFCURVE",
"718 127 OFFCURVE",
"718 336 CURVE SMOOTH"
);
},
{
closed = 1;
nodes = (
"571 208 OFFCURVE",
"513 84 OFFCURVE",
"367 84 CURVE SMOOTH",
"222 84 OFFCURVE",
"165 208 OFFCURVE",
"165 337 CURVE SMOOTH",
"165 465 OFFCURVE",
"223 589 OFFCURVE",
"369 589 CURVE SMOOTH",
"513 589 OFFCURVE",
"571 467 OFFCURVE",
"571 336 CURVE SMOOTH"
);
}
);
width = 736;
}
);
leftKerningGroup = O;
rightKerningGroup = O;
unicode = 00D4;
},
{
glyphname = Odieresis;
lastChange = "2015-02-06 22:44:54 +0000";
layers = (
{
hints = (
{
place = "{47.000000, 98.000000}";
},
{
place = "{228.000000, 114.000000}";
},
{
place = "{391.000000, 114.000000}";
},
{
place = "{593.000000, 98.000000}";
},
{
horizontal = 1;
place = "{-12.000000, 68.000000}";
},
{
horizontal = 1;
place = "{611.000000, 68.000000}";
},
{
horizontal = 1;
place = "{717.000000, 114.000000}";
}
);
layerId = UUID0;
name = Regular;
paths = (
{
closed = 1;
nodes = (
"505 805 OFFCURVE",
"479 831 OFFCURVE",
"448 831 CURVE SMOOTH",
"417 831 OFFCURVE",
"391 805 OFFCURVE",
"391 774 CURVE SMOOTH",
"391 743 OFFCURVE",
"417 717 OFFCURVE",
"448 717 CURVE SMOOTH",
"479 717 OFFCURVE",
"505 743 OFFCURVE",
"505 774 CURVE SMOOTH"
);
},
{
closed = 1;
nodes = (
"342 805 OFFCURVE",
"316 831 OFFCURVE",
"285 831 CURVE SMOOTH",
"254 831 OFFCURVE",
"228 805 OFFCURVE",
"228 774 CURVE SMOOTH",
"228 743 OFFCURVE",
"254 717 OFFCURVE",
"285 717 CURVE SMOOTH",
"316 717 OFFCURVE",
"342 743 OFFCURVE",
"342 774 CURVE SMOOTH"
);
},
{
closed = 1;
nodes = (
"561 -12 OFFCURVE",
"691 148 OFFCURVE",
"691 333 CURVE SMOOTH",
"691 518 OFFCURVE",
"561 679 OFFCURVE",
"369 679 CURVE SMOOTH",
"177 679 OFFCURVE",
"47 518 OFFCURVE",
"47 333 CURVE SMOOTH",
"47 148 OFFCURVE",
"177 -12 OFFCURVE",
"369 -12 CURVE SMOOTH"
);
},
{
closed = 1;
nodes = (
"221 56 OFFCURVE",
"145 201 OFFCURVE",
"145 333 CURVE SMOOTH",
"145 465 OFFCURVE",
"220 611 OFFCURVE",
"369 611 CURVE SMOOTH",
"519 611 OFFCURVE",
"593 466 OFFCURVE",
"593 333 CURVE SMOOTH",
"593 200 OFFCURVE",
"518 56 OFFCURVE",
"369 56 CURVE SMOOTH"
);
}
);
width = 737;
},
{
hints = (
{
place = "{19.000000, 146.000000}";
},
{
place = "{227.000000, 114.000000}";
},
{
place = "{387.000000, 115.000000}";
},
{
place = "{571.000000, 147.000000}";
},
{
horizontal = 1;
place = "{-12.000000, 96.000000}";
},
{
horizontal = 1;
place = "{589.000000, 95.000000}";
},
{
horizontal = 1;
place = "{735.000000, 114.000000}";
}
);
layerId = "9AE9C081-2011-43F2-9F6D-8F63AE9DAFAF";
name = Bold;
paths = (
{
closed = 1;
nodes = (
"502 824 OFFCURVE",
"476 849 OFFCURVE",
"444 849 CURVE SMOOTH",
"413 849 OFFCURVE",
"387 823 OFFCURVE",
"387 792 CURVE SMOOTH",
"387 760 OFFCURVE",
"413 735 OFFCURVE",
"444 735 CURVE SMOOTH",
"476 735 OFFCURVE",
"502 760 OFFCURVE",
"502 792 CURVE SMOOTH"
);
},
{
closed = 1;
nodes = (
"341 823 OFFCURVE",
"316 849 OFFCURVE",
"284 849 CURVE SMOOTH",
"253 849 OFFCURVE",
"227 823 OFFCURVE",
"227 792 CURVE SMOOTH",
"227 760 OFFCURVE",
"253 735 OFFCURVE",
"284 735 CURVE SMOOTH",
"316 735 OFFCURVE",
"341 760 OFFCURVE",
"341 792 CURVE SMOOTH"
);
},
{
closed = 1;
nodes = (
"718 546 OFFCURVE",
"578 684 OFFCURVE",
"368 684 CURVE SMOOTH",
"158 684 OFFCURVE",
"19 545 OFFCURVE",
"19 336 CURVE SMOOTH",
"19 126 OFFCURVE",
"159 -12 OFFCURVE",
"369 -12 CURVE SMOOTH",
"579 -12 OFFCURVE",
"718 127 OFFCURVE",
"718 336 CURVE SMOOTH"
);
},
{
closed = 1;
nodes = (
"571 208 OFFCURVE",
"513 84 OFFCURVE",
"367 84 CURVE SMOOTH",
"222 84 OFFCURVE",
"165 208 OFFCURVE",
"165 337 CURVE SMOOTH",
"165 465 OFFCURVE",
"223 589 OFFCURVE",
"369 589 CURVE SMOOTH",
"513 589 OFFCURVE",
"571 467 OFFCURVE",
"571 336 CURVE SMOOTH"
);
}
);
width = 736;
}
);
leftKerningGroup = O;
rightKerningGroup = O;
unicode = 00D6;
},
{
glyphname = Ograve;
lastChange = "2015-02-06 22:44:54 +0000";
layers = (
{
hints = (
{
place = "{47.000000, 98.000000}";
},
{
place = "{593.000000, 98.000000}";
},
{
horizontal = 1;
place = "{-13.000000, 68.000000}";
},
{
horizontal = 1;
place = "{610.000000, 68.000000}";
}
);
layerId = UUID0;
name = Regular;
paths = (
{
closed = 1;
nodes = (
"411 720 LINE",
"316 872 LINE",
"193 872 LINE",
"333 720 LINE"
);
},
{
closed = 1;
nodes = (
"561 -13 OFFCURVE",
"691 147 OFFCURVE",
"691 332 CURVE SMOOTH",
"691 518 OFFCURVE",
"562 678 OFFCURVE",
"369 678 CURVE SMOOTH",
"177 678 OFFCURVE",
"47 517 OFFCURVE",
"47 332 CURVE SMOOTH",
"47 148 OFFCURVE",
"178 -13 OFFCURVE",
"369 -13 CURVE SMOOTH"
);
},
{
closed = 1;
nodes = (
"220 55 OFFCURVE",
"145 201 OFFCURVE",
"145 333 CURVE SMOOTH",
"145 465 OFFCURVE",
"221 610 OFFCURVE",
"369 610 CURVE SMOOTH",
"518 610 OFFCURVE",
"593 466 OFFCURVE",
"593 333 CURVE SMOOTH",
"593 200 OFFCURVE",
"519 55 OFFCURVE",
"369 55 CURVE SMOOTH"
);
}
);
width = 737;
},
{
hints = (
{
place = "{19.000000, 146.000000}";
},
{
place = "{571.000000, 147.000000}";
},
{
horizontal = 1;
place = "{-12.000000, 96.000000}";
},
{
horizontal = 1;
place = "{589.000000, 95.000000}";
},
{
horizontal = 1;
place = "{881.000000, -20.000000}";
target = down;
type = TopGhost;
}
);
layerId = "9AE9C081-2011-43F2-9F6D-8F63AE9DAFAF";
name = Bold;
paths = (
{
closed = 1;
nodes = (
"718 546 OFFCURVE",
"578 684 OFFCURVE",
"368 684 CURVE SMOOTH",
"158 684 OFFCURVE",
"19 545 OFFCURVE",
"19 336 CURVE SMOOTH",
"19 126 OFFCURVE",
"159 -12 OFFCURVE",
"369 -12 CURVE SMOOTH",
"579 -12 OFFCURVE",
"718 127 OFFCURVE",
"718 336 CURVE SMOOTH"
);
},
{
closed = 1;
nodes = (
"571 208 OFFCURVE",
"513 84 OFFCURVE",
"367 84 CURVE SMOOTH",
"222 84 OFFCURVE",
"165 208 OFFCURVE",
"165 337 CURVE SMOOTH",
"165 465 OFFCURVE",
"223 589 OFFCURVE",
"369 589 CURVE SMOOTH",
"513 589 OFFCURVE",
"571 467 OFFCURVE",
"571 336 CURVE SMOOTH"
);
},
{
closed = 1;
nodes = (
"417 717 LINE",
"308 881 LINE",
"163 881 LINE",
"314 717 LINE"
);
}
);
width = 736;
}
);
leftKerningGroup = O;
rightKerningGroup = O;
unicode = 00D2;
},
{
glyphname = Oslash;
lastChange = "2015-02-06 22:44:54 +0000";
layers = (
{
hints = (
{
place = "{46.000000, 98.000000}";
},
{
place = "{592.000000, 98.000000}";
},
{
horizontal = 1;
place = "{-13.000000, 68.000000}";
},
{
horizontal = 1;
place = "{668.000000, 68.000000}";
}
);
layerId = UUID0;
name = Regular;
paths = (
{
closed = 1;
nodes = (
"126 -57 LINE",
"189 39 LINE",
"241 3 OFFCURVE",
"302 -13 OFFCURVE",
"365 -13 CURVE SMOOTH",
"581 -13 OFFCURVE",
"690 161 OFFCURVE",
"690 361 CURVE SMOOTH",
"690 465 OFFCURVE",
"663 576 OFFCURVE",
"588 652 CURVE",
"643 736 LINE",
"589 767 LINE",
"539 690 LINE",
"489 722 OFFCURVE",
"430 736 OFFCURVE",
"371 736 CURVE SMOOTH",
"152 736 OFFCURVE",
"46 566 OFFCURVE",
"46 363 CURVE SMOOTH",
"46 260 OFFCURVE",
"70 155 OFFCURVE",
"142 78 CURVE",
"74 -24 LINE"
);
},
{
closed = 1;
nodes = (
"395 468 OFFCURVE",
"294 313 OFFCURVE",
"192 158 CURVE",
"155 220 OFFCURVE",
"144 295 OFFCURVE",
"144 366 CURVE SMOOTH",
"144 509 OFFCURVE",
"200 668 OFFCURVE",
"368 668 CURVE SMOOTH",
"414 668 OFFCURVE",
"460 654 OFFCURVE",
"495 624 CURVE"
);
},
{
closed = 1;
nodes = (
"580 511 OFFCURVE",
"592 430 OFFCURVE",
"592 355 CURVE SMOOTH",
"592 213 OFFCURVE",
"537 55 OFFCURVE",
"370 55 CURVE SMOOTH",
"318 55 OFFCURVE",
"270 71 OFFCURVE",
"232 107 CURVE",
"334 263 OFFCURVE",
"436 419 OFFCURVE",
"539 575 CURVE"
);
}
);
width = 736;
},
{
hints = (
{
place = "{19.000000, 147.000000}";
},
{
place = "{569.000000, 148.000000}";
},
{
horizontal = 1;
place = "{-11.000000, 95.000000}";
},
{
horizontal = 1;
place = "{648.000000, 95.000000}";
},
{
horizontal = 1;
place = "{777.000000, -20.000000}";
target = down;
type = TopGhost;
},
{
horizontal = 1;
place = "{-56.000000, 21.000000}";
target = up;
type = BottomGhost;
}
);
layerId = "9AE9C081-2011-43F2-9F6D-8F63AE9DAFAF";
name = Bold;
paths = (
{
closed = 1;
nodes = (
"717 477 OFFCURVE",
"684 593 OFFCURVE",
"595 667 CURVE",
"646 744 LINE",
"593 777 LINE",
"544 702 LINE",
"489 731 OFFCURVE",
"427 743 OFFCURVE",
"365 743 CURVE SMOOTH",
"141 743 OFFCURVE",
"19 581 OFFCURVE",
"19 367 CURVE SMOOTH",
"19 258 OFFCURVE",
"49 146 OFFCURVE",
"134 72 CURVE",
"71 -25 LINE",
"124 -56 LINE",
"183 35 LINE",
"238 3 OFFCURVE",
"301 -11 OFFCURVE",
"364 -11 CURVE SMOOTH",
"586 -11 OFFCURVE",
"717 150 OFFCURVE",
"717 365 CURVE SMOOTH"
);
},
{
closed = 1;
nodes = (
"206 183 LINE",
"175 239 OFFCURVE",
"166 307 OFFCURVE",
"166 371 CURVE SMOOTH",
"166 500 OFFCURVE",
"213 648 OFFCURVE",
"367 648 CURVE SMOOTH",
"409 648 OFFCURVE",
"450 635 OFFCURVE",
"482 608 CURVE"
);
},
{
closed = 1;
nodes = (
"569 231 OFFCURVE",
"522 84 OFFCURVE",
"368 84 CURVE SMOOTH",
"323 84 OFFCURVE",
"279 99 OFFCURVE",
"245 131 CURVE",
"524 558 LINE",
"559 500 OFFCURVE",
"569 428 OFFCURVE",
"569 361 CURVE SMOOTH"
);
}
);
width = 736;
}
);
leftKerningGroup = O;
rightKerningGroup = O;
unicode = 00D8;
},
{
glyphname = Otilde;
lastChange = "2015-02-06 22:44:54 +0000";
layers = (
{
hints = (
{
place = "{46.000000, 98.000000}";
},
{
place = "{592.000000, 98.000000}";
},
{
horizontal = 1;
place = "{-12.000000, 68.000000}";
},
{
horizontal = 1;
place = "{611.000000, 68.000000}";
},
{
horizontal = 1;
place = "{702.000000, 99.000000}";
}
);
layerId = UUID0;
name = Regular;
paths = (
{
closed = 1;
nodes = (
"486 801 LINE",
"481 786 OFFCURVE",
"466 775 OFFCURVE",
"450 775 CURVE SMOOTH",
"412 775 OFFCURVE",
"363 814 OFFCURVE",
"310 814 CURVE SMOOTH",
"255 814 OFFCURVE",
"222 763 OFFCURVE",
"216 714 CURVE",
"265 714 LINE",
"271 728 OFFCURVE",
"282 741 OFFCURVE",
"299 741 CURVE SMOOTH",
"350 741 OFFCURVE",
"391 702 OFFCURVE",
"448 702 CURVE SMOOTH",
"500 702 OFFCURVE",
"528 756 OFFCURVE",
"534 801 CURVE"
);
},
{
closed = 1;
nodes = (
"560 -12 OFFCURVE",
"690 148 OFFCURVE",
"690 333 CURVE SMOOTH",
"690 518 OFFCURVE",
"560 679 OFFCURVE",
"368 679 CURVE SMOOTH",
"176 679 OFFCURVE",
"46 518 OFFCURVE",
"46 333 CURVE SMOOTH",
"46 148 OFFCURVE",
"176 -12 OFFCURVE",
"368 -12 CURVE SMOOTH"
);
},
{
closed = 1;
nodes = (
"220 56 OFFCURVE",
"144 201 OFFCURVE",
"144 333 CURVE SMOOTH",
"144 465 OFFCURVE",
"219 611 OFFCURVE",
"368 611 CURVE SMOOTH",
"518 611 OFFCURVE",
"592 466 OFFCURVE",
"592 333 CURVE SMOOTH",
"592 200 OFFCURVE",
"517 56 OFFCURVE",
"368 56 CURVE SMOOTH"
);
}
);
width = 736;
},
{
hints = (
{
place = "{19.000000, 146.000000}";
},
{
place = "{571.000000, 147.000000}";
},
{
horizontal = 1;
place = "{-12.000000, 96.000000}";
},
{
horizontal = 1;
place = "{589.000000, 95.000000}";
},
{
horizontal = 1;
place = "{713.000000, 87.000000}";
},
{
horizontal = 1;
place = "{753.000000, 47.000000}";
},
{
horizontal = 1;
place = "{753.000000, 87.000000}";
}
);
layerId = "9AE9C081-2011-43F2-9F6D-8F63AE9DAFAF";
name = Bold;
paths = (
{
closed = 1;
nodes = (
"482 830 LINE",
"482 810 OFFCURVE",
"459 800 OFFCURVE",
"442 800 CURVE SMOOTH",
"404 800 OFFCURVE",
"367 840 OFFCURVE",
"312 840 CURVE SMOOTH",
"244 840 OFFCURVE",
"205 787 OFFCURVE",
"205 723 CURVE",
"270 723 LINE",
"270 744 OFFCURVE",
"293 753 OFFCURVE",
"311 753 CURVE SMOOTH",
"348 753 OFFCURVE",
"385 713 OFFCURVE",
"441 713 CURVE SMOOTH",
"509 713 OFFCURVE",
"547 766 OFFCURVE",
"547 830 CURVE"
);
},
{
closed = 1;
nodes = (
"718 546 OFFCURVE",
"578 684 OFFCURVE",
"368 684 CURVE SMOOTH",
"158 684 OFFCURVE",
"19 545 OFFCURVE",
"19 336 CURVE SMOOTH",
"19 126 OFFCURVE",
"159 -12 OFFCURVE",
"369 -12 CURVE SMOOTH",
"579 -12 OFFCURVE",
"718 127 OFFCURVE",
"718 336 CURVE SMOOTH"
);
},
{
closed = 1;
nodes = (
"571 208 OFFCURVE",
"513 84 OFFCURVE",
"367 84 CURVE SMOOTH",
"222 84 OFFCURVE",
"165 208 OFFCURVE",
"165 337 CURVE SMOOTH",
"165 465 OFFCURVE",
"223 589 OFFCURVE",
"369 589 CURVE SMOOTH",
"513 589 OFFCURVE",
"571 467 OFFCURVE",
"571 336 CURVE SMOOTH"
);
}
);
width = 736;
}
);
leftKerningGroup = O;
rightKerningGroup = O;
unicode = 00D5;
},
{
glyphname = OE;
lastChange = "2015-02-06 22:44:54 +0000";
layers = (
{
hints = (
{
place = "{51.000000, 98.000000}";
},
{
place = "{598.000000, 94.000000}";
},
{
horizontal = 1;
place = "{-13.000000, 68.000000}";
},
{
horizontal = 1;
place = "{337.000000, 72.000000}";
},
{
horizontal = 1;
place = "{657.000000, 70.000000}";
}
);
layerId = UUID0;
name = Regular;
paths = (
{
closed = 1;
nodes = (
"1021 0 LINE",
"1021 71 LINE",
"692 71 LINE",
"692 338 LINE",
"947 338 LINE",
"947 410 LINE",
"692 410 LINE",
"692 658 LINE",
"1021 658 LINE",
"1021 728 LINE",
"599 728 LINE",
"599 633 LINE",
"541 708 OFFCURVE",
"462 737 OFFCURVE",
"376 737 CURVE SMOOTH",
"157 737 OFFCURVE",
"51 567 OFFCURVE",
"51 364 CURVE SMOOTH",
"51 166 OFFCURVE",
"152 -12 OFFCURVE",
"370 -12 CURVE SMOOTH",
"458 -12 OFFCURVE",
"537 20 OFFCURVE",
"598 94 CURVE",
"598 0 LINE"
);
},
{
closed = 1;
nodes = (
"204 58 OFFCURVE",
"149 220 OFFCURVE",
"149 363 CURVE SMOOTH",
"149 506 OFFCURVE",
"204 669 OFFCURVE",
"373 669 CURVE SMOOTH",
"542 669 OFFCURVE",
"598 508 OFFCURVE",
"598 364 CURVE SMOOTH",
"598 220 OFFCURVE",
"543 58 OFFCURVE",
"373 58 CURVE SMOOTH"
);
}
);
width = 1048;
},
{
hints = (
{
place = "{24.000000, 147.000000}";
},
{
place = "{575.000000, 147.000000}";
},
{
horizontal = 1;
place = "{-11.000000, 110.000000}";
},
{
horizontal = 1;
place = "{327.000000, 99.000000}";
},
{
horizontal = 1;
place = "{644.000000, 88.000000}";
},
{
horizontal = 1;
place = "{743.000000, -20.000000}";
target = down;
type = TopGhost;
},
{
horizontal = 1;
place = "{0.000000, 21.000000}";
target = up;
type = BottomGhost;
}
);
layerId = "9AE9C081-2011-43F2-9F6D-8F63AE9DAFAF";
name = Bold;
paths = (
{
closed = 1;
nodes = (
"1030 0 LINE",
"1030 99 LINE",
"722 99 LINE",
"722 327 LINE",
"958 327 LINE",
"958 426 LINE",
"722 426 LINE",
"722 633 LINE",
"1030 633 LINE",
"1030 732 LINE",
"585 732 LINE",
"585 680 LINE",
"530 720 OFFCURVE",
"459 743 OFFCURVE",
"373 743 CURVE SMOOTH",
"149 743 OFFCURVE",
"24 580 OFFCURVE",
"24 366 CURVE SMOOTH",
"24 154 OFFCURVE",
"149 -11 OFFCURVE",
"373 -11 CURVE SMOOTH",
"458 -11 OFFCURVE",
"529 13 OFFCURVE",
"585 54 CURVE",
"585 0 LINE"
);
},
{
closed = 1;
nodes = (
"216 88 OFFCURVE",
"171 235 OFFCURVE",
"171 366 CURVE SMOOTH",
"171 495 OFFCURVE",
"219 644 OFFCURVE",
"373 644 CURVE SMOOTH",
"531 644 OFFCURVE",
"575 496 OFFCURVE",
"575 366 CURVE SMOOTH",
"575 236 OFFCURVE",
"527 88 OFFCURVE",
"373 88 CURVE SMOOTH"
);
}
);
width = 1055;
}
);
leftKerningGroup = O;
rightKerningGroup = E;
unicode = 0152;
},
{
glyphname = P;
lastChange = "2015-02-06 22:44:54 +0000";
layers = (
{
hints = (
{
place = "{86.000000, 93.000000}";
},
{
place = "{437.000000, 97.000000}";
},
{
horizontal = 1;
place = "{0.000000, 20.000000}";
},
{
horizontal = 1;
place = "{288.000000, 68.000000}";
},
{
horizontal = 1;
place = "{659.000000, 69.000000}";
}
);
layerId = UUID0;
name = Regular;
paths = (
{
closed = 1;
nodes = (
"179 0 LINE",
"179 288 LINE",
"290 288 LINE SMOOTH",
"425 288 OFFCURVE",
"534 362 OFFCURVE",
"534 508 CURVE SMOOTH",
"534 665 OFFCURVE",
"433 728 OFFCURVE",
"289 728 CURVE SMOOTH",
"71 728 LINE",
"86 662 LINE",
"86 0 LINE"
);
},
{
closed = 1;
nodes = (
"179 356 LINE",
"179 659 LINE",
"289 659 LINE SMOOTH",
"385 659 OFFCURVE",
"437 602 OFFCURVE",
"437 508 CURVE SMOOTH",
"437 417 OFFCURVE",
"380 356 OFFCURVE",
"288 356 CURVE SMOOTH"
);
}
);
width = 575;
},
{
hints = (
{
place = "{66.000000, 137.000000}";
},
{
place = "{403.000000, 146.000000}";
},
{
horizontal = 1;
place = "{294.000000, 97.000000}";
},
{
horizontal = 1;
place = "{633.000000, 99.000000}";
},
{
horizontal = 1;
place = "{0.000000, 21.000000}";
target = up;
type = BottomGhost;
}
);
layerId = "9AE9C081-2011-43F2-9F6D-8F63AE9DAFAF";
name = Bold;
paths = (
{
closed = 1;
nodes = (
"549 678 OFFCURVE",
"428 732 OFFCURVE",
"283 732 CURVE SMOOTH",
"51 732 LINE",
"53 727 OFFCURVE",
"66 673 OFFCURVE",
"66 671 CURVE SMOOTH",
"66 0 LINE",
"203 0 LINE",
"203 294 LINE",
"285 294 LINE SMOOTH",
"421 294 OFFCURVE",
"549 360 OFFCURVE",
"549 513 CURVE SMOOTH"
);
},
{
closed = 1;
nodes = (
"403 442 OFFCURVE",
"362 391 OFFCURVE",
"288 391 CURVE SMOOTH",
"204 391 LINE",
"204 633 LINE",
"289 633 LINE SMOOTH",
"365 633 OFFCURVE",
"403 586 OFFCURVE",
"403 513 CURVE SMOOTH"
);
}
);
width = 575;
}
);
leftKerningGroup = M;
unicode = 0050;
},
{
glyphname = Thorn;
lastChange = "2015-02-06 22:44:54 +0000";
layers = (
{
layerId = UUID0;
name = Regular;
paths = (
{
closed = 1;
nodes = (
"182 251 LINE",
"182 542 LINE",
"290 542 LINE SMOOTH",
"385 542 OFFCURVE",
"435 488 OFFCURVE",
"435 400 CURVE",
"435 312 OFFCURVE",
"379 251 OFFCURVE",
"289 251 CURVE"
);
},
{
closed = 1;
nodes = (
"182 1 LINE",
"182 183 LINE",
"283 183 LINE SMOOTH",
"417 183 OFFCURVE",
"533 250 OFFCURVE",
"533 400 CURVE",
"533 555 OFFCURVE",
"424 611 OFFCURVE",
"282 611 CURVE",
"183 611 LINE",
"183 728 LINE",
"74 728 LINE",
"89 662 LINE",
"89 1 LINE"
);
}
);
width = 575;
},
{
hints = (
{
place = "{66.000000, 137.000000}";
},
{
place = "{403.000000, 146.000000}";
},
{
horizontal = 1;
place = "{179.000000, 97.000000}";
},
{
horizontal = 1;
place = "{518.000000, 99.000000}";
},
{
horizontal = 1;
place = "{0.000000, 21.000000}";
target = up;
type = BottomGhost;
},
{
horizontal = 1;
place = "{732.000000, -20.000000}";
target = down;
type = TopGhost;
}
);
layerId = "9AE9C081-2011-43F2-9F6D-8F63AE9DAFAF";
name = Bold;
paths = (
{
closed = 1;
nodes = (
"203 0 LINE",
"203 179 LINE",
"285 179 LINE SMOOTH",
"421 179 OFFCURVE",
"549 245 OFFCURVE",
"549 398 CURVE SMOOTH",
"549 563 OFFCURVE",
"428 617 OFFCURVE",
"283 617 CURVE SMOOTH",
"205 617 LINE",
"205 732 LINE",
"53 732 LINE",
"54 727 OFFCURVE",
"66 673 OFFCURVE",
"66 671 CURVE SMOOTH",
"66 0 LINE"
);
},
{
closed = 1;
nodes = (
"204 276 LINE",
"204 518 LINE",
"289 518 LINE SMOOTH",
"365 518 OFFCURVE",
"403 471 OFFCURVE",
"403 398 CURVE SMOOTH",
"403 327 OFFCURVE",
"362 276 OFFCURVE",
"288 276 CURVE SMOOTH"
);
}
);
width = 575;
}
);
leftKerningGroup = M;
unicode = 00DE;
},
{
glyphname = Q;
lastChange = "2015-02-06 22:44:54 +0000";
layers = (
{
hints = (
{
place = "{46.000000, 99.000000}";
},
{
place = "{594.000000, 97.000000}";
},
{
horizontal = 1;
place = "{-222.000000, 64.000000}";
},
{
horizontal = 1;
place = "{668.000000, 70.000000}";
}
);
layerId = UUID0;
name = Regular;
paths = (
{
closed = 1;
nodes = (
"1139 -127 LINE",
"1093 -141 OFFCURVE",
"1011 -158 OFFCURVE",
"969 -158 CURVE SMOOTH",
"827 -158 OFFCURVE",
"580 -30 OFFCURVE",
"508 7 CURVE SMOOTH",
"502 10 OFFCURVE",
"496 12 OFFCURVE",
"493 14 CURVE",
"634 74 OFFCURVE",
"691 219 OFFCURVE",
"691 363 CURVE SMOOTH",
"691 561 OFFCURVE",
"588 738 OFFCURVE",
"369 738 CURVE SMOOTH",
"149 738 OFFCURVE",
"46 562 OFFCURVE",
"46 363 CURVE SMOOTH",
"46 186 OFFCURVE",
"121 37 OFFCURVE",
"307 -5 CURVE SMOOTH",
"351 -15 OFFCURVE",
"398 -24 OFFCURVE",
"438 -42 CURVE SMOOTH",
"546 -90 OFFCURVE",
"784 -222 OFFCURVE",
"935 -222 CURVE SMOOTH",
"1029 -222 OFFCURVE",
"1085 -201 OFFCURVE",
"1155 -175 CURVE"
);
},
{
closed = 1;
nodes = (
"202 57 OFFCURVE",
"145 217 OFFCURVE",
"145 362 CURVE SMOOTH",
"145 508 OFFCURVE",
"201 668 OFFCURVE",
"369 668 CURVE SMOOTH",
"537 668 OFFCURVE",
"594 509 OFFCURVE",
"594 363 CURVE SMOOTH",
"594 216 OFFCURVE",
"537 57 OFFCURVE",
"369 57 CURVE SMOOTH"
);
}
);
width = 737;
},
{
hints = (
{
place = "{19.000000, 148.000000}";
},
{
place = "{571.000000, 147.000000}";
},
{
horizontal = 1;
place = "{-216.000000, 94.000000}";
},
{
horizontal = 1;
place = "{648.000000, 96.000000}";
}
);
layerId = "9AE9C081-2011-43F2-9F6D-8F63AE9DAFAF";
name = Bold;
paths = (
{
closed = 1;
nodes = (
"1161 -87 LINE",
"1094 -107 OFFCURVE",
"1015 -122 OFFCURVE",
"976 -122 CURVE SMOOTH",
"842 -122 OFFCURVE",
"657 -32 OFFCURVE",
"548 21 CURVE SMOOTH",
"536 27 LINE",
"669 99 OFFCURVE",
"718 236 OFFCURVE",
"718 364 CURVE SMOOTH",
"718 560 OFFCURVE",
"606 744 OFFCURVE",
"369 744 CURVE SMOOTH",
"132 744 OFFCURVE",
"19 561 OFFCURVE",
"19 364 CURVE SMOOTH",
"19 189 OFFCURVE",
"97 35 OFFCURVE",
"301 -8 CURVE SMOOTH",
"344 -17 OFFCURVE",
"389 -24 OFFCURVE",
"429 -42 CURVE SMOOTH",
"567 -103 OFFCURVE",
"785 -216 OFFCURVE",
"935 -216 CURVE SMOOTH",
"1032 -216 OFFCURVE",
"1065 -204 OFFCURVE",
"1184 -163 CURVE"
);
},
{
closed = 1;
nodes = (
"571 226 OFFCURVE",
"516 85 OFFCURVE",
"369 85 CURVE SMOOTH",
"223 85 OFFCURVE",
"167 226 OFFCURVE",
"167 363 CURVE SMOOTH",
"167 501 OFFCURVE",
"223 648 OFFCURVE",
"369 648 CURVE SMOOTH",
"516 648 OFFCURVE",
"571 502 OFFCURVE",
"571 364 CURVE SMOOTH"
);
}
);
width = 737;
}
);
leftKerningGroup = O;
rightKerningGroup = O;
unicode = 0051;
},
{
glyphname = R;
lastChange = "2015-02-06 22:44:54 +0000";
layers = (
{
hints = (
{
place = "{85.000000, 93.000000}";
},
{
place = "{437.000000, 97.000000}";
},
{
horizontal = 1;
place = "{0.000000, 20.000000}";
},
{
horizontal = 1;
place = "{327.000000, 68.000000}";
},
{
horizontal = 1;
place = "{659.000000, 69.000000}";
}
);
layerId = UUID0;
name = Regular;
paths = (
{
closed = 1;
nodes = (
"599 0 LINE",
"395 346 LINE",
"471 370 OFFCURVE",
"534 446 OFFCURVE",
"534 527 CURVE SMOOTH",
"534 683 OFFCURVE",
"426 728 OFFCURVE",
"288 728 CURVE SMOOTH",
"71 728 LINE",
"72 722 OFFCURVE",
"85 664 OFFCURVE",
"85 662 CURVE SMOOTH",
"85 0 LINE",
"178 0 LINE",
"178 327 LINE",
"228 327 LINE SMOOTH",
"254 327 OFFCURVE",
"280 327 OFFCURVE",
"303 329 CURVE",
"491 0 LINE"
);
},
{
closed = 1;
nodes = (
"178 395 LINE",
"178 659 LINE",
"288 659 LINE SMOOTH",
"366 659 OFFCURVE",
"437 618 OFFCURVE",
"437 533 CURVE SMOOTH",
"437 423 OFFCURVE",
"357 395 OFFCURVE",
"258 395 CURVE SMOOTH"
);
}
);
width = 591;
},
{
hints = (
{
place = "{66.000000, 137.000000}";
},
{
place = "{404.000000, 145.000000}";
},
{
horizontal = 1;
place = "{632.000000, 100.000000}";
},
{
horizontal = 1;
place = "{0.000000, 21.000000}";
target = up;
type = BottomGhost;
}
);
layerId = "9AE9C081-2011-43F2-9F6D-8F63AE9DAFAF";
name = Bold;
paths = (
{
closed = 1;
nodes = (
"617 0 LINE",
"393 347 LINE",
"474 367 OFFCURVE",
"549 447 OFFCURVE",
"549 532 CURVE SMOOTH",
"549 684 OFFCURVE",
"435 732 OFFCURVE",
"302 732 CURVE SMOOTH",
"51 732 LINE",
"53 727 OFFCURVE",
"66 673 OFFCURVE",
"66 671 CURVE SMOOTH",
"66 0 LINE",
"203 0 LINE",
"203 326 LINE",
"258 326 LINE",
"461 0 LINE"
);
},
{
closed = 1;
nodes = (
"404 448 OFFCURVE",
"345 424 OFFCURVE",
"267 424 CURVE SMOOTH",
"203 424 LINE",
"203 632 LINE",
"289 632 LINE SMOOTH",
"351 632 OFFCURVE",
"404 599 OFFCURVE",
"404 533 CURVE SMOOTH"
);
}
);
width = 591;
}
);
leftKerningGroup = M;
unicode = 0052;
},
{
glyphname = S;
lastChange = "2015-02-06 22:44:54 +0000";
layers = (
{
hints = (
{
place = "{52.000000, 100.000000}";
},
{
place = "{385.000000, 100.000000}";
},
{
horizontal = 1;
place = "{-12.000000, 72.000000}";
},
{
horizontal = 1;
place = "{667.000000, 71.000000}";
}
);
layerId = UUID0;
name = Regular;
paths = (
{
closed = 1;
nodes = (
"32 42 LINE",
"96 9 OFFCURVE",
"163 -12 OFFCURVE",
"235 -12 CURVE SMOOTH",
"366 -12 OFFCURVE",
"485 54 OFFCURVE",
"485 198 CURVE SMOOTH",
"485 438 OFFCURVE",
"152 401 OFFCURVE",
"152 556 CURVE SMOOTH",
"152 633 OFFCURVE",
"208 667 OFFCURVE",
"279 667 CURVE SMOOTH",
"331 667 OFFCURVE",
"380 647 OFFCURVE",
"422 617 CURVE",
"468 684 LINE",
"411 718 OFFCURVE",
"346 738 OFFCURVE",
"280 738 CURVE SMOOTH",
"167 738 OFFCURVE",
"52 673 OFFCURVE",
"52 548 CURVE SMOOTH",
"52 319 OFFCURVE",
"385 376 OFFCURVE",
"385 185 CURVE SMOOTH",
"385 96 OFFCURVE",
"304 60 OFFCURVE",
"238 60 CURVE SMOOTH",
"180 60 OFFCURVE",
"112 86 OFFCURVE",
"68 124 CURVE"
);
}
);
width = 516;
},
{
hints = (
{
place = "{28.000000, 146.000000}";
},
{
place = "{350.000000, 146.000000}";
},
{
horizontal = 1;
place = "{-12.000000, 96.000000}";
},
{
horizontal = 1;
place = "{648.000000, 96.000000}";
}
);
layerId = "9AE9C081-2011-43F2-9F6D-8F63AE9DAFAF";
name = Bold;
paths = (
{
closed = 1;
nodes = (
"496 452 OFFCURVE",
"174 414 OFFCURVE",
"174 564 CURVE SMOOTH",
"174 621 OFFCURVE",
"225 648 OFFCURVE",
"277 648 CURVE SMOOTH",
"324 648 OFFCURVE",
"379 630 OFFCURVE",
"415 598 CURVE",
"484 684 LINE",
"442 716 OFFCURVE",
"349 744 OFFCURVE",
"290 744 CURVE SMOOTH",
"137 744 OFFCURVE",
"28 677 OFFCURVE",
"28 535 CURVE SMOOTH",
"28 307 OFFCURVE",
"350 346 OFFCURVE",
"350 190 CURVE SMOOTH",
"350 120 OFFCURVE",
"289 84 OFFCURVE",
"226 84 CURVE SMOOTH",
"162 84 OFFCURVE",
"97 114 OFFCURVE",
"51 157 CURVE",
"4 46 LINE",
"75 4 OFFCURVE",
"157 -12 OFFCURVE",
"239 -12 CURVE SMOOTH",
"375 -12 OFFCURVE",
"496 68 OFFCURVE",
"496 215 CURVE SMOOTH"
);
}
);
width = 516;
}
);
leftKerningGroup = S;
rightKerningGroup = S;
unicode = 0053;
},
{
glyphname = Scaron;
lastChange = "2015-02-06 22:44:54 +0000";
layers = (
{
background = {
paths = (
{
closed = 1;
nodes = (
"485 403 OFFCURVE",
"152 367 OFFCURVE",
"152 508 CURVE SMOOTH",
"152 576 OFFCURVE",
"208 608 OFFCURVE",
"279 608 CURVE SMOOTH",
"331 608 OFFCURVE",
"380 588 OFFCURVE",
"422 558 CURVE",
"468 625 LINE",
"411 659 OFFCURVE",
"346 679 OFFCURVE",
"280 679 CURVE SMOOTH",
"167 679 OFFCURVE",
"52 616 OFFCURVE",
"52 500 CURVE SMOOTH",
"52 292 OFFCURVE",
"385 348 OFFCURVE",
"385 177 CURVE SMOOTH",
"385 94 OFFCURVE",
"304 60 OFFCURVE",
"238 60 CURVE SMOOTH",
"180 60 OFFCURVE",
"112 86 OFFCURVE",
"68 124 CURVE",
"32 42 LINE",
"96 9 OFFCURVE",
"163 -12 OFFCURVE",
"235 -12 CURVE SMOOTH",
"366 -12 OFFCURVE",
"485 52 OFFCURVE",
"485 190 CURVE SMOOTH"
);
},
{
closed = 1;
nodes = (
"409 873 LINE",
"341 873 LINE",
"264 770 LINE",
"187 873 LINE",
"118 873 LINE",
"222 697 LINE",
"306 697 LINE"
);
}
);
};
layerId = UUID0;
name = Regular;
paths = (
{
closed = 1;
nodes = (
"32 42 LINE",
"96 9 OFFCURVE",
"163 -12 OFFCURVE",
"235 -12 CURVE SMOOTH",
"366 -12 OFFCURVE",
"485 52 OFFCURVE",
"485 190 CURVE SMOOTH",
"485 403 OFFCURVE",
"152 367 OFFCURVE",
"152 508 CURVE SMOOTH",
"152 576 OFFCURVE",
"208 608 OFFCURVE",
"279 608 CURVE SMOOTH",
"331 608 OFFCURVE",
"380 588 OFFCURVE",
"422 558 CURVE",
"468 625 LINE",
"411 659 OFFCURVE",
"346 679 OFFCURVE",
"280 679 CURVE SMOOTH",
"167 679 OFFCURVE",
"52 616 OFFCURVE",
"52 500 CURVE SMOOTH",
"52 292 OFFCURVE",
"385 348 OFFCURVE",
"385 177 CURVE SMOOTH",
"385 94 OFFCURVE",
"304 60 OFFCURVE",
"238 60 CURVE SMOOTH",
"180 60 OFFCURVE",
"112 86 OFFCURVE",
"68 124 CURVE"
);
},
{
closed = 1;
nodes = (
"306 697 LINE",
"409 873 LINE",
"341 873 LINE",
"264 770 LINE",
"187 873 LINE",
"118 873 LINE",
"222 697 LINE"
);
}
);
width = 516;
},
{
hints = (
{
place = "{28.000000, 146.000000}";
},
{
place = "{351.000000, 146.000000}";
},
{
horizontal = 1;
place = "{-12.000000, 96.000000}";
},
{
horizontal = 1;
place = "{587.000000, 96.000000}";
},
{
horizontal = 1;
place = "{861.000000, -20.000000}";
target = down;
type = TopGhost;
}
);
layerId = "9AE9C081-2011-43F2-9F6D-8F63AE9DAFAF";
name = Bold;
paths = (
{
closed = 1;
nodes = (
"497 415 OFFCURVE",
"174 385 OFFCURVE",
"174 517 CURVE SMOOTH",
"174 563 OFFCURVE",
"225 587 OFFCURVE",
"278 587 CURVE SMOOTH",
"325 587 OFFCURVE",
"380 570 OFFCURVE",
"416 541 CURVE",
"485 628 LINE",
"440 661 OFFCURVE",
"350 683 OFFCURVE",
"291 683 CURVE SMOOTH",
"137 683 OFFCURVE",
"28 621 OFFCURVE",
"28 491 CURVE SMOOTH",
"28 281 OFFCURVE",
"351 311 OFFCURVE",
"351 174 CURVE SMOOTH",
"351 116 OFFCURVE",
"290 84 OFFCURVE",
"226 84 CURVE SMOOTH",
"162 84 OFFCURVE",
"97 112 OFFCURVE",
"51 151 CURVE",
"4 41 LINE",
"75 3 OFFCURVE",
"157 -12 OFFCURVE",
"239 -12 CURVE SMOOTH",
"376 -12 OFFCURVE",
"497 62 OFFCURVE",
"497 197 CURVE SMOOTH"
);
},
{
closed = 1;
nodes = (
"404 861 LINE",
"328 861 LINE",
"259 787 LINE",
"189 861 LINE",
"111 861 LINE",
"210 716 LINE",
"308 716 LINE"
);
}
);
width = 516;
}
);
leftKerningGroup = S;
rightKerningGroup = S;
unicode = 0160;
},
{
glyphname = T;
lastChange = "2015-02-06 22:44:54 +0000";
layers = (
{
hints = (
{
place = "{240.000000, 95.000000}";
},
{
horizontal = 1;
place = "{0.000000, 20.000000}";
},
{
horizontal = 1;
place = "{659.000000, 69.000000}";
}
);
layerId = UUID0;
name = Regular;
paths = (
{
closed = 1;
nodes = (
"335 0 LINE",
"335 659 LINE",
"554 659 LINE",
"554 728 LINE",
"24 728 LINE",
"24 659 LINE",
"240 659 LINE",
"240 0 LINE"
);
}
);
width = 578;
},
{
hints = (
{
place = "{216.000000, 143.000000}";
},
{
horizontal = 1;
place = "{633.000000, 99.000000}";
},
{
horizontal = 1;
place = "{0.000000, 21.000000}";
target = up;
type = BottomGhost;
}
);
layerId = "9AE9C081-2011-43F2-9F6D-8F63AE9DAFAF";
name = Bold;
paths = (
{
closed = 1;
nodes = (
"565 633 LINE",
"565 732 LINE",
"13 732 LINE",
"13 633 LINE",
"216 633 LINE",
"216 0 LINE",
"359 0 LINE",
"359 633 LINE"
);
}
);
width = 578;
}
);
unicode = 0054;
},
{
glyphname = U;
lastChange = "2015-02-06 22:44:54 +0000";
layers = (
{
hints = (
{
place = "{86.000000, 95.000000}";
},
{
place = "{543.000000, 77.000000}";
},
{
horizontal = 1;
place = "{-12.000000, 69.000000}";
},
{
horizontal = 1;
place = "{728.000000, -20.000000}";
target = down;
type = TopGhost;
}
);
layerId = UUID0;
name = Regular;
paths = (
{
closed = 1;
nodes = (
"543 258 LINE",
"543 139 OFFCURVE",
"479 57 OFFCURVE",
"355 57 CURVE SMOOTH",
"235 57 OFFCURVE",
"181 130 OFFCURVE",
"181 244 CURVE SMOOTH",
"181 728 LINE",
"71 728 LINE",
"86 662 LINE",
"86 244 LINE SMOOTH",
"86 76 OFFCURVE",
"184 -12 OFFCURVE",
"351 -12 CURVE SMOOTH",
"522 -12 OFFCURVE",
"620 89 OFFCURVE",
"620 258 CURVE",
"620 728 LINE",
"543 728 LINE"
);
}
);
width = 707;
},
{
hints = (
{
place = "{68.000000, 141.000000}";
},
{
place = "{531.000000, 113.000000}";
},
{
horizontal = 1;
place = "{-11.000000, 95.000000}";
},
{
horizontal = 1;
place = "{732.000000, -20.000000}";
target = down;
type = TopGhost;
}
);
layerId = "9AE9C081-2011-43F2-9F6D-8F63AE9DAFAF";
name = Bold;
paths = (
{
closed = 1;
nodes = (
"644 732 LINE",
"531 732 LINE",
"531 245 LINE SMOOTH",
"531 145 OFFCURVE",
"469 84 OFFCURVE",
"370 84 CURVE SMOOTH",
"273 84 OFFCURVE",
"209 147 OFFCURVE",
"209 245 CURVE SMOOTH",
"209 732 LINE",
"52 732 LINE",
"68 672 LINE",
"68 278 LINE SMOOTH",
"68 92 OFFCURVE",
"170 -11 OFFCURVE",
"356 -11 CURVE SMOOTH",
"519 -11 OFFCURVE",
"644 68 OFFCURVE",
"644 278 CURVE"
);
}
);
width = 707;
}
);
leftKerningGroup = U;
rightKerningGroup = U;
unicode = 0055;
},
{
glyphname = Uacute;
lastChange = "2015-02-06 22:44:54 +0000";
layers = (
{
hints = (
{
place = "{86.000000, 95.000000}";
},
{
place = "{543.000000, 77.000000}";
},
{
horizontal = 1;
place = "{-12.000000, 69.000000}";
}
);
layerId = UUID0;
name = Regular;
paths = (
{
closed = 1;
nodes = (
"392 717 LINE",
"532 868 LINE",
"410 868 LINE",
"315 717 LINE"
);
},
{
closed = 1;
nodes = (
"543 258 LINE",
"543 140 OFFCURVE",
"478 57 OFFCURVE",
"355 57 CURVE SMOOTH",
"235 57 OFFCURVE",
"181 130 OFFCURVE",
"181 244 CURVE SMOOTH",
"181 669 LINE",
"71 669 LINE",
"72 664 OFFCURVE",
"86 606 OFFCURVE",
"86 604 CURVE SMOOTH",
"86 244 LINE SMOOTH",
"86 76 OFFCURVE",
"184 -12 OFFCURVE",
"351 -12 CURVE SMOOTH",
"522 -12 OFFCURVE",
"620 89 OFFCURVE",
"620 258 CURVE",
"620 669 LINE",
"543 669 LINE"
);
}
);
width = 707;
},
{
hints = (
{
place = "{68.000000, 141.000000}";
},
{
place = "{531.000000, 113.000000}";
},
{
horizontal = 1;
place = "{-11.000000, 95.000000}";
},
{
horizontal = 1;
place = "{881.000000, -20.000000}";
target = down;
type = TopGhost;
}
);
layerId = "9AE9C081-2011-43F2-9F6D-8F63AE9DAFAF";
name = Bold;
paths = (
{
closed = 1;
nodes = (
"576 881 LINE",
"430 881 LINE",
"321 716 LINE",
"425 716 LINE"
);
},
{
closed = 1;
nodes = (
"644 674 LINE",
"531 674 LINE",
"531 245 LINE SMOOTH",
"531 145 OFFCURVE",
"469 84 OFFCURVE",
"370 84 CURVE SMOOTH",
"273 84 OFFCURVE",
"209 147 OFFCURVE",
"209 245 CURVE SMOOTH",
"209 674 LINE",
"52 674 LINE",
"68 614 LINE",
"68 278 LINE SMOOTH",
"68 92 OFFCURVE",
"170 -11 OFFCURVE",
"356 -11 CURVE SMOOTH",
"522 -11 OFFCURVE",
"644 68 OFFCURVE",
"644 269 CURVE SMOOTH"
);
}
);
width = 707;
}
);
leftKerningGroup = U;
rightKerningGroup = U;
unicode = 00DA;
},
{
glyphname = Ucircumflex;
lastChange = "2015-02-06 22:44:54 +0000";
layers = (
{
hints = (
{
place = "{86.000000, 95.000000}";
},
{
place = "{543.000000, 77.000000}";
},
{
horizontal = 1;
place = "{-12.000000, 69.000000}";
}
);
layerId = UUID0;
name = Regular;
paths = (
{
closed = 1;
nodes = (
"504 696 LINE",
"400 850 LINE",
"316 850 LINE",
"214 696 LINE",
"282 696 LINE",
"358 777 LINE",
"436 696 LINE"
);
},
{
closed = 1;
nodes = (
"543 258 LINE",
"543 140 OFFCURVE",
"478 57 OFFCURVE",
"355 57 CURVE SMOOTH",
"235 57 OFFCURVE",
"181 130 OFFCURVE",
"181 244 CURVE SMOOTH",
"181 669 LINE",
"71 669 LINE",
"72 664 OFFCURVE",
"86 606 OFFCURVE",
"86 604 CURVE SMOOTH",
"86 244 LINE SMOOTH",
"86 76 OFFCURVE",
"184 -12 OFFCURVE",
"351 -12 CURVE SMOOTH",
"522 -12 OFFCURVE",
"620 89 OFFCURVE",
"620 258 CURVE",
"620 669 LINE",
"543 669 LINE"
);
}
);
width = 707;
},
{
hints = (
{
place = "{68.000000, 141.000000}";
},
{
place = "{531.000000, 113.000000}";
},
{
horizontal = 1;
place = "{-11.000000, 95.000000}";
},
{
horizontal = 1;
place = "{863.000000, -20.000000}";
target = down;
type = TopGhost;
}
);
layerId = "9AE9C081-2011-43F2-9F6D-8F63AE9DAFAF";
name = Bold;
paths = (
{
closed = 1;
nodes = (
"517 718 LINE",
"418 863 LINE",
"320 863 LINE",
"224 718 LINE",
"300 718 LINE",
"369 792 LINE",
"439 718 LINE"
);
},
{
closed = 1;
nodes = (
"644 674 LINE",
"531 674 LINE",
"531 245 LINE SMOOTH",
"531 145 OFFCURVE",
"469 84 OFFCURVE",
"370 84 CURVE SMOOTH",
"273 84 OFFCURVE",
"209 147 OFFCURVE",
"209 245 CURVE SMOOTH",
"209 674 LINE",
"52 674 LINE",
"68 614 LINE",
"68 278 LINE SMOOTH",
"68 92 OFFCURVE",
"170 -11 OFFCURVE",
"356 -11 CURVE SMOOTH",
"522 -11 OFFCURVE",
"644 68 OFFCURVE",
"644 269 CURVE SMOOTH"
);
}
);
width = 707;
}
);
leftKerningGroup = U;
rightKerningGroup = U;
unicode = 00DB;
},
{
glyphname = Udieresis;
lastChange = "2015-02-06 22:44:54 +0000";
layers = (
{
hints = (
{
place = "{86.000000, 95.000000}";
},
{
place = "{218.000000, 113.000000}";
},
{
place = "{381.000000, 113.000000}";
},
{
place = "{543.000000, 77.000000}";
},
{
horizontal = 1;
place = "{-12.000000, 69.000000}";
},
{
horizontal = 1;
place = "{717.000000, 114.000000}";
}
);
layerId = UUID0;
name = Regular;
paths = (
{
closed = 1;
nodes = (
"477 717 OFFCURVE",
"502 743 OFFCURVE",
"502 774 CURVE SMOOTH",
"502 805 OFFCURVE",
"477 831 OFFCURVE",
"446 831 CURVE SMOOTH",
"415 831 OFFCURVE",
"389 805 OFFCURVE",
"389 774 CURVE SMOOTH",
"389 743 OFFCURVE",
"415 717 OFFCURVE",
"446 717 CURVE SMOOTH"
);
},
{
closed = 1;
nodes = (
"339 805 OFFCURVE",
"313 831 OFFCURVE",
"282 831 CURVE SMOOTH",
"251 831 OFFCURVE",
"226 805 OFFCURVE",
"226 774 CURVE SMOOTH",
"226 743 OFFCURVE",
"251 717 OFFCURVE",
"282 717 CURVE SMOOTH",
"313 717 OFFCURVE",
"339 743 OFFCURVE",
"339 774 CURVE SMOOTH"
);
},
{
closed = 1;
nodes = (
"543 258 LINE",
"543 140 OFFCURVE",
"478 57 OFFCURVE",
"355 57 CURVE SMOOTH",
"235 57 OFFCURVE",
"181 130 OFFCURVE",
"181 244 CURVE SMOOTH",
"181 669 LINE",
"71 669 LINE",
"72 664 OFFCURVE",
"86 606 OFFCURVE",
"86 604 CURVE SMOOTH",
"86 244 LINE SMOOTH",
"86 75 OFFCURVE",
"183 -12 OFFCURVE",
"351 -12 CURVE SMOOTH",
"522 -12 OFFCURVE",
"620 89 OFFCURVE",
"620 258 CURVE",
"620 669 LINE",
"543 669 LINE"
);
}
);
width = 707;
},
{
hints = (
{
place = "{68.000000, 141.000000}";
},
{
place = "{233.000000, 114.000000}";
},
{
place = "{393.000000, 115.000000}";
},
{
place = "{531.000000, 113.000000}";
},
{
horizontal = 1;
place = "{-11.000000, 95.000000}";
},
{
horizontal = 1;
place = "{735.000000, 114.000000}";
}
);
layerId = "9AE9C081-2011-43F2-9F6D-8F63AE9DAFAF";
name = Bold;
paths = (
{
closed = 1;
nodes = (
"508 824 OFFCURVE",
"482 849 OFFCURVE",
"450 849 CURVE SMOOTH",
"419 849 OFFCURVE",
"393 823 OFFCURVE",
"393 792 CURVE SMOOTH",
"393 760 OFFCURVE",
"419 735 OFFCURVE",
"450 735 CURVE SMOOTH",
"482 735 OFFCURVE",
"508 760 OFFCURVE",
"508 792 CURVE SMOOTH"
);
},
{
closed = 1;
nodes = (
"347 823 OFFCURVE",
"322 849 OFFCURVE",
"290 849 CURVE SMOOTH",
"258 849 OFFCURVE",
"233 823 OFFCURVE",
"233 792 CURVE SMOOTH",
"233 760 OFFCURVE",
"258 735 OFFCURVE",
"290 735 CURVE SMOOTH",
"322 735 OFFCURVE",
"347 760 OFFCURVE",
"347 792 CURVE SMOOTH"
);
},
{
closed = 1;
nodes = (
"644 674 LINE",
"531 674 LINE",
"531 245 LINE SMOOTH",
"531 145 OFFCURVE",
"469 84 OFFCURVE",
"370 84 CURVE SMOOTH",
"273 84 OFFCURVE",
"209 147 OFFCURVE",
"209 245 CURVE SMOOTH",
"209 674 LINE",
"52 674 LINE",
"68 614 LINE",
"68 278 LINE SMOOTH",
"68 92 OFFCURVE",
"170 -11 OFFCURVE",
"356 -11 CURVE SMOOTH",
"522 -11 OFFCURVE",
"644 68 OFFCURVE",
"644 269 CURVE SMOOTH"
);
}
);
width = 707;
}
);
leftKerningGroup = U;
rightKerningGroup = U;
unicode = 00DC;
},
{
glyphname = Ugrave;
lastChange = "2015-02-06 22:44:54 +0000";
layers = (
{
hints = (
{
place = "{86.000000, 95.000000}";
},
{
place = "{543.000000, 77.000000}";
},
{
horizontal = 1;
place = "{-13.000000, 69.000000}";
}
);
layerId = UUID0;
name = Regular;
paths = (
{
closed = 1;
nodes = (
"404 721 LINE",
"309 872 LINE",
"187 872 LINE",
"327 721 LINE"
);
},
{
closed = 1;
nodes = (
"543 257 LINE",
"543 139 OFFCURVE",
"478 56 OFFCURVE",
"355 56 CURVE SMOOTH",
"235 56 OFFCURVE",
"181 129 OFFCURVE",
"181 243 CURVE SMOOTH",
"181 668 LINE",
"71 668 LINE",
"72 663 OFFCURVE",
"86 605 OFFCURVE",
"86 603 CURVE SMOOTH",
"86 243 LINE SMOOTH",
"86 75 OFFCURVE",
"184 -13 OFFCURVE",
"351 -13 CURVE SMOOTH",
"522 -13 OFFCURVE",
"620 88 OFFCURVE",
"620 257 CURVE",
"620 668 LINE",
"543 668 LINE"
);
}
);
width = 707;
},
{
hints = (
{
place = "{68.000000, 141.000000}";
},
{
place = "{531.000000, 113.000000}";
},
{
horizontal = 1;
place = "{-11.000000, 95.000000}";
},
{
horizontal = 1;
place = "{881.000000, -20.000000}";
target = down;
type = TopGhost;
}
);
layerId = "9AE9C081-2011-43F2-9F6D-8F63AE9DAFAF";
name = Bold;
paths = (
{
closed = 1;
nodes = (
"644 674 LINE",
"531 674 LINE",
"531 245 LINE SMOOTH",
"531 145 OFFCURVE",
"469 84 OFFCURVE",
"370 84 CURVE SMOOTH",
"273 84 OFFCURVE",
"209 147 OFFCURVE",
"209 245 CURVE SMOOTH",
"209 674 LINE",
"52 674 LINE",
"68 614 LINE",
"68 278 LINE SMOOTH",
"68 92 OFFCURVE",
"170 -11 OFFCURVE",
"356 -11 CURVE SMOOTH",
"522 -11 OFFCURVE",
"644 68 OFFCURVE",
"644 269 CURVE SMOOTH"
);
},
{
closed = 1;
nodes = (
"431 716 LINE",
"322 881 LINE",
"177 881 LINE",
"328 716 LINE"
);
}
);
width = 707;
}
);
leftKerningGroup = U;
rightKerningGroup = U;
unicode = 00D9;
},
{
glyphname = V;
lastChange = "2015-02-06 22:44:54 +0000";
layers = (
{
hints = (
{
horizontal = 1;
place = "{-3.000000, 20.000000}";
},
{
horizontal = 1;
place = "{729.000000, -20.000000}";
target = down;
type = TopGhost;
}
);
layerId = UUID0;
name = Regular;
paths = (
{
closed = 1;
nodes = (
"330 -3 LINE",
"582 729 LINE",
"502 729 LINE",
"308 162 LINE",
"120 728 LINE",
"21 728 LINE",
"272 -3 LINE"
);
}
);
width = 603;
},
{
hints = (
{
horizontal = 1;
place = "{731.000000, -20.000000}";
target = down;
type = TopGhost;
},
{
horizontal = 1;
place = "{-2.000000, 21.000000}";
target = up;
type = BottomGhost;
}
);
layerId = "9AE9C081-2011-43F2-9F6D-8F63AE9DAFAF";
name = Bold;
paths = (
{
closed = 1;
nodes = (
"603 731 LINE",
"492 731 LINE",
"357 336 LINE SMOOTH",
"341 291 OFFCURVE",
"328 246 OFFCURVE",
"318 199 CURVE",
"310 237 OFFCURVE",
"301 276 OFFCURVE",
"289 313 CURVE SMOOTH",
"243 453 OFFCURVE",
"194 591 OFFCURVE",
"146 731 CURVE",
"0 731 LINE",
"252 -2 LINE",
"350 -2 LINE"
);
}
);
width = 603;
}
);
leftKerningGroup = V;
rightKerningGroup = V;
unicode = 0056;
},
{
glyphname = W;
lastChange = "2015-02-07 00:51:51 +0000";
layers = (
{
layerId = UUID0;
name = Regular;
paths = (
{
closed = 1;
nodes = (
"674 -5 LINE",
"873 728 LINE",
"795 728 LINE",
"644 170 LINE",
"494 728 LINE",
"420 728 LINE",
"270 170 LINE",
"119 728 LINE",
"21 728 LINE",
"223 -5 LINE",
"300 -5 LINE",
"448 541 LINE",
"597 -5 LINE"
);
}
);
width = 894;
},
{
layerId = "9AE9C081-2011-43F2-9F6D-8F63AE9DAFAF";
name = Bold;
paths = (
{
closed = 1;
nodes = (
"908 732 LINE",
"797 732 LINE",
"691 346 LINE SMOOTH",
"676 292 OFFCURVE",
"665 238 OFFCURVE",
"657 182 CURVE",
"652 224 OFFCURVE",
"646 266 OFFCURVE",
"636 307 CURVE SMOOTH",
"601 449 OFFCURVE",
"558 591 OFFCURVE",
"519 732 CURVE",
"403 732 LINE",
"298 346 LINE SMOOTH",
"284 292 OFFCURVE",
"271 238 OFFCURVE",
"263 182 CURVE",
"257 225 OFFCURVE",
"250 267 OFFCURVE",
"240 309 CURVE SMOOTH",
"204 451 OFFCURVE",
"163 591 OFFCURVE",
"124 732 CURVE",
"-14 732 LINE",
"187 -2 LINE",
"315 -2 LINE",
"414 361 LINE SMOOTH",
"429 415 OFFCURVE",
"440 470 OFFCURVE",
"448 526 CURVE",
"452 488 OFFCURVE",
"459 451 OFFCURVE",
"468 414 CURVE SMOOTH",
"501 275 OFFCURVE",
"543 136 OFFCURVE",
"581 -2 CURVE",
"705 -2 LINE"
);
}
);
width = 894;
}
);
leftKerningGroup = V;
rightKerningGroup = V;
unicode = 0057;
},
{
glyphname = X;
lastChange = "2015-02-06 22:44:54 +0000";
layers = (
{
hints = (
{
horizontal = 1;
place = "{0.000000, 20.000000}";
},
{
horizontal = 1;
place = "{728.000000, -20.000000}";
target = down;
type = TopGhost;
}
);
layerId = UUID0;
name = Regular;
paths = (
{
closed = 1;
nodes = (
"573 0 LINE",
"339 391 LINE",
"551 728 LINE",
"464 728 LINE",
"298 461 LINE",
"138 728 LINE",
"31 728 LINE",
"243 372 LINE",
"12 0 LINE",
"98 0 LINE",
"285 300 LINE",
"464 0 LINE"
);
}
);
width = 585;
},
{
hints = (
{
horizontal = 1;
place = "{0.000000, 21.000000}";
target = up;
type = BottomGhost;
},
{
horizontal = 1;
place = "{732.000000, -20.000000}";
target = down;
type = TopGhost;
}
);
layerId = "9AE9C081-2011-43F2-9F6D-8F63AE9DAFAF";
name = Bold;
paths = (
{
closed = 1;
nodes = (
"597 0 LINE",
"362 394 LINE",
"569 732 LINE",
"440 732 LINE",
"298 503 LINE",
"161 732 LINE",
"2 732 LINE",
"217 371 LINE",
"-12 0 LINE",
"117 0 LINE",
"282 266 LINE",
"437 0 LINE"
);
}
);
width = 585;
}
);
unicode = 0058;
},
{
glyphname = Y;
lastChange = "2015-02-06 22:44:54 +0000";
layers = (
{
hints = (
{
place = "{249.000000, 95.000000}";
},
{
horizontal = 1;
place = "{0.000000, 20.000000}";
},
{
horizontal = 1;
place = "{728.000000, -20.000000}";
target = down;
type = TopGhost;
}
);
layerId = UUID0;
name = Regular;
paths = (
{
closed = 1;
nodes = (
"344 0 LINE",
"344 360 LINE",
"553 728 LINE",
"466 728 LINE",
"309 445 LINE",
"140 728 LINE",
"32 728 LINE",
"249 360 LINE",
"249 0 LINE"
);
}
);
width = 584;
},
{
hints = (
{
place = "{224.000000, 133.000000}";
},
{
horizontal = 1;
place = "{732.000000, -20.000000}";
target = down;
type = TopGhost;
},
{
horizontal = 1;
place = "{0.000000, 21.000000}";
target = up;
type = BottomGhost;
}
);
layerId = "9AE9C081-2011-43F2-9F6D-8F63AE9DAFAF";
name = Bold;
paths = (
{
closed = 1;
nodes = (
"574 732 LINE",
"454 732 LINE",
"304 460 LINE",
"158 732 LINE",
"10 732 LINE",
"224 333 LINE",
"224 0 LINE",
"357 0 LINE",
"357 333 LINE"
);
}
);
width = 584;
}
);
leftKerningGroup = Y;
rightKerningGroup = Y;
unicode = 0059;
},
{
glyphname = Yacute;
lastChange = "2015-02-06 22:44:54 +0000";
layers = (
{
background = {
paths = (
{
closed = 1;
nodes = (
"553 669 LINE",
"466 669 LINE",
"309 395 LINE",
"140 669 LINE",
"32 669 LINE",
"249 310 LINE",
"249 0 LINE",
"344 0 LINE",
"344 310 LINE"
);
},
{
closed = 1;
nodes = (
"484 868 LINE",
"362 868 LINE",
"267 717 LINE",
"344 717 LINE"
);
}
);
};
layerId = UUID0;
name = Regular;
paths = (
{
closed = 1;
nodes = (
"344 717 LINE",
"484 868 LINE",
"362 868 LINE",
"267 717 LINE"
);
},
{
closed = 1;
nodes = (
"343 0 LINE",
"343 300 LINE",
"553 669 LINE",
"465 669 LINE",
"308 385 LINE",
"139 669 LINE",
"32 669 LINE",
"248 300 LINE",
"248 0 LINE"
);
}
);
width = 584;
},
{
hints = (
{
place = "{224.000000, 133.000000}";
},
{
horizontal = 1;
place = "{881.000000, -20.000000}";
target = down;
type = TopGhost;
},
{
horizontal = 1;
place = "{0.000000, 21.000000}";
target = up;
type = BottomGhost;
}
);
layerId = "9AE9C081-2011-43F2-9F6D-8F63AE9DAFAF";
name = Bold;
paths = (
{
closed = 1;
nodes = (
"512 881 LINE",
"367 881 LINE",
"258 716 LINE",
"361 716 LINE"
);
},
{
closed = 1;
nodes = (
"574 674 LINE",
"454 674 LINE",
"304 401 LINE",
"158 674 LINE",
"10 674 LINE",
"224 274 LINE",
"224 0 LINE",
"357 0 LINE",
"357 274 LINE"
);
}
);
width = 584;
}
);
leftKerningGroup = Y;
rightKerningGroup = Y;
unicode = 00DD;
},
{
glyphname = Ydieresis;
lastChange = "2015-02-06 22:44:54 +0000";
layers = (
{
hints = (
{
place = "{163.000000, 114.000000}";
},
{
place = "{326.000000, 114.000000}";
},
{
horizontal = 1;
place = "{0.000000, 20.000000}";
},
{
horizontal = 1;
place = "{717.000000, 114.000000}";
}
);
layerId = UUID0;
name = Regular;
paths = (
{
closed = 1;
nodes = (
"440 806 OFFCURVE",
"415 831 OFFCURVE",
"383 831 CURVE SMOOTH",
"352 831 OFFCURVE",
"326 805 OFFCURVE",
"326 774 CURVE SMOOTH",
"326 743 OFFCURVE",
"352 717 OFFCURVE",
"383 717 CURVE SMOOTH",
"415 717 OFFCURVE",
"440 742 OFFCURVE",
"440 774 CURVE SMOOTH"
);
},
{
closed = 1;
nodes = (
"277 806 OFFCURVE",
"252 831 OFFCURVE",
"220 831 CURVE SMOOTH",
"188 831 OFFCURVE",
"163 806 OFFCURVE",
"163 774 CURVE SMOOTH",
"163 742 OFFCURVE",
"188 717 OFFCURVE",
"220 717 CURVE SMOOTH",
"252 717 OFFCURVE",
"277 742 OFFCURVE",
"277 774 CURVE SMOOTH"
);
},
{
closed = 1;
nodes = (
"343 0 LINE",
"343 300 LINE",
"553 669 LINE",
"465 669 LINE",
"308 385 LINE",
"139 669 LINE",
"32 669 LINE",
"248 300 LINE",
"248 0 LINE"
);
}
);
width = 584;
},
{
hints = (
{
place = "{169.000000, 114.000000}";
},
{
place = "{224.000000, 133.000000}";
},
{
place = "{329.000000, 115.000000}";
},
{
horizontal = 1;
place = "{735.000000, 114.000000}";
},
{
horizontal = 1;
place = "{0.000000, 21.000000}";
target = up;
type = BottomGhost;
}
);
layerId = "9AE9C081-2011-43F2-9F6D-8F63AE9DAFAF";
name = Bold;
paths = (
{
closed = 1;
nodes = (
"574 674 LINE",
"454 674 LINE",
"304 401 LINE",
"158 674 LINE",
"10 674 LINE",
"224 274 LINE",
"224 0 LINE",
"357 0 LINE",
"357 274 LINE"
);
},
{
closed = 1;
nodes = (
"444 824 OFFCURVE",
"417 849 OFFCURVE",
"386 849 CURVE SMOOTH",
"354 849 OFFCURVE",
"329 823 OFFCURVE",
"329 792 CURVE SMOOTH",
"329 760 OFFCURVE",
"354 735 OFFCURVE",
"386 735 CURVE SMOOTH",
"417 735 OFFCURVE",
"444 760 OFFCURVE",
"444 792 CURVE SMOOTH"
);
},
{
closed = 1;
nodes = (
"283 823 OFFCURVE",
"258 849 OFFCURVE",
"226 849 CURVE SMOOTH",
"194 849 OFFCURVE",
"169 823 OFFCURVE",
"169 792 CURVE SMOOTH",
"169 760 OFFCURVE",
"194 735 OFFCURVE",
"226 735 CURVE SMOOTH",
"258 735 OFFCURVE",
"283 760 OFFCURVE",
"283 792 CURVE SMOOTH"
);
}
);
width = 584;
}
);
leftKerningGroup = Y;
rightKerningGroup = Y;
unicode = 0178;
},
{
glyphname = Z;
lastChange = "2015-02-06 22:44:54 +0000";
layers = (
{
hints = (
{
horizontal = 1;
place = "{0.000000, 69.000000}";
},
{
horizontal = 1;
place = "{659.000000, 69.000000}";
}
);
layerId = UUID0;
name = Regular;
paths = (
{
closed = 1;
nodes = (
"529 0 LINE",
"537 69 LINE",
"146 69 LINE",
"524 661 LINE",
"524 728 LINE",
"57 728 LINE",
"57 659 LINE",
"413 659 LINE",
"35 67 LINE",
"35 0 LINE"
);
}
);
width = 571;
},
{
hints = (
{
horizontal = 1;
place = "{0.000000, 99.000000}";
},
{
horizontal = 1;
place = "{634.000000, 98.000000}";
}
);
layerId = "9AE9C081-2011-43F2-9F6D-8F63AE9DAFAF";
name = Bold;
paths = (
{
closed = 1;
nodes = (
"558 99 LINE",
"182 99 LINE",
"540 659 LINE",
"540 732 LINE",
"37 732 LINE",
"37 634 LINE",
"364 634 LINE",
"13 82 LINE",
"13 0 LINE",
"546 0 LINE"
);
}
);
width = 571;
}
);
leftKerningGroup = Z;
rightKerningGroup = Z;
unicode = 005A;
},
{
glyphname = Zcaron;
lastChange = "2015-02-06 22:44:54 +0000";
layers = (
{
background = {
paths = (
{
closed = 1;
nodes = (
"537 69 LINE",
"146 69 LINE",
"524 601 LINE",
"524 668 LINE",
"57 668 LINE",
"57 599 LINE",
"413 599 LINE",
"35 67 LINE",
"35 0 LINE",
"529 0 LINE"
);
},
{
closed = 1;
nodes = (
"444 873 LINE",
"376 873 LINE",
"299 770 LINE",
"222 873 LINE",
"153 873 LINE",
"257 697 LINE",
"341 697 LINE"
);
}
);
};
layerId = UUID0;
name = Regular;
paths = (
{
closed = 1;
nodes = (
"529 0 LINE",
"537 69 LINE",
"146 69 LINE",
"524 601 LINE",
"524 668 LINE",
"57 668 LINE",
"57 599 LINE",
"413 599 LINE",
"35 67 LINE",
"35 0 LINE"
);
},
{
closed = 1;
nodes = (
"341 697 LINE",
"444 873 LINE",
"376 873 LINE",
"299 770 LINE",
"222 873 LINE",
"153 873 LINE",
"257 697 LINE"
);
}
);
width = 571;
},
{
hints = (
{
horizontal = 1;
place = "{0.000000, 99.000000}";
},
{
horizontal = 1;
place = "{576.000000, 98.000000}";
},
{
horizontal = 1;
place = "{861.000000, -20.000000}";
target = down;
type = TopGhost;
}
);
layerId = "9AE9C081-2011-43F2-9F6D-8F63AE9DAFAF";
name = Bold;
paths = (
{
closed = 1;
nodes = (
"558 99 LINE",
"182 99 LINE",
"540 601 LINE",
"540 674 LINE",
"37 674 LINE",
"37 576 LINE",
"364 576 LINE",
"13 82 LINE",
"13 0 LINE",
"546 0 LINE"
);
},
{
closed = 1;
nodes = (
"447 861 LINE",
"371 861 LINE",
"302 787 LINE",
"232 861 LINE",
"154 861 LINE",
"253 716 LINE",
"351 716 LINE"
);
}
);
width = 571;
}
);
leftKerningGroup = Z;
rightKerningGroup = Z;
unicode = 017D;
},
{
glyphname = a;
lastChange = "2015-02-06 22:44:54 +0000";
layers = (
{
hints = (
{
place = "{406.000000, -77.000000}";
},
{
place = "{129.000000, -85.000000}";
},
{
horizontal = 1;
place = "{509.000000, -283.000000}";
},
{
horizontal = 1;
place = "{59.000000, -70.000000}";
}
);
layerId = UUID0;
name = Regular;
paths = (
{
closed = 1;
nodes = (
"481 73 LINE",
"476 71 OFFCURVE",
"436 59 OFFCURVE",
"434 59 CURVE SMOOTH",
"415 59 OFFCURVE",
"412 73 OFFCURVE",
"412 97 CURVE SMOOTH",
"412 345 LINE SMOOTH",
"412 449 OFFCURVE",
"358 509 OFFCURVE",
"253 509 CURVE SMOOTH",
"183 509 OFFCURVE",
"117 488 OFFCURVE",
"62 444 CURVE",
"103 385 LINE",
"136 423 OFFCURVE",
"197 444 OFFCURVE",
"246 444 CURVE SMOOTH",
"311 444 OFFCURVE",
"329 400 OFFCURVE",
"329 344 CURVE SMOOTH",
"329 291 LINE",
"213 290 OFFCURVE",
"44 271 OFFCURVE",
"44 120 CURVE SMOOTH",
"44 38 OFFCURVE",
"102 -11 OFFCURVE",
"181 -11 CURVE SMOOTH",
"238 -11 OFFCURVE",
"292 18 OFFCURVE",
"331 59 CURVE",
"337 21 OFFCURVE",
"361 -9 OFFCURVE",
"402 -9 CURVE SMOOTH",
"434 -9 OFFCURVE",
"469 10 OFFCURVE",
"498 21 CURVE"
);
},
{
closed = 1;
nodes = (
"329 194 LINE",
"329 128 OFFCURVE",
"279 59 OFFCURVE",
"208 59 CURVE SMOOTH",
"162 59 OFFCURVE",
"129 79 OFFCURVE",
"129 123 CURVE SMOOTH",
"129 222 OFFCURVE",
"257 226 OFFCURVE",
"329 226 CURVE"
);
}
);
width = 494;
},
{
hints = (
{
place = "{30.000000, 125.000000}";
},
{
place = "{301.000000, 120.000000}";
},
{
horizontal = 1;
place = "{-11.000000, 92.000000}";
},
{
horizontal = 1;
place = "{209.000000, 82.000000}";
},
{
horizontal = 1;
place = "{426.000000, 83.000000}";
},
{
horizontal = 1;
place = "{-8.000000, 21.000000}";
target = up;
type = BottomGhost;
}
);
layerId = "9AE9C081-2011-43F2-9F6D-8F63AE9DAFAF";
name = Bold;
paths = (
{
closed = 1;
nodes = (
"495 92 LINE",
"481 88 OFFCURVE",
"460 80 OFFCURVE",
"445 80 CURVE SMOOTH",
"421 80 OFFCURVE",
"421 112 OFFCURVE",
"421 130 CURVE SMOOTH",
"421 347 LINE SMOOTH",
"421 455 OFFCURVE",
"360 509 OFFCURVE",
"254 509 CURVE SMOOTH",
"182 509 OFFCURVE",
"112 488 OFFCURVE",
"52 447 CURVE",
"101 368 LINE",
"136 395 OFFCURVE",
"183 426 OFFCURVE",
"229 426 CURVE SMOOTH",
"279 426 OFFCURVE",
"301 409 OFFCURVE",
"301 356 CURVE SMOOTH",
"301 291 LINE",
"186 291 OFFCURVE",
"30 262 OFFCURVE",
"30 117 CURVE SMOOTH",
"30 35 OFFCURVE",
"93 -11 OFFCURVE",
"171 -11 CURVE SMOOTH",
"233 -11 OFFCURVE",
"284 7 OFFCURVE",
"321 59 CURVE",
"330 20 OFFCURVE",
"359 -8 OFFCURVE",
"400 -8 CURVE SMOOTH",
"438 -8 OFFCURVE",
"480 9 OFFCURVE",
"516 19 CURVE"
);
},
{
closed = 1;
nodes = (
"301 186 LINE SMOOTH",
"301 137 OFFCURVE",
"268 81 OFFCURVE",
"213 81 CURVE SMOOTH",
"185 81 OFFCURVE",
"155 98 OFFCURVE",
"155 129 CURVE SMOOTH",
"155 204 OFFCURVE",
"245 209 OFFCURVE",
"301 209 CURVE"
);
}
);
width = 494;
}
);
leftKerningGroup = a;
rightKerningGroup = a;
unicode = 0061;
},
{
glyphname = ae;
lastChange = "2015-02-06 22:44:54 +0000";
layers = (
{
hints = (
{
place = "{41.000000, 86.000000}";
},
{
place = "{326.000000, 79.000000}";
},
{
place = "{639.000000, 81.000000}";
},
{
horizontal = 1;
place = "{-13.000000, 70.000000}";
},
{
horizontal = 1;
place = "{85.000000, 218.000000}";
},
{
horizontal = 1;
place = "{444.000000, 65.000000}";
}
);
layerId = UUID0;
name = Regular;
paths = (
{
closed = 1;
nodes = (
"677 102 LINE",
"645 73 OFFCURVE",
"589 57 OFFCURVE",
"547 57 CURVE SMOOTH",
"460 57 OFFCURVE",
"405 145 OFFCURVE",
"405 224 CURVE SMOOTH",
"405 241 LINE",
"659 241 LINE SMOOTH",
"709 241 OFFCURVE",
"720 273 OFFCURVE",
"720 317 CURVE SMOOTH",
"720 438 OFFCURVE",
"656 509 OFFCURVE",
"533 509 CURVE SMOOTH",
"480 509 OFFCURVE",
"422 484 OFFCURVE",
"386 444 CURVE",
"357 491 OFFCURVE",
"301 509 OFFCURVE",
"248 509 CURVE SMOOTH",
"195 509 OFFCURVE",
"96 486 OFFCURVE",
"59 443 CURVE",
"100 385 LINE",
"134 423 OFFCURVE",
"195 444 OFFCURVE",
"244 444 CURVE SMOOTH",
"311 444 OFFCURVE",
"328 382 OFFCURVE",
"328 327 CURVE SMOOTH",
"328 319 OFFCURVE",
"328 311 OFFCURVE",
"327 303 CURVE",
"206 303 OFFCURVE",
"41 274 OFFCURVE",
"41 122 CURVE SMOOTH",
"41 38 OFFCURVE",
"96 -12 OFFCURVE",
"179 -12 CURVE SMOOTH",
"262 -12 OFFCURVE",
"313 17 OFFCURVE",
"359 85 CURVE",
"406 22 OFFCURVE",
"471 -13 OFFCURVE",
"551 -13 CURVE SMOOTH",
"607 -13 OFFCURVE",
"672 7 OFFCURVE",
"717 41 CURVE"
);
},
{
closed = 1;
nodes = (
"411 303 LINE",
"421 373 OFFCURVE",
"464 446 OFFCURVE",
"543 446 CURVE SMOOTH",
"615 446 OFFCURVE",
"639 387 OFFCURVE",
"639 325 CURVE SMOOTH",
"639 307 OFFCURVE",
"632 303 OFFCURVE",
"615 303 CURVE SMOOTH"
);
},
{
closed = 1;
nodes = (
"326 204 LINE",
"326 133 OFFCURVE",
"284 59 OFFCURVE",
"205 59 CURVE SMOOTH",
"162 59 OFFCURVE",
"127 82 OFFCURVE",
"127 128 CURVE SMOOTH",
"127 218 OFFCURVE",
"241 239 OFFCURVE",
"312 239 CURVE SMOOTH",
"326 239 LINE"
);
}
);
width = 750;
},
{
hints = (
{
place = "{28.000000, 125.000000}";
},
{
place = "{299.000000, 123.000000}";
},
{
place = "{609.000000, 126.000000}";
},
{
horizontal = 1;
place = "{-11.000000, 80.000000}";
},
{
horizontal = 1;
place = "{223.000000, 79.000000}";
},
{
horizontal = 1;
place = "{426.000000, 85.000000}";
},
{
horizontal = 1;
place = "{-11.000000, 92.000000}";
},
{
horizontal = 1;
place = "{509.000000, -20.000000}";
target = down;
type = TopGhost;
}
);
layerId = "9AE9C081-2011-43F2-9F6D-8F63AE9DAFAF";
name = Bold;
paths = (
{
closed = 1;
nodes = (
"735 415 OFFCURVE",
"667 511 OFFCURVE",
"528 511 CURVE SMOOTH",
"479 511 OFFCURVE",
"419 493 OFFCURVE",
"385 456 CURVE",
"353 498 OFFCURVE",
"302 509 OFFCURVE",
"252 509 CURVE SMOOTH",
"180 509 OFFCURVE",
"110 488 OFFCURVE",
"50 447 CURVE",
"99 368 LINE",
"134 395 OFFCURVE",
"181 426 OFFCURVE",
"227 426 CURVE SMOOTH",
"277 426 OFFCURVE",
"299 409 OFFCURVE",
"299 356 CURVE SMOOTH",
"299 302 LINE",
"182 302 OFFCURVE",
"28 270 OFFCURVE",
"28 124 CURVE SMOOTH",
"28 44 OFFCURVE",
"91 -11 OFFCURVE",
"169 -11 CURVE SMOOTH",
"243 -11 OFFCURVE",
"306 9 OFFCURVE",
"350 73 CURVE",
"396 11 OFFCURVE",
"471 -11 OFFCURVE",
"545 -11 CURVE SMOOTH",
"600 -11 OFFCURVE",
"679 6 OFFCURVE",
"723 42 CURVE",
"672 122 LINE",
"642 92 OFFCURVE",
"593 69 OFFCURVE",
"551 69 CURVE SMOOTH",
"469 69 OFFCURVE",
"422 148 OFFCURVE",
"422 223 CURVE",
"684 223 LINE SMOOTH",
"724 223 OFFCURVE",
"735 247 OFFCURVE",
"735 283 CURVE SMOOTH"
);
},
{
closed = 1;
nodes = (
"609 311 OFFCURVE",
"608 302 OFFCURVE",
"593 302 CURVE SMOOTH",
"425 302 LINE",
"425 359 OFFCURVE",
"467 428 OFFCURVE",
"530 428 CURVE SMOOTH",
"593 428 OFFCURVE",
"609 378 OFFCURVE",
"609 324 CURVE SMOOTH"
);
},
{
closed = 1;
nodes = (
"299 164 OFFCURVE",
"291 81 OFFCURVE",
"212 81 CURVE SMOOTH",
"178 81 OFFCURVE",
"153 98 OFFCURVE",
"153 134 CURVE SMOOTH",
"153 208 OFFCURVE",
"242 223 OFFCURVE",
"299 223 CURVE"
);
}
);
width = 750;
}
);
leftKerningGroup = a;
unicode = 00E6;
},
{
glyphname = b;
lastChange = "2015-02-06 22:44:54 +0000";
layers = (
{
hints = (
{
place = "{82.000000, 83.000000}";
},
{
place = "{423.000000, 89.000000}";
},
{
horizontal = 1;
place = "{-13.000000, 62.000000}";
},
{
horizontal = 1;
place = "{436.000000, 71.000000}";
},
{
horizontal = 1;
place = "{762.000000, -20.000000}";
target = down;
type = TopGhost;
}
);
layerId = UUID0;
name = Regular;
paths = (
{
closed = 1;
nodes = (
"129 -1 LINE",
"147 51 LINE",
"183 8 OFFCURVE",
"237 -13 OFFCURVE",
"293 -13 CURVE SMOOTH",
"442 -13 OFFCURVE",
"512 116 OFFCURVE",
"512 251 CURVE SMOOTH",
"512 375 OFFCURVE",
"444 507 OFFCURVE",
"305 507 CURVE SMOOTH",
"248 507 OFFCURVE",
"207 490 OFFCURVE",
"165 452 CURVE",
"165 762 LINE",
"68 762 LINE",
"69 757 OFFCURVE",
"82 706 OFFCURVE",
"82 704 CURVE SMOOTH",
"82 68 LINE SMOOTH",
"82 45 OFFCURVE",
"80 22 OFFCURVE",
"79 -1 CURVE"
);
},
{
closed = 1;
nodes = (
"165 381 LINE",
"195 413 OFFCURVE",
"240 436 OFFCURVE",
"284 436 CURVE SMOOTH",
"386 436 OFFCURVE",
"423 335 OFFCURVE",
"423 248 CURVE SMOOTH",
"423 168 OFFCURVE",
"390 49 OFFCURVE",
"290 49 CURVE SMOOTH",
"198 49 OFFCURVE",
"165 115 OFFCURVE",
"165 199 CURVE SMOOTH"
);
}
);
width = 558;
},
{
hints = (
{
place = "{68.000000, 120.000000}";
},
{
place = "{399.000000, 131.000000}";
},
{
horizontal = 1;
place = "{-12.000000, 82.000000}";
},
{
horizontal = 1;
place = "{416.000000, 92.000000}";
},
{
horizontal = 1;
place = "{768.000000, -20.000000}";
target = down;
type = TopGhost;
},
{
horizontal = 1;
place = "{-1.000000, 21.000000}";
target = up;
type = BottomGhost;
}
);
layerId = "9AE9C081-2011-43F2-9F6D-8F63AE9DAFAF";
name = Bold;
paths = (
{
closed = 1;
nodes = (
"530 370 OFFCURVE",
"462 508 OFFCURVE",
"327 508 CURVE SMOOTH",
"272 508 OFFCURVE",
"228 493 OFFCURVE",
"186 457 CURVE",
"186 468 OFFCURVE",
"188 486 OFFCURVE",
"188 526 CURVE SMOOTH",
"188 768 LINE",
"54 768 LINE",
"56 763 OFFCURVE",
"68 714 OFFCURVE",
"68 713 CURVE",
"68 65 LINE SMOOTH",
"68 43 OFFCURVE",
"66 21 OFFCURVE",
"64 -1 CURVE",
"126 -1 LINE",
"147 57 LINE",
"186 9 OFFCURVE",
"234 -12 OFFCURVE",
"295 -12 CURVE SMOOTH",
"445 -12 OFFCURVE",
"530 111 OFFCURVE",
"530 251 CURVE SMOOTH"
);
},
{
closed = 1;
nodes = (
"399 179 OFFCURVE",
"378 70 OFFCURVE",
"292 70 CURVE SMOOTH",
"214 70 OFFCURVE",
"188 138 OFFCURVE",
"188 205 CURVE SMOOTH",
"188 368 LINE",
"212 395 OFFCURVE",
"249 416 OFFCURVE",
"286 416 CURVE SMOOTH",
"370 416 OFFCURVE",
"399 312 OFFCURVE",
"399 245 CURVE SMOOTH"
);
}
);
width = 558;
}
);
leftKerningGroup = b;
rightKerningGroup = b;
unicode = 0062;
},
{
glyphname = c;
lastChange = "2015-02-06 22:44:54 +0000";
layers = (
{
hints = (
{
place = "{44.000000, 89.000000}";
},
{
horizontal = 1;
place = "{-13.000000, 69.000000}";
},
{
horizontal = 1;
place = "{444.000000, 65.000000}";
}
);
layerId = UUID0;
name = Regular;
paths = (
{
closed = 1;
nodes = (
"395 100 LINE",
"353 71 OFFCURVE",
"326 56 OFFCURVE",
"274 56 CURVE SMOOTH",
"173 56 OFFCURVE",
"133 174 OFFCURVE",
"133 257 CURVE SMOOTH",
"133 336 OFFCURVE",
"174 444 OFFCURVE",
"269 444 CURVE SMOOTH",
"318 444 OFFCURVE",
"344 432 OFFCURVE",
"381 400 CURVE",
"426 458 LINE",
"388 487 OFFCURVE",
"330 509 OFFCURVE",
"282 509 CURVE SMOOTH",
"130 509 OFFCURVE",
"44 393 OFFCURVE",
"44 248 CURVE SMOOTH",
"44 120 OFFCURVE",
"130 -13 OFFCURVE",
"269 -13 CURVE SMOOTH",
"339 -13 OFFCURVE",
"374 1 OFFCURVE",
"433 37 CURVE"
);
}
);
width = 450;
},
{
hints = (
{
place = "{26.000000, 132.000000}";
},
{
horizontal = 1;
place = "{-12.000000, 84.000000}";
},
{
horizontal = 1;
place = "{425.000000, 85.000000}";
}
);
layerId = "9AE9C081-2011-43F2-9F6D-8F63AE9DAFAF";
name = Bold;
paths = (
{
closed = 1;
nodes = (
"391 121 LINE",
"360 95 OFFCURVE",
"330 72 OFFCURVE",
"287 72 CURVE SMOOTH",
"190 72 OFFCURVE",
"158 169 OFFCURVE",
"158 251 CURVE SMOOTH",
"158 320 OFFCURVE",
"186 425 OFFCURVE",
"272 425 CURVE SMOOTH",
"314 425 OFFCURVE",
"342 410 OFFCURVE",
"374 386 CURVE",
"434 462 LINE",
"394 491 OFFCURVE",
"332 510 OFFCURVE",
"283 510 CURVE SMOOTH",
"127 510 OFFCURVE",
"26 404 OFFCURVE",
"26 249 CURVE SMOOTH",
"26 96 OFFCURVE",
"111 -12 OFFCURVE",
"269 -12 CURVE SMOOTH",
"339 -12 OFFCURVE",
"381 4 OFFCURVE",
"442 35 CURVE"
);
}
);
width = 450;
}
);
leftKerningGroup = c;
rightKerningGroup = c;
unicode = 0063;
},
{
glyphname = ccedilla;
lastChange = "2015-02-06 22:44:54 +0000";
layers = (
{
hints = (
{
place = "{44.000000, 89.000000}";
},
{
place = "{283.000000, 83.000000}";
},
{
horizontal = 1;
place = "{-220.000000, 51.000000}";
},
{
horizontal = 1;
place = "{-95.000000, 151.000000}";
},
{
horizontal = 1;
place = "{444.000000, 65.000000}";
}
);
layerId = UUID0;
name = Regular;
paths = (
{
closed = 1;
nodes = (
"151 -192 LINE",
"178 -209 OFFCURVE",
"208 -220 OFFCURVE",
"239 -220 CURVE SMOOTH",
"297 -220 OFFCURVE",
"366 -204 OFFCURVE",
"366 -127 CURVE SMOOTH",
"366 -68 OFFCURVE",
"310 -46 OFFCURVE",
"262 -46 CURVE",
"250 -46 LINE",
"268 -13 LINE",
"339 -13 OFFCURVE",
"374 1 OFFCURVE",
"433 37 CURVE",
"395 100 LINE",
"353 71 OFFCURVE",
"326 56 OFFCURVE",
"274 56 CURVE SMOOTH",
"173 56 OFFCURVE",
"133 174 OFFCURVE",
"133 257 CURVE SMOOTH",
"133 336 OFFCURVE",
"174 444 OFFCURVE",
"269 444 CURVE SMOOTH",
"318 444 OFFCURVE",
"344 432 OFFCURVE",
"381 400 CURVE",
"426 458 LINE",
"388 487 OFFCURVE",
"330 509 OFFCURVE",
"282 509 CURVE SMOOTH",
"130 509 OFFCURVE",
"44 393 OFFCURVE",
"44 248 CURVE SMOOTH",
"44 134 OFFCURVE",
"111 17 OFFCURVE",
"223 -8 CURVE",
"184 -77 LINE",
"183 -79 OFFCURVE",
"182 -81 OFFCURVE",
"182 -83 CURVE SMOOTH",
"182 -89 OFFCURVE",
"188 -95 OFFCURVE",
"198 -95 CURVE SMOOTH",
"245 -95 LINE SMOOTH",
"267 -95 OFFCURVE",
"283 -108 OFFCURVE",
"283 -130 CURVE SMOOTH",
"283 -153 OFFCURVE",
"262 -169 OFFCURVE",
"239 -169 CURVE SMOOTH",
"221 -169 OFFCURVE",
"197 -158 OFFCURVE",
"175 -146 CURVE"
);
}
);
width = 450;
},
{
hints = (
{
place = "{26.000000, 132.000000}";
},
{
place = "{269.000000, 93.000000}";
},
{
horizontal = 1;
place = "{-220.000000, 58.000000}";
},
{
horizontal = 1;
place = "{-100.000000, 52.000000}";
},
{
horizontal = 1;
place = "{-12.000000, 84.000000}";
},
{
horizontal = 1;
place = "{425.000000, 85.000000}";
}
);
layerId = "9AE9C081-2011-43F2-9F6D-8F63AE9DAFAF";
name = Bold;
paths = (
{
closed = 1;
nodes = (
"391 121 LINE",
"360 95 OFFCURVE",
"330 72 OFFCURVE",
"287 72 CURVE SMOOTH",
"190 72 OFFCURVE",
"158 169 OFFCURVE",
"158 251 CURVE SMOOTH",
"158 320 OFFCURVE",
"186 425 OFFCURVE",
"272 425 CURVE SMOOTH",
"314 425 OFFCURVE",
"342 410 OFFCURVE",
"374 386 CURVE",
"434 462 LINE",
"394 491 OFFCURVE",
"332 510 OFFCURVE",
"283 510 CURVE SMOOTH",
"127 510 OFFCURVE",
"26 404 OFFCURVE",
"26 249 CURVE SMOOTH",
"26 115 OFFCURVE",
"90 16 OFFCURVE",
"212 -7 CURVE",
"173 -73 LINE SMOOTH",
"171 -76 OFFCURVE",
"170 -79 OFFCURVE",
"170 -83 CURVE SMOOTH",
"170 -91 OFFCURVE",
"175 -100 OFFCURVE",
"189 -100 CURVE SMOOTH",
"236 -100 LINE SMOOTH",
"256 -100 OFFCURVE",
"269 -111 OFFCURVE",
"269 -129 CURVE SMOOTH",
"269 -148 OFFCURVE",
"251 -162 OFFCURVE",
"230 -162 CURVE SMOOTH",
"214 -162 OFFCURVE",
"189 -154 OFFCURVE",
"163 -140 CURVE",
"135 -190 LINE",
"167 -209 OFFCURVE",
"199 -220 OFFCURVE",
"227 -220 CURVE SMOOTH",
"285 -220 OFFCURVE",
"362 -205 OFFCURVE",
"362 -126 CURVE SMOOTH",
"362 -65 OFFCURVE",
"300 -48 OFFCURVE",
"252 -48 CURVE SMOOTH",
"248 -48 LINE",
"268 -12 LINE",
"339 -12 OFFCURVE",
"381 4 OFFCURVE",
"442 35 CURVE"
);
}
);
width = 450;
}
);
leftKerningGroup = c;
rightKerningGroup = c;
unicode = 00E7;
},
{
glyphname = d;
lastChange = "2015-02-06 22:44:54 +0000";
layers = (
{
hints = (
{
place = "{45.000000, 88.000000}";
},
{
place = "{392.000000, 82.000000}";
},
{
horizontal = 1;
place = "{-13.000000, 73.000000}";
},
{
horizontal = 1;
place = "{440.000000, 68.000000}";
},
{
horizontal = 1;
place = "{762.000000, -20.000000}";
target = down;
type = TopGhost;
}
);
layerId = UUID0;
name = Regular;
paths = (
{
closed = 1;
nodes = (
"505 2 LINE",
"483 39 OFFCURVE",
"474 101 OFFCURVE",
"474 143 CURVE SMOOTH",
"474 762 LINE",
"378 762 LINE",
"392 703 LINE",
"392 464 LINE",
"358 495 OFFCURVE",
"312 508 OFFCURVE",
"267 508 CURVE SMOOTH",
"117 508 OFFCURVE",
"45 380 OFFCURVE",
"45 244 CURVE SMOOTH",
"45 119 OFFCURVE",
"111 -13 OFFCURVE",
"251 -13 CURVE SMOOTH",
"308 -13 OFFCURVE",
"363 14 OFFCURVE",
"398 59 CURVE",
"401 36 OFFCURVE",
"407 13 OFFCURVE",
"417 -9 CURVE"
);
},
{
closed = 1;
nodes = (
"392 126 LINE",
"363 93 OFFCURVE",
"322 60 OFFCURVE",
"276 60 CURVE SMOOTH",
"170 60 OFFCURVE",
"133 159 OFFCURVE",
"133 250 CURVE SMOOTH",
"133 338 OFFCURVE",
"164 440 OFFCURVE",
"269 440 CURVE SMOOTH",
"356 440 OFFCURVE",
"392 373 OFFCURVE",
"392 294 CURVE SMOOTH"
);
}
);
width = 558;
},
{
hints = (
{
place = "{28.000000, 131.000000}";
},
{
place = "{370.000000, 120.000000}";
},
{
horizontal = 1;
place = "{-12.000000, 89.000000}";
},
{
horizontal = 1;
place = "{424.000000, 85.000000}";
},
{
horizontal = 1;
place = "{768.000000, -20.000000}";
target = down;
type = TopGhost;
}
);
layerId = "9AE9C081-2011-43F2-9F6D-8F63AE9DAFAF";
name = Bold;
paths = (
{
closed = 1;
nodes = (
"515 3 LINE",
"496 38 OFFCURVE",
"490 104 OFFCURVE",
"490 142 CURVE SMOOTH",
"490 768 LINE",
"355 768 LINE",
"370 714 LINE",
"370 538 LINE SMOOTH",
"370 507 OFFCURVE",
"370 504 OFFCURVE",
"371 477 CURVE",
"344 499 OFFCURVE",
"295 509 OFFCURVE",
"260 509 CURVE SMOOTH",
"106 509 OFFCURVE",
"28 389 OFFCURVE",
"28 245 CURVE SMOOTH",
"28 117 OFFCURVE",
"99 -12 OFFCURVE",
"241 -12 CURVE SMOOTH",
"289 -12 OFFCURVE",
"351 10 OFFCURVE",
"379 51 CURVE",
"383 29 OFFCURVE",
"387 10 OFFCURVE",
"394 -9 CURVE"
);
},
{
closed = 1;
nodes = (
"370 129 LINE",
"350 99 OFFCURVE",
"311 77 OFFCURVE",
"275 77 CURVE SMOOTH",
"186 77 OFFCURVE",
"159 178 OFFCURVE",
"159 250 CURVE SMOOTH",
"159 319 OFFCURVE",
"183 424 OFFCURVE",
"271 424 CURVE SMOOTH",
"347 424 OFFCURVE",
"370 358 OFFCURVE",
"370 292 CURVE SMOOTH"
);
}
);
width = 558;
}
);
leftKerningGroup = c;
rightKerningGroup = l;
unicode = 0064;
},
{
glyphname = eth;
lastChange = "2015-02-06 22:44:54 +0000";
layers = (
{
layerId = UUID0;
name = Regular;
paths = (
{
closed = 1;
nodes = (
"400 729 LINE",
"372 771 LINE",
"265 712 LINE",
"243 737 OFFCURVE",
"221 757 OFFCURVE",
"205 772 CURVE",
"150 739 LINE",
"167 723 OFFCURVE",
"187 703 OFFCURVE",
"207 680 CURVE",
"103 622 LINE",
"134 582 LINE",
"239 640 LINE",
"273 597 OFFCURVE",
"307 546 OFFCURVE",
"335 492 CURVE",
"315 500 OFFCURVE",
"293 505 OFFCURVE",
"268 505 CURVE",
"126 505 OFFCURVE",
"45 384 OFFCURVE",
"45 247 CURVE",
"45 110 OFFCURVE",
"125 -10 OFFCURVE",
"268 -10 CURVE",
"411 -10 OFFCURVE",
"491 110 OFFCURVE",
"491 247 CURVE",
"491 406 OFFCURVE",
"390 564 OFFCURVE",
"299 673 CURVE"
);
},
{
closed = 1;
nodes = (
"403 166 OFFCURVE",
"373 50 OFFCURVE",
"268 50 CURVE",
"164 50 OFFCURVE",
"133 167 OFFCURVE",
"133 247 CURVE",
"133 326 OFFCURVE",
"164 445 OFFCURVE",
"268 445 CURVE",
"373 445 OFFCURVE",
"403 328 OFFCURVE",
"403 247 CURVE"
);
}
);
width = 536;
},
{
hints = (
{
place = "{26.000000, 132.000000}";
},
{
place = "{378.000000, 132.000000}";
},
{
horizontal = 1;
place = "{-11.000000, 83.000000}";
},
{
horizontal = 1;
place = "{428.000000, 82.000000}";
},
{
horizontal = 1;
place = "{783.000000, -20.000000}";
target = down;
type = TopGhost;
}
);
layerId = "9AE9C081-2011-43F2-9F6D-8F63AE9DAFAF";
name = Bold;
paths = (
{
closed = 1;
nodes = (
"414 723 LINE",
"374 783 LINE",
"274 728 LINE",
"254 748 OFFCURVE",
"235 767 OFFCURVE",
"218 783 CURVE",
"130 731 LINE",
"146 715 OFFCURVE",
"164 697 OFFCURVE",
"182 677 CURVE",
"90 626 LINE",
"135 568 LINE",
"228 619 LINE",
"254 585 OFFCURVE",
"278 547 OFFCURVE",
"300 508 CURVE",
"290 509 OFFCURVE",
"279 510 OFFCURVE",
"268 510 CURVE SMOOTH",
"119 510 OFFCURVE",
"26 392 OFFCURVE",
"26 249 CURVE SMOOTH",
"26 105 OFFCURVE",
"117 -11 OFFCURVE",
"268 -11 CURVE SMOOTH",
"419 -11 OFFCURVE",
"510 105 OFFCURVE",
"510 249 CURVE SMOOTH",
"510 406 OFFCURVE",
"416 560 OFFCURVE",
"323 672 CURVE"
);
},
{
closed = 1;
nodes = (
"177 72 OFFCURVE",
"158 178 OFFCURVE",
"158 248 CURVE SMOOTH",
"158 318 OFFCURVE",
"177 428 OFFCURVE",
"268 428 CURVE SMOOTH",
"362 428 OFFCURVE",
"378 321 OFFCURVE",
"378 248 CURVE SMOOTH",
"378 175 OFFCURVE",
"362 72 OFFCURVE",
"268 72 CURVE SMOOTH"
);
}
);
width = 536;
}
);
unicode = 00F0;
},
{
glyphname = e;
lastChange = "2015-02-06 22:44:54 +0000";
layers = (
{
hints = (
{
place = "{44.000000, 88.000000}";
},
{
place = "{364.000000, 89.000000}";
},
{
horizontal = 1;
place = "{-13.000000, 70.000000}";
},
{
horizontal = 1;
place = "{256.000000, 62.000000}";
},
{
horizontal = 1;
place = "{446.000000, 63.000000}";
}
);
layerId = UUID0;
name = Regular;
paths = (
{
closed = 1;
nodes = (
"406 103 LINE",
"373 75 OFFCURVE",
"320 57 OFFCURVE",
"277 57 CURVE SMOOTH",
"179 57 OFFCURVE",
"132 161 OFFCURVE",
"132 246 CURVE SMOOTH",
"132 256 LINE",
"402 256 LINE SMOOTH",
"442 256 OFFCURVE",
"453 285 OFFCURVE",
"453 320 CURVE SMOOTH",
"453 436 OFFCURVE",
"375 509 OFFCURVE",
"260 509 CURVE SMOOTH",
"114 509 OFFCURVE",
"44 373 OFFCURVE",
"44 243 CURVE SMOOTH",
"44 101 OFFCURVE",
"126 -13 OFFCURVE",
"275 -13 CURVE SMOOTH",
"335 -13 OFFCURVE",
"396 5 OFFCURVE",
"443 43 CURVE"
);
},
{
closed = 1;
nodes = (
"138 318 LINE",
"149 380 OFFCURVE",
"200 446 OFFCURVE",
"268 446 CURVE SMOOTH",
"329 446 OFFCURVE",
"364 396 OFFCURVE",
"364 339 CURVE SMOOTH",
"364 324 OFFCURVE",
"363 318 OFFCURVE",
"347 318 CURVE SMOOTH"
);
}
);
width = 494;
},
{
hints = (
{
place = "{26.000000, 127.000000}";
},
{
place = "{341.000000, 125.000000}";
},
{
horizontal = 1;
place = "{-11.000000, 80.000000}";
},
{
horizontal = 1;
place = "{234.000000, 79.000000}";
},
{
horizontal = 1;
place = "{429.000000, 82.000000}";
}
);
layerId = "9AE9C081-2011-43F2-9F6D-8F63AE9DAFAF";
name = Bold;
paths = (
{
closed = 1;
nodes = (
"466 424 OFFCURVE",
"392 511 OFFCURVE",
"259 511 CURVE SMOOTH",
"109 511 OFFCURVE",
"26 385 OFFCURVE",
"26 245 CURVE SMOOTH",
"26 91 OFFCURVE",
"120 -11 OFFCURVE",
"276 -11 CURVE SMOOTH",
"331 -11 OFFCURVE",
"409 5 OFFCURVE",
"454 42 CURVE",
"403 122 LINE",
"373 92 OFFCURVE",
"324 69 OFFCURVE",
"282 69 CURVE SMOOTH",
"194 69 OFFCURVE",
"153 158 OFFCURVE",
"153 234 CURVE",
"415 234 LINE SMOOTH",
"455 234 OFFCURVE",
"466 259 OFFCURVE",
"466 294 CURVE SMOOTH"
);
},
{
closed = 1;
nodes = (
"341 322 OFFCURVE",
"339 313 OFFCURVE",
"324 313 CURVE SMOOTH",
"156 313 LINE",
"159 365 OFFCURVE",
"204 429 OFFCURVE",
"260 429 CURVE SMOOTH",
"315 429 OFFCURVE",
"341 386 OFFCURVE",
"341 335 CURVE SMOOTH"
);
}
);
width = 494;
}
);
leftKerningGroup = c;
unicode = 0065;
},
{
glyphname = eacute;
lastChange = "2015-02-06 22:44:54 +0000";
layers = (
{
components = (
{
name = e;
transform = "{1, 0, 0, 1, 0, 0}";
},
{
name = acute;
transform = "{1, 0, 0, 1, 188, 5}";
}
);
layerId = UUID0;
name = Regular;
width = 494;
},
{
hints = (
{
place = "{26.000000, 127.000000}";
},
{
place = "{341.000000, 125.000000}";
},
{
horizontal = 1;
place = "{-11.000000, 80.000000}";
},
{
horizontal = 1;
place = "{234.000000, 79.000000}";
},
{
horizontal = 1;
place = "{429.000000, 82.000000}";
},
{
horizontal = 1;
place = "{755.000000, -20.000000}";
target = down;
type = TopGhost;
}
);
layerId = "9AE9C081-2011-43F2-9F6D-8F63AE9DAFAF";
name = Bold;
paths = (
{
closed = 1;
nodes = (
"466 424 OFFCURVE",
"392 511 OFFCURVE",
"259 511 CURVE SMOOTH",
"109 511 OFFCURVE",
"26 385 OFFCURVE",
"26 245 CURVE SMOOTH",
"26 91 OFFCURVE",
"120 -11 OFFCURVE",
"276 -11 CURVE SMOOTH",
"331 -11 OFFCURVE",
"409 5 OFFCURVE",
"454 42 CURVE",
"403 122 LINE",
"373 92 OFFCURVE",
"324 69 OFFCURVE",
"282 69 CURVE SMOOTH",
"194 69 OFFCURVE",
"153 158 OFFCURVE",
"153 234 CURVE",
"415 234 LINE SMOOTH",
"455 234 OFFCURVE",
"466 259 OFFCURVE",
"466 294 CURVE SMOOTH"
);
},
{
closed = 1;
nodes = (
"341 322 OFFCURVE",
"339 313 OFFCURVE",
"324 313 CURVE SMOOTH",
"156 313 LINE",
"159 365 OFFCURVE",
"204 429 OFFCURVE",
"260 429 CURVE SMOOTH",
"315 429 OFFCURVE",
"341 386 OFFCURVE",
"341 335 CURVE SMOOTH"
);
},
{
closed = 1;
nodes = (
"473 755 LINE",
"328 755 LINE",
"219 590 LINE",
"322 590 LINE"
);
}
);
width = 494;
}
);
leftKerningGroup = c;
unicode = 00E9;
},
{
glyphname = ecircumflex;
lastChange = "2015-02-06 22:44:54 +0000";
layers = (
{
components = (
{
name = e;
transform = "{1, 0, 0, 1, 0, 0}";
},
{
name = circumflex;
transform = "{1, 0, 0, 1, 123, 8}";
}
);
layerId = UUID0;
name = Regular;
width = 494;
},
{
hints = (
{
place = "{26.000000, 127.000000}";
},
{
place = "{341.000000, 125.000000}";
},
{
horizontal = 1;
place = "{-11.000000, 80.000000}";
},
{
horizontal = 1;
place = "{234.000000, 79.000000}";
},
{
horizontal = 1;
place = "{429.000000, 82.000000}";
},
{
horizontal = 1;
place = "{733.000000, -20.000000}";
target = down;
type = TopGhost;
}
);
layerId = "9AE9C081-2011-43F2-9F6D-8F63AE9DAFAF";
name = Bold;
paths = (
{
closed = 1;
nodes = (
"466 424 OFFCURVE",
"392 511 OFFCURVE",
"259 511 CURVE SMOOTH",
"109 511 OFFCURVE",
"26 385 OFFCURVE",
"26 245 CURVE SMOOTH",
"26 91 OFFCURVE",
"120 -11 OFFCURVE",
"276 -11 CURVE SMOOTH",
"331 -11 OFFCURVE",
"409 5 OFFCURVE",
"454 42 CURVE",
"403 122 LINE",
"373 92 OFFCURVE",
"324 69 OFFCURVE",
"282 69 CURVE SMOOTH",
"194 69 OFFCURVE",
"153 158 OFFCURVE",
"153 234 CURVE",
"415 234 LINE SMOOTH",
"455 234 OFFCURVE",
"466 259 OFFCURVE",
"466 294 CURVE SMOOTH"
);
},
{
closed = 1;
nodes = (
"341 322 OFFCURVE",
"339 313 OFFCURVE",
"324 313 CURVE SMOOTH",
"156 313 LINE",
"159 365 OFFCURVE",
"204 429 OFFCURVE",
"260 429 CURVE SMOOTH",
"315 429 OFFCURVE",
"341 386 OFFCURVE",
"341 335 CURVE SMOOTH"
);
},
{
closed = 1;
nodes = (
"419 588 LINE",
"320 733 LINE",
"222 733 LINE",
"126 589 LINE",
"202 589 LINE",
"271 662 LINE",
"341 588 LINE"
);
}
);
width = 494;
}
);
leftKerningGroup = c;
unicode = 00EA;
},
{
glyphname = edieresis;
lastChange = "2015-02-06 22:44:54 +0000";
layers = (
{
components = (
{
name = e;
transform = "{1, 0, 0, 1, 0, 0}";
},
{
name = dieresis;
transform = "{1, 0, 0, 1, 128, 0}";
}
);
layerId = UUID0;
name = Regular;
width = 494;
},
{
hints = (
{
place = "{26.000000, 127.000000}";
},
{
place = "{128.000000, 114.000000}";
},
{
place = "{288.000000, 115.000000}";
},
{
place = "{341.000000, 125.000000}";
},
{
horizontal = 1;
place = "{-11.000000, 80.000000}";
},
{
horizontal = 1;
place = "{234.000000, 79.000000}";
},
{
horizontal = 1;
place = "{429.000000, 82.000000}";
},
{
horizontal = 1;
place = "{572.000000, 114.000000}";
}
);
layerId = "9AE9C081-2011-43F2-9F6D-8F63AE9DAFAF";
name = Bold;
paths = (
{
closed = 1;
nodes = (
"466 424 OFFCURVE",
"392 511 OFFCURVE",
"259 511 CURVE SMOOTH",
"109 511 OFFCURVE",
"26 385 OFFCURVE",
"26 245 CURVE SMOOTH",
"26 91 OFFCURVE",
"120 -11 OFFCURVE",
"276 -11 CURVE SMOOTH",
"331 -11 OFFCURVE",
"409 5 OFFCURVE",
"454 42 CURVE",
"403 122 LINE",
"373 92 OFFCURVE",
"324 69 OFFCURVE",
"282 69 CURVE SMOOTH",
"194 69 OFFCURVE",
"153 158 OFFCURVE",
"153 234 CURVE",
"415 234 LINE SMOOTH",
"455 234 OFFCURVE",
"466 259 OFFCURVE",
"466 294 CURVE SMOOTH"
);
},
{
closed = 1;
nodes = (
"341 322 OFFCURVE",
"339 313 OFFCURVE",
"324 313 CURVE SMOOTH",
"156 313 LINE",
"159 365 OFFCURVE",
"204 429 OFFCURVE",
"260 429 CURVE SMOOTH",
"315 429 OFFCURVE",
"341 386 OFFCURVE",
"341 335 CURVE SMOOTH"
);
},
{
closed = 1;
nodes = (
"403 661 OFFCURVE",
"377 686 OFFCURVE",
"345 686 CURVE SMOOTH",
"314 686 OFFCURVE",
"288 660 OFFCURVE",
"288 629 CURVE SMOOTH",
"288 598 OFFCURVE",
"314 572 OFFCURVE",
"345 572 CURVE SMOOTH",
"377 572 OFFCURVE",
"403 597 OFFCURVE",
"403 629 CURVE SMOOTH"
);
},
{
closed = 1;
nodes = (
"242 661 OFFCURVE",
"217 686 OFFCURVE",
"185 686 CURVE SMOOTH",
"154 686 OFFCURVE",
"128 661 OFFCURVE",
"128 629 CURVE SMOOTH",
"128 597 OFFCURVE",
"154 572 OFFCURVE",
"185 572 CURVE SMOOTH",
"217 572 OFFCURVE",
"242 597 OFFCURVE",
"242 629 CURVE SMOOTH"
);
}
);
width = 494;
}
);
leftKerningGroup = c;
unicode = 00EB;
},
{
glyphname = egrave;
lastChange = "2015-02-06 22:44:54 +0000";
layers = (
{
components = (
{
name = e;
transform = "{1, 0, 0, 1, 0, 0}";
},
{
name = grave;
transform = "{1, 0, 0, 1, 60, 0}";
}
);
layerId = UUID0;
name = Regular;
width = 494;
},
{
hints = (
{
place = "{26.000000, 127.000000}";
},
{
place = "{341.000000, 125.000000}";
},
{
horizontal = 1;
place = "{-11.000000, 80.000000}";
},
{
horizontal = 1;
place = "{234.000000, 79.000000}";
},
{
horizontal = 1;
place = "{429.000000, 82.000000}";
},
{
horizontal = 1;
place = "{755.000000, -20.000000}";
target = down;
type = TopGhost;
}
);
layerId = "9AE9C081-2011-43F2-9F6D-8F63AE9DAFAF";
name = Bold;
paths = (
{
closed = 1;
nodes = (
"466 424 OFFCURVE",
"392 511 OFFCURVE",
"259 511 CURVE SMOOTH",
"109 511 OFFCURVE",
"26 385 OFFCURVE",
"26 245 CURVE SMOOTH",
"26 91 OFFCURVE",
"120 -11 OFFCURVE",
"276 -11 CURVE SMOOTH",
"331 -11 OFFCURVE",
"409 5 OFFCURVE",
"454 42 CURVE",
"403 122 LINE",
"373 92 OFFCURVE",
"324 69 OFFCURVE",
"282 69 CURVE SMOOTH",
"194 69 OFFCURVE",
"153 158 OFFCURVE",
"153 234 CURVE",
"415 234 LINE SMOOTH",
"455 234 OFFCURVE",
"466 259 OFFCURVE",
"466 294 CURVE SMOOTH"
);
},
{
closed = 1;
nodes = (
"341 322 OFFCURVE",
"339 313 OFFCURVE",
"324 313 CURVE SMOOTH",
"156 313 LINE",
"159 365 OFFCURVE",
"204 429 OFFCURVE",
"260 429 CURVE SMOOTH",
"315 429 OFFCURVE",
"341 386 OFFCURVE",
"341 335 CURVE SMOOTH"
);
},
{
closed = 1;
nodes = (
"320 590 LINE",
"211 755 LINE",
"65 755 LINE",
"216 590 LINE"
);
}
);
width = 494;
}
);
leftKerningGroup = c;
unicode = 00E8;
},
{
glyphname = f;
lastChange = "2015-02-06 23:57:24 +0000";
layers = (
{
hints = (
{
place = "{95.000000, 82.000000}";
},
{
horizontal = 1;
place = "{0.000000, 20.000000}";
},
{
horizontal = 1;
place = "{708.000000, 62.000000}";
},
{
horizontal = 1;
origin = "{0, 3}";
target = "{0, 2}";
}
);
layerId = UUID0;
name = Regular;
paths = (
{
closed = 1;
nodes = (
"177 0 LINE",
"177 435 LINE",
"302 435 LINE",
"320 497 LINE",
"177 497 LINE",
"177 585 OFFCURVE",
"188 708 OFFCURVE",
"305 708 CURVE SMOOTH",
"329 708 OFFCURVE",
"359 699 OFFCURVE",
"377 683 CURVE",
"400 745 LINE",
"368 763 OFFCURVE",
"340 770 OFFCURVE",
"303 770 CURVE SMOOTH",
"192 770 OFFCURVE",
"127 693 OFFCURVE",
"108 590 CURVE SMOOTH",
"104 566 OFFCURVE",
"102 551 OFFCURVE",
"97 527 CURVE SMOOTH",
"89 488 OFFCURVE",
"52 490 OFFCURVE",
"20 487 CURVE",
"20 435 LINE",
"95 435 LINE",
"95 0 LINE"
);
}
);
width = 288;
},
{
hints = (
{
place = "{85.000000, 120.000000}";
},
{
horizontal = 1;
place = "{417.000000, 80.000000}";
},
{
horizontal = 1;
place = "{694.000000, 82.000000}";
},
{
horizontal = 1;
place = "{-1.000000, 21.000000}";
target = up;
type = BottomGhost;
}
);
layerId = "9AE9C081-2011-43F2-9F6D-8F63AE9DAFAF";
name = Bold;
paths = (
{
closed = 1;
nodes = (
"408 753 LINE",
"382 769 OFFCURVE",
"339 776 OFFCURVE",
"309 776 CURVE SMOOTH",
"262 776 OFFCURVE",
"208 762 OFFCURVE",
"172 730 CURVE SMOOTH",
"103 666 OFFCURVE",
"105 616 OFFCURVE",
"87 532 CURVE SMOOTH",
"78 490 OFFCURVE",
"31 488 OFFCURVE",
"3 488 CURVE",
"3 417 LINE",
"85 417 LINE",
"85 -1 LINE",
"205 -1 LINE",
"205 417 LINE",
"304 417 LINE",
"327 497 LINE",
"205 497 LINE",
"205 511 LINE SMOOTH",
"205 587 OFFCURVE",
"212 694 OFFCURVE",
"314 694 CURVE SMOOTH",
"334 694 OFFCURVE",
"359 684 OFFCURVE",
"376 672 CURVE"
);
}
);
width = 288;
}
);
leftKerningGroup = f;
rightKerningGroup = f;
unicode = 0066;
},
{
glyphname = g;
lastChange = "2015-02-06 22:44:54 +0000";
layers = (
{
hints = (
{
place = "{457.000000, -77.000000}";
},
{
place = "{143.000000, -91.000000}";
},
{
horizontal = 1;
place = "{509.000000, -60.000000}";
},
{
horizontal = 1;
place = "{224.000000, -56.000000}";
},
{
horizontal = 1;
place = "{79.000000, -79.000000}";
},
{
horizontal = 1;
place = "{-162.000000, -68.000000}";
}
);
layerId = UUID0;
name = Regular;
paths = (
{
closed = 1;
nodes = (
"471 438 LINE",
"489 510 LINE",
"431 502 OFFCURVE",
"381 495 OFFCURVE",
"330 495 CURVE SMOOTH",
"293 495 OFFCURVE",
"258 509 OFFCURVE",
"220 509 CURVE SMOOTH",
"125 509 OFFCURVE",
"44 433 OFFCURVE",
"44 336 CURVE SMOOTH",
"44 279 OFFCURVE",
"74 226 OFFCURVE",
"121 194 CURVE",
"105 164 OFFCURVE",
"86 138 OFFCURVE",
"64 108 CURVE SMOOTH",
"60 102 OFFCURVE",
"52 95 OFFCURVE",
"52 87 CURVE SMOOTH",
"52 56 OFFCURVE",
"70 28 OFFCURVE",
"98 14 CURVE",
"59 -13 OFFCURVE",
"21 -53 OFFCURVE",
"21 -104 CURVE SMOOTH",
"21 -199 OFFCURVE",
"126 -230 OFFCURVE",
"200 -230 CURVE SMOOTH",
"326 -230 OFFCURVE",
"457 -174 OFFCURVE",
"457 -26 CURVE SMOOTH",
"457 66 OFFCURVE",
"370 79 OFFCURVE",
"301 79 CURVE SMOOTH",
"270 79 OFFCURVE",
"236 76 OFFCURVE",
"204 76 CURVE SMOOTH",
"176 76 OFFCURVE",
"143 76 OFFCURVE",
"143 113 CURVE SMOOTH",
"143 133 OFFCURVE",
"163 168 OFFCURVE",
"183 168 CURVE SMOOTH",
"195 168 OFFCURVE",
"207 164 OFFCURVE",
"221 164 CURVE SMOOTH",
"316 164 OFFCURVE",
"397 240 OFFCURVE",
"397 337 CURVE SMOOTH",
"397 372 OFFCURVE",
"386 409 OFFCURVE",
"364 438 CURVE"
);
},
{
closed = 1;
nodes = (
"172 224 OFFCURVE",
"131 273 OFFCURVE",
"131 337 CURVE SMOOTH",
"131 400 OFFCURVE",
"172 449 OFFCURVE",
"221 449 CURVE SMOOTH",
"269 449 OFFCURVE",
"310 400 OFFCURVE",
"310 336 CURVE SMOOTH",
"310 273 OFFCURVE",
"269 224 OFFCURVE",
"220 224 CURVE SMOOTH"
);
},
{
closed = 1;
nodes = (
"198 -1 OFFCURVE",
"238 0 OFFCURVE",
"278 0 CURVE SMOOTH",
"323 0 OFFCURVE",
"380 -3 OFFCURVE",
"380 -55 CURVE SMOOTH",
"380 -136 OFFCURVE",
"285 -162 OFFCURVE",
"215 -162 CURVE SMOOTH",
"170 -162 OFFCURVE",
"107 -136 OFFCURVE",
"107 -87 CURVE SMOOTH",
"107 -56 OFFCURVE",
"132 -22 OFFCURVE",
"158 -3 CURVE"
);
}
);
width = 477;
},
{
background = {
paths = (
{
closed = 1;
nodes = (
"503 508 LINE",
"445 503 OFFCURVE",
"384 497 OFFCURVE",
"325 497 CURVE SMOOTH",
"289 497 OFFCURVE",
"254 511 OFFCURVE",
"218 511 CURVE SMOOTH",
"122 511 OFFCURVE",
"29 441 OFFCURVE",
"29 340 CURVE SMOOTH",
"29 275 OFFCURVE",
"64 225 OFFCURVE",
"119 194 CURVE",
"107 178 OFFCURVE",
"73 134 OFFCURVE",
"61 119 CURVE SMOOTH",
"56 112 OFFCURVE",
"42 104 OFFCURVE",
"42 95 CURVE SMOOTH",
"42 64 OFFCURVE",
"65 33 OFFCURVE",
"94 25 CURVE",
"41 2 OFFCURVE",
"0 -46 OFFCURVE",
"0 -105 CURVE SMOOTH",
"0 -208 OFFCURVE",
"120 -230 OFFCURVE",
"200 -230 CURVE SMOOTH",
"324 -230 OFFCURVE",
"473 -167 OFFCURVE",
"473 -23 CURVE SMOOTH",
"473 84 OFFCURVE",
"377 91 OFFCURVE",
"294 91 CURVE SMOOTH",
"267 91 OFFCURVE",
"166 80 OFFCURVE",
"166 123 CURVE SMOOTH",
"166 149 OFFCURVE",
"189 167 OFFCURVE",
"213 168 CURVE SMOOTH",
"317 174 OFFCURVE",
"406 226 OFFCURVE",
"406 341 CURVE SMOOTH",
"406 375 OFFCURVE",
"394 403 OFFCURVE",
"373 430 CURVE",
"380 428 OFFCURVE",
"389 425 OFFCURVE",
"396 425 CURVE SMOOTH",
"481 425 LINE"
);
},
{
closed = 1;
nodes = (
"281 298 OFFCURVE",
"268 238 OFFCURVE",
"220 238 CURVE SMOOTH",
"169 238 OFFCURVE",
"154 297 OFFCURVE",
"154 339 CURVE SMOOTH",
"154 374 OFFCURVE",
"169 437 OFFCURVE",
"214 437 CURVE SMOOTH",
"266 437 OFFCURVE",
"281 377 OFFCURVE",
"281 335 CURVE SMOOTH"
);
},
{
closed = 1;
nodes = (
"359 -128 OFFCURVE",
"277 -144 OFFCURVE",
"215 -144 CURVE SMOOTH",
"177 -144 OFFCURVE",
"122 -129 OFFCURVE",
"122 -82 CURVE SMOOTH",
"122 -50 OFFCURVE",
"144 -15 OFFCURVE",
"171 0 CURVE",
"179 0 OFFCURVE",
"188 -1 OFFCURVE",
"196 -1 CURVE SMOOTH",
"217 -1 OFFCURVE",
"237 -1 OFFCURVE",
"258 -1 CURVE SMOOTH",
"293 -1 OFFCURVE",
"359 0 OFFCURVE",
"359 -50 CURVE SMOOTH"
);
}
);
};
hints = (
{
place = "{0.000000, 122.000000}";
},
{
place = "{29.000000, 125.000000}";
},
{
place = "{42.000000, 124.000000}";
},
{
place = "{281.000000, 124.000000}";
},
{
place = "{359.000000, 114.000000}";
},
{
horizontal = 1;
place = "{-230.000000, 86.000000}";
},
{
horizontal = 1;
place = "{0.000000, 91.000000}";
},
{
horizontal = 1;
place = "{168.000000, 70.000000}";
},
{
horizontal = 1;
place = "{425.000000, 72.000000}";
},
{
horizontal = 1;
place = "{437.000000, 60.000000}";
},
{
horizontal = 1;
place = "{437.000000, 75.000000}";
}
);
layerId = "9AE9C081-2011-43F2-9F6D-8F63AE9DAFAF";
name = Bold;
paths = (
{
closed = 1;
nodes = (
"248 91 LINE SMOOTH",
"210 91 OFFCURVE",
"166 94 OFFCURVE",
"166 123 CURVE SMOOTH",
"166 149 OFFCURVE",
"189 168 OFFCURVE",
"213 168 CURVE SMOOTH",
"315 168 OFFCURVE",
"405 236 OFFCURVE",
"405 341 CURVE SMOOTH",
"405 375 OFFCURVE",
"394 403 OFFCURVE",
"373 430 CURVE",
"380 428 OFFCURVE",
"389 425 OFFCURVE",
"396 425 CURVE SMOOTH",
"481 425 LINE",
"503 508 LINE",
"445 503 OFFCURVE",
"384 497 OFFCURVE",
"325 497 CURVE SMOOTH",
"289 497 OFFCURVE",
"260 512 OFFCURVE",
"218 512 CURVE SMOOTH",
"117 512 OFFCURVE",
"29 444 OFFCURVE",
"29 340 CURVE SMOOTH",
"29 275 OFFCURVE",
"63 224 OFFCURVE",
"118 193 CURVE",
"80 129 OFFCURVE",
"42 114 OFFCURVE",
"42 95 CURVE SMOOTH",
"42 64 OFFCURVE",
"65 33 OFFCURVE",
"88 27 CURVE",
"88 23 LINE",
"41 2 OFFCURVE",
"0 -46 OFFCURVE",
"0 -105 CURVE SMOOTH",
"0 -208 OFFCURVE",
"120 -230 OFFCURVE",
"200 -230 CURVE SMOOTH",
"324 -230 OFFCURVE",
"473 -167 OFFCURVE",
"473 -23 CURVE SMOOTH",
"473 84 OFFCURVE",
"377 91 OFFCURVE",
"294 91 CURVE SMOOTH"
);
},
{
closed = 1;
nodes = (
"262 0 LINE SMOOTH",
"298 0 OFFCURVE",
"359 -2 OFFCURVE",
"359 -50 CURVE SMOOTH",
"359 -128 OFFCURVE",
"277 -144 OFFCURVE",
"215 -144 CURVE SMOOTH",
"177 -144 OFFCURVE",
"122 -129 OFFCURVE",
"122 -82 CURVE SMOOTH",
"122 -50 OFFCURVE",
"144 -15 OFFCURVE",
"171 0 CURVE"
);
},
{
closed = 1;
nodes = (
"177 238 OFFCURVE",
"154 282 OFFCURVE",
"154 337 CURVE SMOOTH",
"154 392 OFFCURVE",
"177 437 OFFCURVE",
"217 437 CURVE SMOOTH",
"257 437 OFFCURVE",
"281 392 OFFCURVE",
"281 337 CURVE SMOOTH",
"281 282 OFFCURVE",
"257 238 OFFCURVE",
"217 238 CURVE SMOOTH"
);
}
);
width = 477;
}
);
leftKerningGroup = g;
unicode = 0067;
},
{
glyphname = h;
lastChange = "2015-02-06 22:44:54 +0000";
layers = (
{
hints = (
{
place = "{82.000000, 82.000000}";
},
{
place = "{384.000000, 82.000000}";
},
{
horizontal = 1;
place = "{0.000000, 20.000000}";
},
{
horizontal = 1;
place = "{436.000000, 74.000000}";
},
{
horizontal = 1;
place = "{762.000000, -20.000000}";
target = down;
type = TopGhost;
}
);
layerId = UUID0;
name = Regular;
paths = (
{
closed = 1;
nodes = (
"466 0 LINE",
"466 333 LINE SMOOTH",
"466 436 OFFCURVE",
"425 510 OFFCURVE",
"315 510 CURVE SMOOTH",
"255 510 OFFCURVE",
"206 478 OFFCURVE",
"164 438 CURVE",
"164 762 LINE",
"69 762 LINE",
"70 757 OFFCURVE",
"82 705 OFFCURVE",
"82 703 CURVE SMOOTH",
"82 0 LINE",
"164 0 LINE",
"164 370 LINE",
"201 401 OFFCURVE",
"251 436 OFFCURVE",
"301 436 CURVE SMOOTH",
"380 436 OFFCURVE",
"384 367 OFFCURVE",
"384 306 CURVE SMOOTH",
"384 0 LINE"
);
}
);
width = 547;
},
{
hints = (
{
place = "{70.000000, 119.000000}";
},
{
place = "{360.000000, 121.000000}";
},
{
horizontal = 1;
place = "{416.000000, 95.000000}";
},
{
horizontal = 1;
place = "{0.000000, 21.000000}";
target = up;
type = BottomGhost;
},
{
horizontal = 1;
place = "{769.000000, -20.000000}";
target = down;
type = TopGhost;
}
);
layerId = "9AE9C081-2011-43F2-9F6D-8F63AE9DAFAF";
name = Bold;
paths = (
{
closed = 1;
nodes = (
"481 0 LINE",
"481 336 LINE SMOOTH",
"481 440 OFFCURVE",
"448 511 OFFCURVE",
"333 511 CURVE SMOOTH",
"281 511 OFFCURVE",
"228 482 OFFCURVE",
"189 450 CURVE",
"189 769 LINE",
"58 769 LINE",
"70 715 LINE",
"70 0 LINE",
"189 0 LINE",
"189 361 LINE",
"210 384 OFFCURVE",
"267 416 OFFCURVE",
"297 416 CURVE SMOOTH",
"355 416 OFFCURVE",
"360 370 OFFCURVE",
"360 324 CURVE SMOOTH",
"360 0 LINE"
);
}
);
width = 547;
}
);
leftKerningGroup = b;
rightKerningGroup = n;
unicode = 0068;
},
{
glyphname = i;
lastChange = "2015-02-06 22:44:54 +0000";
layers = (
{
hints = (
{
place = "{64.000000, 121.000000}";
},
{
horizontal = 1;
place = "{0.000000, 20.000000}";
},
{
horizontal = 1;
place = "{603.000000, 122.000000}";
}
);
layerId = UUID0;
name = Regular;
paths = (
{
closed = 1;
nodes = (
"185 697 OFFCURVE",
"157 725 OFFCURVE",
"124 725 CURVE SMOOTH",
"91 725 OFFCURVE",
"64 697 OFFCURVE",
"64 664 CURVE SMOOTH",
"64 631 OFFCURVE",
"91 603 OFFCURVE",
"124 603 CURVE SMOOTH",
"158 603 OFFCURVE",
"185 630 OFFCURVE",
"185 664 CURVE SMOOTH"
);
},
{
closed = 1;
nodes = (
"167 0 LINE",
"167 497 LINE",
"72 497 LINE",
"73 491 OFFCURVE",
"84 440 OFFCURVE",
"84 438 CURVE SMOOTH",
"84 0 LINE"
);
}
);
width = 251;
},
{
hints = (
{
place = "{49.000000, 153.000000}";
},
{
place = "{65.000000, 120.000000}";
},
{
horizontal = 1;
place = "{601.000000, 153.000000}";
},
{
horizontal = 1;
place = "{0.000000, 21.000000}";
target = up;
type = BottomGhost;
},
{
horizontal = 1;
place = "{497.000000, -20.000000}";
target = down;
type = TopGhost;
}
);
layerId = "9AE9C081-2011-43F2-9F6D-8F63AE9DAFAF";
name = Bold;
paths = (
{
closed = 1;
nodes = (
"202 720 OFFCURVE",
"168 754 OFFCURVE",
"126 754 CURVE SMOOTH",
"84 754 OFFCURVE",
"49 720 OFFCURVE",
"49 678 CURVE SMOOTH",
"49 636 OFFCURVE",
"84 601 OFFCURVE",
"126 601 CURVE SMOOTH",
"168 601 OFFCURVE",
"202 636 OFFCURVE",
"202 678 CURVE SMOOTH"
);
},
{
closed = 1;
nodes = (
"185 0 LINE",
"185 497 LINE",
"54 497 LINE",
"55 492 OFFCURVE",
"65 445 OFFCURVE",
"65 443 CURVE SMOOTH",
"65 0 LINE"
);
}
);
width = 251;
}
);
leftKerningGroup = i;
rightKerningGroup = i;
unicode = 0069;
},
{
glyphname = dotlessi;
lastChange = "2015-02-06 22:44:54 +0000";
layers = (
{
hints = (
{
place = "{84.000000, 83.000000}";
},
{
horizontal = 1;
place = "{0.000000, 20.000000}";
},
{
horizontal = 1;
place = "{497.000000, -20.000000}";
target = down;
type = TopGhost;
}
);
layerId = UUID0;
name = Regular;
paths = (
{
closed = 1;
nodes = (
"167 0 LINE",
"167 497 LINE",
"72 497 LINE",
"73 491 OFFCURVE",
"84 440 OFFCURVE",
"84 438 CURVE SMOOTH",
"84 0 LINE"
);
}
);
width = 252;
},
{
hints = (
{
place = "{65.000000, 120.000000}";
},
{
horizontal = 1;
place = "{0.000000, 21.000000}";
target = up;
type = BottomGhost;
},
{
horizontal = 1;
place = "{497.000000, -20.000000}";
target = down;
type = TopGhost;
}
);
layerId = "9AE9C081-2011-43F2-9F6D-8F63AE9DAFAF";
name = Bold;
paths = (
{
closed = 1;
nodes = (
"185 0 LINE",
"185 497 LINE",
"54 497 LINE",
"55 492 OFFCURVE",
"65 445 OFFCURVE",
"65 443 CURVE SMOOTH",
"65 0 LINE"
);
}
);
width = 251;
}
);
leftKerningGroup = i;
rightKerningGroup = i;
unicode = 0131;
},
{
glyphname = igrave;
lastChange = "2015-02-06 22:44:54 +0000";
layers = (
{
components = (
{
name = dotlessi;
transform = "{1, 0, 0, 1, 0, 0}";
},
{
name = grave;
transform = "{1, 0, 0, 1, -79, 0}";
}
);
layerId = UUID0;
name = Regular;
width = 250;
},
{
hints = (
{
place = "{66.000000, 120.000000}";
},
{
horizontal = 1;
place = "{0.000000, 21.000000}";
target = up;
type = BottomGhost;
},
{
horizontal = 1;
place = "{497.000000, -20.000000}";
target = down;
type = TopGhost;
},
{
horizontal = 1;
place = "{755.000000, -20.000000}";
target = down;
type = TopGhost;
}
);
layerId = "9AE9C081-2011-43F2-9F6D-8F63AE9DAFAF";
name = Bold;
paths = (
{
closed = 1;
nodes = (
"186 0 LINE",
"186 497 LINE",
"55 497 LINE",
"56 492 OFFCURVE",
"66 445 OFFCURVE",
"66 443 CURVE SMOOTH",
"66 0 LINE"
);
},
{
closed = 1;
nodes = (
"186 590 LINE",
"77 755 LINE",
"-68 755 LINE",
"83 590 LINE"
);
}
);
width = 251;
}
);
rightKerningGroup = i;
unicode = 00EC;
},
{
glyphname = j;
lastChange = "2015-02-06 22:44:54 +0000";
layers = (
{
hints = (
{
place = "{65.000000, 122.000000}";
},
{
horizontal = 1;
place = "{603.000000, 122.000000}";
}
);
layerId = UUID0;
name = Regular;
paths = (
{
closed = 1;
nodes = (
"187 697 OFFCURVE",
"159 725 OFFCURVE",
"126 725 CURVE SMOOTH",
"93 725 OFFCURVE",
"65 697 OFFCURVE",
"65 664 CURVE SMOOTH",
"65 630 OFFCURVE",
"92 603 OFFCURVE",
"126 603 CURVE SMOOTH",
"160 603 OFFCURVE",
"187 630 OFFCURVE",
"187 664 CURVE SMOOTH"
);
},
{
closed = 1;
nodes = (
"25 -228 LINE",
"149 -211 OFFCURVE",
"167 -77 OFFCURVE",
"167 25 CURVE",
"167 497 LINE",
"71 497 LINE",
"72 492 OFFCURVE",
"84 440 OFFCURVE",
"84 438 CURVE SMOOTH",
"84 13 LINE SMOOTH",
"84 -59 OFFCURVE",
"84 -150 OFFCURVE",
"11 -188 CURVE"
);
}
);
width = 251;
},
{
hints = (
{
place = "{48.000000, 153.000000}";
},
{
place = "{65.000000, 120.000000}";
},
{
horizontal = 1;
place = "{497.000000, 104.000000}";
},
{
horizontal = 1;
place = "{601.000000, 153.000000}";
},
{
horizontal = 1;
place = "{-224.000000, 21.000000}";
target = up;
type = BottomGhost;
}
);
layerId = "9AE9C081-2011-43F2-9F6D-8F63AE9DAFAF";
name = Bold;
paths = (
{
closed = 1;
nodes = (
"201 720 OFFCURVE",
"167 754 OFFCURVE",
"125 754 CURVE SMOOTH",
"83 754 OFFCURVE",
"48 720 OFFCURVE",
"48 678 CURVE SMOOTH",
"48 636 OFFCURVE",
"83 601 OFFCURVE",
"125 601 CURVE SMOOTH",
"167 601 OFFCURVE",
"201 636 OFFCURVE",
"201 678 CURVE SMOOTH"
);
},
{
closed = 1;
nodes = (
"185 497 LINE",
"53 497 LINE",
"54 492 OFFCURVE",
"65 446 OFFCURVE",
"65 444 CURVE SMOOTH",
"65 40 LINE SMOOTH",
"65 -36 OFFCURVE",
"65 -128 OFFCURVE",
"-11 -169 CURVE",
"11 -224 LINE",
"166 -206 OFFCURVE",
"185 -63 OFFCURVE",
"185 66 CURVE"
);
}
);
width = 251;
}
);
leftKerningGroup = i;
rightKerningGroup = i;
unicode = 006A;
},
{
glyphname = k;
lastChange = "2015-02-06 22:44:54 +0000";
layers = (
{
hints = (
{
place = "{81.000000, 83.000000}";
},
{
horizontal = 1;
place = "{0.000000, 20.000000}";
},
{
horizontal = 1;
place = "{762.000000, -20.000000}";
target = down;
type = TopGhost;
}
);
layerId = UUID0;
name = Regular;
paths = (
{
closed = 1;
nodes = (
"466 0 LINE",
"248 288 LINE",
"439 497 LINE",
"350 497 LINE",
"164 292 LINE",
"164 762 LINE",
"68 762 LINE",
"69 757 OFFCURVE",
"81 705 OFFCURVE",
"81 703 CURVE SMOOTH",
"81 0 LINE",
"164 0 LINE",
"164 270 LINE",
"367 0 LINE"
);
}
);
width = 464;
},
{
hints = (
{
place = "{68.000000, 123.000000}";
},
{
horizontal = 1;
place = "{0.000000, 21.000000}";
target = up;
type = BottomGhost;
},
{
horizontal = 1;
place = "{497.000000, -20.000000}";
target = down;
type = TopGhost;
},
{
horizontal = 1;
place = "{769.000000, -20.000000}";
target = down;
type = TopGhost;
}
);
layerId = "9AE9C081-2011-43F2-9F6D-8F63AE9DAFAF";
name = Bold;
paths = (
{
closed = 1;
nodes = (
"491 0 LINE",
"301 287 LINE",
"462 497 LINE",
"345 497 LINE",
"191 292 LINE",
"191 769 LINE",
"55 769 LINE",
"68 715 LINE",
"68 0 LINE",
"191 0 LINE",
"191 255 LINE",
"356 0 LINE"
);
}
);
width = 464;
}
);
leftKerningGroup = b;
rightKerningGroup = k;
unicode = 006B;
},
{
glyphname = l;
lastChange = "2015-02-06 22:44:54 +0000";
layers = (
{
hints = (
{
place = "{84.000000, 83.000000}";
},
{
horizontal = 1;
place = "{0.000000, 20.000000}";
}
);
layerId = UUID0;
name = Regular;
paths = (
{
closed = 1;
nodes = (
"167 0 LINE",
"167 762 LINE",
"71 762 LINE",
"72 757 OFFCURVE",
"84 706 OFFCURVE",
"84 704 CURVE SMOOTH",
"84 0 LINE"
);
}
);
width = 251;
},
{
hints = (
{
place = "{63.000000, 122.000000}";
},
{
horizontal = 1;
place = "{0.000000, 21.000000}";
target = up;
type = BottomGhost;
},
{
horizontal = 1;
place = "{769.000000, -20.000000}";
target = down;
type = TopGhost;
}
);
layerId = "9AE9C081-2011-43F2-9F6D-8F63AE9DAFAF";
name = Bold;
paths = (
{
closed = 1;
nodes = (
"185 0 LINE",
"185 769 LINE",
"52 769 LINE",
"53 764 OFFCURVE",
"63 717 OFFCURVE",
"63 715 CURVE SMOOTH",
"63 0 LINE"
);
}
);
width = 251;
}
);
leftKerningGroup = b;
rightKerningGroup = l;
unicode = 006C;
},
{
glyphname = lslash;
lastChange = "2015-02-06 22:44:54 +0000";
layers = (
{
background = {
paths = (
{
closed = 1;
nodes = (
"11 265 LINE",
"82 298 LINE",
"82 0 LINE",
"165 0 LINE",
"165 337 LINE",
"236 370 LINE",
"236 439 LINE",
"165 406 LINE",
"165 761 LINE",
"69 761 LINE",
"70 756 OFFCURVE",
"82 705 OFFCURVE",
"82 703 CURVE SMOOTH",
"82 367 LINE",
"11 334 LINE"
);
}
);
};
layerId = UUID0;
name = Regular;
paths = (
{
closed = 1;
nodes = (
"165 0 LINE",
"165 337 LINE",
"236 370 LINE",
"236 439 LINE",
"165 406 LINE",
"165 761 LINE",
"69 761 LINE",
"70 756 OFFCURVE",
"82 705 OFFCURVE",
"82 703 CURVE SMOOTH",
"82 367 LINE",
"11 334 LINE",
"11 265 LINE",
"82 298 LINE",
"82 0 LINE"
);
}
);
width = 247;
},
{
hints = (
{
place = "{3.000000, 182.000000}";
},
{
place = "{63.000000, 122.000000}";
},
{
place = "{63.000000, 186.000000}";
},
{
horizontal = 1;
place = "{0.000000, 21.000000}";
target = up;
type = BottomGhost;
},
{
horizontal = 1;
place = "{768.000000, -20.000000}";
target = down;
type = TopGhost;
}
);
layerId = "9AE9C081-2011-43F2-9F6D-8F63AE9DAFAF";
name = Bold;
paths = (
{
closed = 1;
nodes = (
"185 0 LINE",
"185 330 LINE",
"249 360 LINE",
"249 458 LINE",
"185 428 LINE",
"185 768 LINE",
"52 768 LINE",
"53 763 OFFCURVE",
"62 721 OFFCURVE",
"63 715 CURVE",
"63 371 LINE",
"3 343 LINE",
"3 246 LINE",
"63 274 LINE",
"63 0 LINE"
);
}
);
width = 251;
}
);
leftKerningGroup = b;
rightKerningGroup = l;
unicode = 0142;
},
{
glyphname = m;
lastChange = "2015-02-06 22:44:54 +0000";
layers = (
{
hints = (
{
place = "{664.000000, 83.000000}";
},
{
place = "{372.000000, 83.000000}";
},
{
place = "{80.000000, 83.000000}";
},
{
horizontal = 1;
place = "{0.000000, 20.000000}";
},
{
horizontal = 1;
place = "{435.000000, 74.000000}";
}
);
layerId = UUID0;
name = Regular;
paths = (
{
closed = 1;
nodes = (
"747 0 LINE",
"747 332 LINE SMOOTH",
"747 435 OFFCURVE",
"705 509 OFFCURVE",
"595 509 CURVE SMOOTH",
"537 509 OFFCURVE",
"480 466 OFFCURVE",
"440 426 CURVE",
"412 484 OFFCURVE",
"367 509 OFFCURVE",
"303 509 CURVE SMOOTH",
"250 509 OFFCURVE",
"194 470 OFFCURVE",
"158 435 CURVE",
"155 458 OFFCURVE",
"148 483 OFFCURVE",
"139 504 CURVE",
"48 494 LINE",
"70 458 OFFCURVE",
"80 402 OFFCURVE",
"80 361 CURVE SMOOTH",
"80 0 LINE",
"163 0 LINE",
"163 369 LINE",
"194 397 OFFCURVE",
"245 435 OFFCURVE",
"289 435 CURVE SMOOTH",
"367 435 OFFCURVE",
"372 366 OFFCURVE",
"372 305 CURVE SMOOTH",
"372 0 LINE",
"455 0 LINE",
"455 332 LINE SMOOTH",
"455 344 OFFCURVE",
"454 357 OFFCURVE",
"453 367 CURVE",
"486 398 OFFCURVE",
"534 435 OFFCURVE",
"581 435 CURVE SMOOTH",
"658 435 OFFCURVE",
"664 365 OFFCURVE",
"664 305 CURVE SMOOTH",
"664 0 LINE"
);
}
);
width = 829;
},
{
hints = (
{
place = "{75.000000, 120.000000}";
},
{
place = "{359.000000, 121.000000}";
},
{
place = "{646.000000, 120.000000}";
},
{
horizontal = 1;
place = "{416.000000, 94.000000}";
},
{
horizontal = 1;
place = "{0.000000, 21.000000}";
target = up;
type = BottomGhost;
}
);
layerId = "9AE9C081-2011-43F2-9F6D-8F63AE9DAFAF";
name = Bold;
paths = (
{
closed = 1;
nodes = (
"766 0 LINE",
"766 339 LINE SMOOTH",
"766 437 OFFCURVE",
"736 510 OFFCURVE",
"626 510 CURVE SMOOTH",
"562 510 OFFCURVE",
"509 482 OFFCURVE",
"464 437 CURVE",
"442 489 OFFCURVE",
"395 510 OFFCURVE",
"340 510 CURVE SMOOTH",
"276 510 OFFCURVE",
"233 484 OFFCURVE",
"187 444 CURVE",
"184 465 OFFCURVE",
"179 488 OFFCURVE",
"170 508 CURVE",
"44 493 LINE",
"68 464 OFFCURVE",
"75 391 OFFCURVE",
"75 356 CURVE SMOOTH",
"75 0 LINE",
"195 0 LINE",
"195 361 LINE",
"219 387 OFFCURVE",
"261 416 OFFCURVE",
"296 416 CURVE SMOOTH",
"347 416 OFFCURVE",
"359 378 OFFCURVE",
"359 335 CURVE SMOOTH",
"359 0 LINE",
"480 0 LINE",
"480 362 LINE",
"503 385 OFFCURVE",
"547 416 OFFCURVE",
"580 416 CURVE SMOOTH",
"635 416 OFFCURVE",
"646 381 OFFCURVE",
"646 332 CURVE SMOOTH",
"646 0 LINE"
);
}
);
width = 829;
}
);
leftKerningGroup = n;
rightKerningGroup = n;
unicode = 006D;
},
{
glyphname = n;
lastChange = "2015-02-06 22:44:54 +0000";
layers = (
{
hints = (
{
place = "{80.000000, 82.000000}";
},
{
place = "{382.000000, 82.000000}";
},
{
horizontal = 1;
place = "{0.000000, 20.000000}";
},
{
horizontal = 1;
place = "{435.000000, 74.000000}";
}
);
layerId = UUID0;
name = Regular;
paths = (
{
closed = 1;
nodes = (
"464 0 LINE",
"464 332 LINE SMOOTH",
"464 435 OFFCURVE",
"422 509 OFFCURVE",
"312 509 CURVE SMOOTH",
"254 509 OFFCURVE",
"197 474 OFFCURVE",
"157 434 CURVE",
"154 458 OFFCURVE",
"147 482 OFFCURVE",
"138 505 CURVE",
"47 493 LINE",
"72 459 OFFCURVE",
"80 392 OFFCURVE",
"80 352 CURVE SMOOTH",
"80 0 LINE",
"162 0 LINE",
"162 369 LINE",
"197 402 OFFCURVE",
"249 435 OFFCURVE",
"298 435 CURVE SMOOTH",
"378 435 OFFCURVE",
"382 367 OFFCURVE",
"382 305 CURVE SMOOTH",
"382 0 LINE"
);
}
);
width = 547;
},
{
hints = (
{
place = "{74.000000, 120.000000}";
},
{
place = "{365.000000, 121.000000}";
},
{
horizontal = 1;
place = "{416.000000, 95.000000}";
},
{
horizontal = 1;
place = "{0.000000, 21.000000}";
target = up;
type = BottomGhost;
}
);
layerId = "9AE9C081-2011-43F2-9F6D-8F63AE9DAFAF";
name = Bold;
paths = (
{
closed = 1;
nodes = (
"486 0 LINE",
"486 336 LINE SMOOTH",
"486 440 OFFCURVE",
"453 511 OFFCURVE",
"338 511 CURVE SMOOTH",
"283 511 OFFCURVE",
"226 480 OFFCURVE",
"186 444 CURVE",
"183 465 OFFCURVE",
"178 488 OFFCURVE",
"169 508 CURVE",
"43 493 LINE",
"67 464 OFFCURVE",
"74 391 OFFCURVE",
"74 356 CURVE SMOOTH",
"74 0 LINE",
"194 0 LINE",
"194 361 LINE",
"215 384 OFFCURVE",
"272 416 OFFCURVE",
"302 416 CURVE SMOOTH",
"360 416 OFFCURVE",
"365 370 OFFCURVE",
"365 324 CURVE SMOOTH",
"365 0 LINE"
);
}
);
width = 547;
}
);
leftKerningGroup = n;
rightKerningGroup = n;
unicode = 006E;
},
{
glyphname = ntilde;
lastChange = "2015-02-06 22:44:54 +0000";
layers = (
{
hints = (
{
horizontal = 1;
place = "{0.000000, 20.000000}";
},
{
horizontal = 1;
place = "{573.000000, 99.000000}";
}
);
layerId = UUID0;
name = Regular;
paths = (
{
closed = 1;
nodes = (
"388 672 LINE",
"380 657 OFFCURVE",
"370 646 OFFCURVE",
"352 646 CURVE SMOOTH",
"312 646 OFFCURVE",
"265 685 OFFCURVE",
"211 685 CURVE SMOOTH",
"157 685 OFFCURVE",
"124 634 OFFCURVE",
"117 585 CURVE",
"167 585 LINE",
"171 600 OFFCURVE",
"186 612 OFFCURVE",
"201 612 CURVE SMOOTH",
"252 612 OFFCURVE",
"293 573 OFFCURVE",
"350 573 CURVE SMOOTH",
"402 573 OFFCURVE",
"430 627 OFFCURVE",
"435 672 CURVE"
);
},
{
closed = 1;
nodes = (
"464 0 LINE",
"464 332 LINE SMOOTH",
"464 435 OFFCURVE",
"422 509 OFFCURVE",
"312 509 CURVE SMOOTH",
"254 509 OFFCURVE",
"197 474 OFFCURVE",
"157 434 CURVE",
"154 458 OFFCURVE",
"147 482 OFFCURVE",
"138 505 CURVE",
"47 493 LINE",
"72 459 OFFCURVE",
"80 392 OFFCURVE",
"80 352 CURVE SMOOTH",
"80 0 LINE",
"162 0 LINE",
"162 369 LINE",
"197 402 OFFCURVE",
"249 435 OFFCURVE",
"298 435 CURVE SMOOTH",
"378 435 OFFCURVE",
"382 367 OFFCURVE",
"382 305 CURVE SMOOTH",
"382 0 LINE"
);
}
);
width = 547;
},
{
components = (
{
name = n;
transform = "{1, 0, 0, 1, 0, 0}";
},
{
name = tilde;
transform = "{1, 0, 0, 1, 114, 6}";
}
);
layerId = "9AE9C081-2011-43F2-9F6D-8F63AE9DAFAF";
name = Bold;
width = 547;
}
);
leftKerningGroup = n;
rightKerningGroup = n;
unicode = 00F1;
},
{
glyphname = o;
lastChange = "2015-02-06 22:44:54 +0000";
layers = (
{
hints = (
{
place = "{44.000000, 88.000000}";
},
{
place = "{405.000000, 88.000000}";
},
{
horizontal = 1;
place = "{-13.000000, 63.000000}";
},
{
horizontal = 1;
place = "{446.000000, 63.000000}";
}
);
layerId = UUID0;
name = Regular;
paths = (
{
closed = 1;
nodes = (
"416 -13 OFFCURVE",
"493 112 OFFCURVE",
"493 248 CURVE SMOOTH",
"493 384 OFFCURVE",
"416 509 OFFCURVE",
"268 509 CURVE SMOOTH",
"123 509 OFFCURVE",
"44 382 OFFCURVE",
"44 248 CURVE SMOOTH",
"44 113 OFFCURVE",
"121 -13 OFFCURVE",
"268 -13 CURVE SMOOTH"
);
},
{
closed = 1;
nodes = (
"171 50 OFFCURVE",
"132 169 OFFCURVE",
"132 248 CURVE SMOOTH",
"132 333 OFFCURVE",
"165 446 OFFCURVE",
"268 446 CURVE SMOOTH",
"370 446 OFFCURVE",
"405 332 OFFCURVE",
"405 248 CURVE SMOOTH",
"405 163 OFFCURVE",
"372 50 OFFCURVE",
"268 50 CURVE SMOOTH"
);
}
);
width = 536;
},
{
hints = (
{
place = "{26.000000, 132.000000}";
},
{
place = "{378.000000, 132.000000}";
},
{
horizontal = 1;
place = "{-12.000000, 80.000000}";
},
{
horizontal = 1;
place = "{428.000000, 82.000000}";
}
);
layerId = "9AE9C081-2011-43F2-9F6D-8F63AE9DAFAF";
name = Bold;
paths = (
{
closed = 1;
nodes = (
"510 393 OFFCURVE",
"419 510 OFFCURVE",
"268 510 CURVE SMOOTH",
"119 510 OFFCURVE",
"26 392 OFFCURVE",
"26 249 CURVE SMOOTH",
"26 105 OFFCURVE",
"117 -12 OFFCURVE",
"268 -12 CURVE SMOOTH",
"419 -12 OFFCURVE",
"510 105 OFFCURVE",
"510 249 CURVE SMOOTH"
);
},
{
closed = 1;
nodes = (
"378 175 OFFCURVE",
"362 68 OFFCURVE",
"268 68 CURVE SMOOTH",
"177 68 OFFCURVE",
"158 178 OFFCURVE",
"158 248 CURVE SMOOTH",
"158 318 OFFCURVE",
"177 428 OFFCURVE",
"268 428 CURVE SMOOTH",
"362 428 OFFCURVE",
"378 321 OFFCURVE",
"378 248 CURVE SMOOTH"
);
}
);
width = 536;
}
);
leftKerningGroup = c;
rightKerningGroup = b;
unicode = 006F;
},
{
glyphname = oacute;
lastChange = "2015-02-06 22:44:54 +0000";
layers = (
{
hints = (
{
horizontal = 1;
place = "{-13.000000, 20.000000}";
}
);
layerId = UUID0;
name = Regular;
paths = (
{
closed = 1;
nodes = (
"307 575 LINE",
"447 727 LINE",
"324 727 LINE",
"229 575 LINE"
);
},
{
closed = 1;
nodes = (
"416 -13 OFFCURVE",
"493 112 OFFCURVE",
"493 248 CURVE SMOOTH",
"493 384 OFFCURVE",
"416 509 OFFCURVE",
"268 509 CURVE SMOOTH",
"123 509 OFFCURVE",
"44 382 OFFCURVE",
"44 248 CURVE SMOOTH",
"44 113 OFFCURVE",
"121 -13 OFFCURVE",
"268 -13 CURVE SMOOTH"
);
},
{
closed = 1;
nodes = (
"171 50 OFFCURVE",
"132 169 OFFCURVE",
"132 248 CURVE SMOOTH",
"132 333 OFFCURVE",
"165 446 OFFCURVE",
"268 446 CURVE SMOOTH",
"370 446 OFFCURVE",
"405 332 OFFCURVE",
"405 248 CURVE SMOOTH",
"405 163 OFFCURVE",
"372 50 OFFCURVE",
"268 50 CURVE SMOOTH"
);
}
);
width = 536;
},
{
components = (
{
name = o;
transform = "{1, 0, 0, 1, 0, 0}";
},
{
name = acute;
transform = "{1, 0, 0, 1, 187, 0}";
}
);
layerId = "9AE9C081-2011-43F2-9F6D-8F63AE9DAFAF";
name = Bold;
width = 536;
}
);
leftKerningGroup = c;
rightKerningGroup = b;
unicode = 00F3;
},
{
glyphname = ocircumflex;
lastChange = "2015-02-06 22:44:54 +0000";
layers = (
{
hints = (
{
horizontal = 1;
place = "{-13.000000, 20.000000}";
}
);
layerId = UUID0;
name = Regular;
paths = (
{
closed = 1;
nodes = (
"415 572 LINE",
"309 727 LINE",
"226 727 LINE",
"124 573 LINE",
"191 573 LINE",
"267 654 LINE",
"346 572 LINE"
);
},
{
closed = 1;
nodes = (
"416 -13 OFFCURVE",
"493 112 OFFCURVE",
"493 248 CURVE SMOOTH",
"493 384 OFFCURVE",
"416 509 OFFCURVE",
"268 509 CURVE SMOOTH",
"123 509 OFFCURVE",
"44 382 OFFCURVE",
"44 248 CURVE SMOOTH",
"44 113 OFFCURVE",
"121 -13 OFFCURVE",
"268 -13 CURVE SMOOTH"
);
},
{
closed = 1;
nodes = (
"171 50 OFFCURVE",
"132 169 OFFCURVE",
"132 248 CURVE SMOOTH",
"132 333 OFFCURVE",
"165 446 OFFCURVE",
"268 446 CURVE SMOOTH",
"370 446 OFFCURVE",
"405 332 OFFCURVE",
"405 248 CURVE SMOOTH",
"405 163 OFFCURVE",
"372 50 OFFCURVE",
"268 50 CURVE SMOOTH"
);
}
);
width = 536;
},
{
hints = (
{
place = "{26.000000, 132.000000}";
},
{
place = "{378.000000, 132.000000}";
},
{
horizontal = 1;
place = "{-12.000000, 80.000000}";
},
{
horizontal = 1;
place = "{428.000000, 82.000000}";
},
{
horizontal = 1;
place = "{733.000000, -20.000000}";
target = down;
type = TopGhost;
}
);
layerId = "9AE9C081-2011-43F2-9F6D-8F63AE9DAFAF";
name = Bold;
paths = (
{
closed = 1;
nodes = (
"510 393 OFFCURVE",
"419 510 OFFCURVE",
"268 510 CURVE SMOOTH",
"119 510 OFFCURVE",
"26 392 OFFCURVE",
"26 249 CURVE SMOOTH",
"26 105 OFFCURVE",
"117 -12 OFFCURVE",
"268 -12 CURVE SMOOTH",
"419 -12 OFFCURVE",
"510 105 OFFCURVE",
"510 249 CURVE SMOOTH"
);
},
{
closed = 1;
nodes = (
"378 175 OFFCURVE",
"362 68 OFFCURVE",
"268 68 CURVE SMOOTH",
"177 68 OFFCURVE",
"158 178 OFFCURVE",
"158 248 CURVE SMOOTH",
"158 318 OFFCURVE",
"177 428 OFFCURVE",
"268 428 CURVE SMOOTH",
"362 428 OFFCURVE",
"378 321 OFFCURVE",
"378 248 CURVE SMOOTH"
);
},
{
closed = 1;
nodes = (
"413 588 LINE",
"314 733 LINE",
"216 733 LINE",
"120 589 LINE",
"196 589 LINE",
"265 662 LINE",
"335 588 LINE"
);
}
);
width = 536;
}
);
leftKerningGroup = c;
rightKerningGroup = b;
unicode = 00F4;
},
{
glyphname = odieresis;
lastChange = "2015-02-06 22:44:54 +0000";
layers = (
{
hints = (
{
place = "{133.000000, 113.000000}";
},
{
place = "{296.000000, 114.000000}";
},
{
horizontal = 1;
place = "{-13.000000, 20.000000}";
},
{
horizontal = 1;
place = "{567.000000, 114.000000}";
}
);
layerId = UUID0;
name = Regular;
paths = (
{
closed = 1;
nodes = (
"410 655 OFFCURVE",
"384 681 OFFCURVE",
"353 681 CURVE SMOOTH",
"322 681 OFFCURVE",
"296 655 OFFCURVE",
"296 624 CURVE SMOOTH",
"296 593 OFFCURVE",
"322 567 OFFCURVE",
"353 567 CURVE SMOOTH",
"384 567 OFFCURVE",
"410 593 OFFCURVE",
"410 624 CURVE SMOOTH"
);
},
{
closed = 1;
nodes = (
"221 567 OFFCURVE",
"246 593 OFFCURVE",
"246 624 CURVE SMOOTH",
"246 655 OFFCURVE",
"221 681 OFFCURVE",
"190 681 CURVE SMOOTH",
"159 681 OFFCURVE",
"133 655 OFFCURVE",
"133 624 CURVE SMOOTH",
"133 593 OFFCURVE",
"159 567 OFFCURVE",
"190 567 CURVE SMOOTH"
);
},
{
closed = 1;
nodes = (
"416 -13 OFFCURVE",
"493 112 OFFCURVE",
"493 248 CURVE SMOOTH",
"493 384 OFFCURVE",
"416 509 OFFCURVE",
"268 509 CURVE SMOOTH",
"123 509 OFFCURVE",
"44 382 OFFCURVE",
"44 248 CURVE SMOOTH",
"44 113 OFFCURVE",
"121 -13 OFFCURVE",
"268 -13 CURVE SMOOTH"
);
},
{
closed = 1;
nodes = (
"171 50 OFFCURVE",
"132 169 OFFCURVE",
"132 248 CURVE SMOOTH",
"132 333 OFFCURVE",
"165 446 OFFCURVE",
"268 446 CURVE SMOOTH",
"370 446 OFFCURVE",
"405 332 OFFCURVE",
"405 248 CURVE SMOOTH",
"405 163 OFFCURVE",
"372 50 OFFCURVE",
"268 50 CURVE SMOOTH"
);
}
);
width = 536;
},
{
hints = (
{
place = "{26.000000, 132.000000}";
},
{
place = "{129.000000, 114.000000}";
},
{
place = "{289.000000, 115.000000}";
},
{
place = "{378.000000, 132.000000}";
},
{
horizontal = 1;
place = "{-12.000000, 80.000000}";
},
{
horizontal = 1;
place = "{428.000000, 82.000000}";
},
{
horizontal = 1;
place = "{572.000000, 114.000000}";
}
);
layerId = "9AE9C081-2011-43F2-9F6D-8F63AE9DAFAF";
name = Bold;
paths = (
{
closed = 1;
nodes = (
"510 393 OFFCURVE",
"419 510 OFFCURVE",
"268 510 CURVE SMOOTH",
"119 510 OFFCURVE",
"26 392 OFFCURVE",
"26 249 CURVE SMOOTH",
"26 105 OFFCURVE",
"117 -12 OFFCURVE",
"268 -12 CURVE SMOOTH",
"419 -12 OFFCURVE",
"510 105 OFFCURVE",
"510 249 CURVE SMOOTH"
);
},
{
closed = 1;
nodes = (
"378 175 OFFCURVE",
"362 68 OFFCURVE",
"268 68 CURVE SMOOTH",
"177 68 OFFCURVE",
"158 178 OFFCURVE",
"158 248 CURVE SMOOTH",
"158 318 OFFCURVE",
"177 428 OFFCURVE",
"268 428 CURVE SMOOTH",
"362 428 OFFCURVE",
"378 321 OFFCURVE",
"378 248 CURVE SMOOTH"
);
},
{
closed = 1;
nodes = (
"404 661 OFFCURVE",
"378 686 OFFCURVE",
"346 686 CURVE SMOOTH",
"315 686 OFFCURVE",
"289 660 OFFCURVE",
"289 629 CURVE SMOOTH",
"289 598 OFFCURVE",
"315 572 OFFCURVE",
"346 572 CURVE SMOOTH",
"378 572 OFFCURVE",
"404 597 OFFCURVE",
"404 629 CURVE SMOOTH"
);
},
{
closed = 1;
nodes = (
"243 661 OFFCURVE",
"218 686 OFFCURVE",
"186 686 CURVE SMOOTH",
"154 686 OFFCURVE",
"129 661 OFFCURVE",
"129 629 CURVE SMOOTH",
"129 597 OFFCURVE",
"154 572 OFFCURVE",
"186 572 CURVE SMOOTH",
"218 572 OFFCURVE",
"243 597 OFFCURVE",
"243 629 CURVE SMOOTH"
);
}
);
width = 536;
}
);
leftKerningGroup = c;
rightKerningGroup = b;
unicode = 00F6;
},
{
glyphname = ograve;
lastChange = "2015-02-06 22:44:54 +0000";
layers = (
{
hints = (
{
horizontal = 1;
place = "{-13.000000, 20.000000}";
}
);
layerId = UUID0;
name = Regular;
paths = (
{
closed = 1;
nodes = (
"314 575 LINE",
"218 727 LINE",
"96 727 LINE",
"236 575 LINE"
);
},
{
closed = 1;
nodes = (
"416 -13 OFFCURVE",
"493 112 OFFCURVE",
"493 248 CURVE SMOOTH",
"493 384 OFFCURVE",
"416 509 OFFCURVE",
"268 509 CURVE SMOOTH",
"123 509 OFFCURVE",
"44 382 OFFCURVE",
"44 248 CURVE SMOOTH",
"44 113 OFFCURVE",
"121 -13 OFFCURVE",
"268 -13 CURVE SMOOTH"
);
},
{
closed = 1;
nodes = (
"171 50 OFFCURVE",
"132 169 OFFCURVE",
"132 248 CURVE SMOOTH",
"132 333 OFFCURVE",
"165 446 OFFCURVE",
"268 446 CURVE SMOOTH",
"370 446 OFFCURVE",
"405 332 OFFCURVE",
"405 248 CURVE SMOOTH",
"405 163 OFFCURVE",
"372 50 OFFCURVE",
"268 50 CURVE SMOOTH"
);
}
);
width = 536;
},
{
components = (
{
name = o;
transform = "{1, 0, 0, 1, 0, 0}";
},
{
name = grave;
transform = "{1, 0, 0, 1, 67, 0}";
}
);
layerId = "9AE9C081-2011-43F2-9F6D-8F63AE9DAFAF";
name = Bold;
width = 536;
}
);
leftKerningGroup = c;
rightKerningGroup = b;
unicode = 00F2;
},
{
glyphname = oslash;
lastChange = "2015-02-06 22:44:54 +0000";
layers = (
{
hints = (
{
place = "{44.000000, 85.000000}";
},
{
place = "{407.000000, 86.000000}";
},
{
horizontal = 1;
place = "{-13.000000, 63.000000}";
},
{
horizontal = 1;
place = "{446.000000, 63.000000}";
}
);
layerId = UUID0;
name = Regular;
paths = (
{
closed = 1;
nodes = (
"101 -69 LINE",
"157 17 LINE",
"190 -3 OFFCURVE",
"229 -13 OFFCURVE",
"268 -13 CURVE SMOOTH",
"416 -13 OFFCURVE",
"493 112 OFFCURVE",
"493 248 CURVE SMOOTH",
"493 319 OFFCURVE",
"472 394 OFFCURVE",
"421 446 CURVE",
"470 526 LINE",
"420 553 LINE",
"376 482 LINE",
"344 499 OFFCURVE",
"304 509 OFFCURVE",
"268 509 CURVE SMOOTH",
"123 509 OFFCURVE",
"44 382 OFFCURVE",
"44 248 CURVE SMOOTH",
"44 178 OFFCURVE",
"64 105 OFFCURVE",
"113 53 CURVE",
"54 -38 LINE"
);
},
{
closed = 1;
nodes = (
"158 127 LINE",
"138 161 OFFCURVE",
"129 209 OFFCURVE",
"129 248 CURVE SMOOTH",
"129 334 OFFCURVE",
"165 446 OFFCURVE",
"268 446 CURVE SMOOTH",
"294 446 OFFCURVE",
"319 437 OFFCURVE",
"339 422 CURVE"
);
},
{
closed = 1;
nodes = (
"378 375 LINE",
"399 337 OFFCURVE",
"407 291 OFFCURVE",
"407 248 CURVE SMOOTH",
"407 162 OFFCURVE",
"372 50 OFFCURVE",
"268 50 CURVE SMOOTH",
"241 50 OFFCURVE",
"214 61 OFFCURVE",
"194 79 CURVE"
);
}
);
width = 537;
},
{
hints = (
{
place = "{26.000000, 133.000000}";
},
{
place = "{378.000000, 133.000000}";
},
{
horizontal = 1;
place = "{-12.000000, 80.000000}";
},
{
horizontal = 1;
place = "{428.000000, 82.000000}";
},
{
horizontal = 1;
place = "{571.000000, -20.000000}";
target = down;
type = TopGhost;
},
{
horizontal = 1;
place = "{-91.000000, 21.000000}";
target = up;
type = BottomGhost;
}
);
layerId = "9AE9C081-2011-43F2-9F6D-8F63AE9DAFAF";
name = Bold;
paths = (
{
closed = 1;
nodes = (
"511 325 OFFCURVE",
"484 403 OFFCURVE",
"426 454 CURVE",
"483 545 LINE",
"434 571 LINE",
"380 485 LINE",
"346 502 OFFCURVE",
"307 510 OFFCURVE",
"269 510 CURVE SMOOTH",
"119 510 OFFCURVE",
"26 392 OFFCURVE",
"26 249 CURVE SMOOTH",
"26 174 OFFCURVE",
"52 98 OFFCURVE",
"108 47 CURVE",
"44 -57 LINE",
"89 -91 LINE",
"154 15 LINE",
"189 -4 OFFCURVE",
"229 -12 OFFCURVE",
"269 -12 CURVE SMOOTH",
"419 -12 OFFCURVE",
"511 104 OFFCURVE",
"511 249 CURVE SMOOTH"
);
},
{
closed = 1;
nodes = (
"172 150 LINE",
"162 182 OFFCURVE",
"159 215 OFFCURVE",
"159 248 CURVE SMOOTH",
"159 318 OFFCURVE",
"178 428 OFFCURVE",
"269 428 CURVE SMOOTH",
"291 428 OFFCURVE",
"314 421 OFFCURVE",
"331 405 CURVE"
);
},
{
closed = 1;
nodes = (
"378 175 OFFCURVE",
"362 68 OFFCURVE",
"269 68 CURVE SMOOTH",
"244 68 OFFCURVE",
"221 78 OFFCURVE",
"204 95 CURVE",
"364 353 LINE",
"375 320 OFFCURVE",
"378 283 OFFCURVE",
"378 248 CURVE SMOOTH"
);
}
);
width = 537;
}
);
unicode = 00F8;
},
{
glyphname = otilde;
lastChange = "2015-02-06 22:44:54 +0000";
layers = (
{
hints = (
{
horizontal = 1;
place = "{-13.000000, 20.000000}";
},
{
horizontal = 1;
place = "{573.000000, 99.000000}";
}
);
layerId = UUID0;
name = Regular;
paths = (
{
closed = 1;
nodes = (
"391 672 LINE",
"386 657 OFFCURVE",
"371 646 OFFCURVE",
"355 646 CURVE SMOOTH",
"315 646 OFFCURVE",
"268 685 OFFCURVE",
"215 685 CURVE SMOOTH",
"160 685 OFFCURVE",
"127 634 OFFCURVE",
"121 585 CURVE",
"170 585 LINE",
"176 599 OFFCURVE",
"187 612 OFFCURVE",
"204 612 CURVE SMOOTH",
"255 612 OFFCURVE",
"296 573 OFFCURVE",
"353 573 CURVE SMOOTH",
"405 573 OFFCURVE",
"433 627 OFFCURVE",
"438 672 CURVE"
);
},
{
closed = 1;
nodes = (
"416 -13 OFFCURVE",
"493 112 OFFCURVE",
"493 248 CURVE SMOOTH",
"493 384 OFFCURVE",
"416 509 OFFCURVE",
"268 509 CURVE SMOOTH",
"123 509 OFFCURVE",
"44 382 OFFCURVE",
"44 248 CURVE SMOOTH",
"44 113 OFFCURVE",
"121 -13 OFFCURVE",
"268 -13 CURVE SMOOTH"
);
},
{
closed = 1;
nodes = (
"171 50 OFFCURVE",
"132 169 OFFCURVE",
"132 248 CURVE SMOOTH",
"132 333 OFFCURVE",
"165 446 OFFCURVE",
"268 446 CURVE SMOOTH",
"370 446 OFFCURVE",
"405 332 OFFCURVE",
"405 248 CURVE SMOOTH",
"405 163 OFFCURVE",
"372 50 OFFCURVE",
"268 50 CURVE SMOOTH"
);
}
);
width = 536;
},
{
hints = (
{
place = "{26.000000, 132.000000}";
},
{
place = "{378.000000, 69.000000}";
},
{
place = "{378.000000, 132.000000}";
},
{
horizontal = 1;
place = "{-12.000000, 80.000000}";
},
{
horizontal = 1;
place = "{428.000000, 82.000000}";
},
{
horizontal = 1;
place = "{565.000000, 87.000000}";
},
{
horizontal = 1;
place = "{605.000000, 47.000000}";
},
{
horizontal = 1;
place = "{605.000000, 87.000000}";
}
);
layerId = "9AE9C081-2011-43F2-9F6D-8F63AE9DAFAF";
name = Bold;
paths = (
{
closed = 1;
nodes = (
"510 393 OFFCURVE",
"419 510 OFFCURVE",
"268 510 CURVE SMOOTH",
"119 510 OFFCURVE",
"26 392 OFFCURVE",
"26 249 CURVE SMOOTH",
"26 105 OFFCURVE",
"117 -12 OFFCURVE",
"268 -12 CURVE SMOOTH",
"419 -12 OFFCURVE",
"510 105 OFFCURVE",
"510 249 CURVE SMOOTH"
);
},
{
closed = 1;
nodes = (
"378 175 OFFCURVE",
"362 68 OFFCURVE",
"268 68 CURVE SMOOTH",
"177 68 OFFCURVE",
"158 178 OFFCURVE",
"158 248 CURVE SMOOTH",
"158 318 OFFCURVE",
"177 428 OFFCURVE",
"268 428 CURVE SMOOTH",
"362 428 OFFCURVE",
"378 321 OFFCURVE",
"378 248 CURVE SMOOTH"
);
},
{
closed = 1;
nodes = (
"383 682 LINE",
"382 662 OFFCURVE",
"359 652 OFFCURVE",
"342 652 CURVE SMOOTH",
"304 652 OFFCURVE",
"267 692 OFFCURVE",
"212 692 CURVE SMOOTH",
"144 692 OFFCURVE",
"106 639 OFFCURVE",
"106 575 CURVE",
"171 575 LINE",
"171 595 OFFCURVE",
"194 605 OFFCURVE",
"211 605 CURVE SMOOTH",
"249 605 OFFCURVE",
"286 565 OFFCURVE",
"341 565 CURVE SMOOTH",
"409 565 OFFCURVE",
"447 618 OFFCURVE",
"447 682 CURVE"
);
}
);
width = 536;
}
);
leftKerningGroup = c;
rightKerningGroup = b;
unicode = 00F5;
},
{
glyphname = oe;
lastChange = "2015-02-06 22:44:54 +0000";
layers = (
{
hints = (
{
place = "{44.000000, 86.000000}";
},
{
place = "{407.000000, 87.000000}";
},
{
place = "{727.000000, 81.000000}";
},
{
horizontal = 1;
place = "{-13.000000, 63.000000}";
},
{
horizontal = 1;
place = "{84.000000, 326.000000}";
},
{
horizontal = 1;
place = "{446.000000, 63.000000}";
}
);
layerId = UUID0;
name = Regular;
paths = (
{
closed = 1;
nodes = (
"769 104 LINE",
"738 77 OFFCURVE",
"688 57 OFFCURVE",
"647 57 CURVE SMOOTH",
"535 57 OFFCURVE",
"495 160 OFFCURVE",
"494 256 CURVE",
"761 256 LINE SMOOTH",
"800 256 OFFCURVE",
"808 288 OFFCURVE",
"808 320 CURVE SMOOTH",
"808 431 OFFCURVE",
"733 509 OFFCURVE",
"621 509 CURVE SMOOTH",
"550 509 OFFCURVE",
"487 469 OFFCURVE",
"450 410 CURVE",
"410 474 OFFCURVE",
"345 509 OFFCURVE",
"269 509 CURVE SMOOTH",
"124 509 OFFCURVE",
"44 382 OFFCURVE",
"44 248 CURVE SMOOTH",
"44 113 OFFCURVE",
"122 -13 OFFCURVE",
"269 -13 CURVE SMOOTH",
"344 -13 OFFCURVE",
"409 21 OFFCURVE",
"449 84 CURVE",
"490 21 OFFCURVE",
"562 -13 OFFCURVE",
"637 -13 CURVE SMOOTH",
"699 -13 OFFCURVE",
"757 2 OFFCURVE",
"804 43 CURVE"
);
},
{
closed = 1;
nodes = (
"501 318 LINE",
"511 380 OFFCURVE",
"562 446 OFFCURVE",
"629 446 CURVE SMOOTH",
"693 446 OFFCURVE",
"727 396 OFFCURVE",
"727 336 CURVE SMOOTH",
"727 318 OFFCURVE",
"718 318 OFFCURVE",
"703 318 CURVE SMOOTH"
);
},
{
closed = 1;
nodes = (
"171 50 OFFCURVE",
"130 167 OFFCURVE",
"130 248 CURVE SMOOTH",
"130 333 OFFCURVE",
"166 446 OFFCURVE",
"269 446 CURVE SMOOTH",
"371 446 OFFCURVE",
"407 332 OFFCURVE",
"407 248 CURVE SMOOTH",
"407 162 OFFCURVE",
"373 50 OFFCURVE",
"269 50 CURVE SMOOTH"
);
}
);
width = 842;
},
{
hints = (
{
place = "{27.000000, 132.000000}";
},
{
place = "{379.000000, 127.000000}";
},
{
place = "{694.000000, 125.000000}";
},
{
horizontal = 1;
place = "{-11.000000, 83.000000}";
},
{
horizontal = 1;
place = "{234.000000, 79.000000}";
},
{
horizontal = 1;
place = "{428.000000, 83.000000}";
},
{
horizontal = 1;
place = "{510.000000, -20.000000}";
target = down;
type = TopGhost;
}
);
layerId = "9AE9C081-2011-43F2-9F6D-8F63AE9DAFAF";
name = Bold;
paths = (
{
closed = 1;
nodes = (
"756 125 LINE",
"726 95 OFFCURVE",
"677 72 OFFCURVE",
"635 72 CURVE SMOOTH",
"547 72 OFFCURVE",
"506 158 OFFCURVE",
"506 234 CURVE",
"768 234 LINE SMOOTH",
"808 234 OFFCURVE",
"819 259 OFFCURVE",
"819 294 CURVE SMOOTH",
"819 424 OFFCURVE",
"745 511 OFFCURVE",
"612 511 CURVE SMOOTH",
"540 511 OFFCURVE",
"483 482 OFFCURVE",
"444 436 CURVE",
"403 482 OFFCURVE",
"343 510 OFFCURVE",
"269 510 CURVE SMOOTH",
"120 510 OFFCURVE",
"27 392 OFFCURVE",
"27 249 CURVE SMOOTH",
"27 105 OFFCURVE",
"118 -11 OFFCURVE",
"269 -11 CURVE SMOOTH",
"343 -11 OFFCURVE",
"402 16 OFFCURVE",
"443 62 CURVE",
"486 16 OFFCURVE",
"549 -11 OFFCURVE",
"629 -11 CURVE SMOOTH",
"684 -11 OFFCURVE",
"762 5 OFFCURVE",
"807 42 CURVE"
);
},
{
closed = 1;
nodes = (
"178 72 OFFCURVE",
"159 178 OFFCURVE",
"159 248 CURVE SMOOTH",
"159 318 OFFCURVE",
"178 428 OFFCURVE",
"269 428 CURVE SMOOTH",
"363 428 OFFCURVE",
"379 321 OFFCURVE",
"379 248 CURVE SMOOTH",
"379 175 OFFCURVE",
"363 72 OFFCURVE",
"269 72 CURVE SMOOTH"
);
},
{
closed = 1;
nodes = (
"509 313 LINE",
"512 365 OFFCURVE",
"557 429 OFFCURVE",
"613 429 CURVE SMOOTH",
"668 429 OFFCURVE",
"694 386 OFFCURVE",
"694 335 CURVE SMOOTH",
"694 322 OFFCURVE",
"692 313 OFFCURVE",
"677 313 CURVE SMOOTH"
);
}
);
width = 848;
}
);
leftKerningGroup = c;
unicode = 0153;
},
{
glyphname = p;
lastChange = "2015-02-06 22:44:54 +0000";
layers = (
{
hints = (
{
place = "{81.000000, 82.000000}";
},
{
place = "{422.000000, 88.000000}";
},
{
horizontal = 1;
place = "{-216.000000, 20.000000}";
},
{
horizontal = 1;
place = "{-13.000000, 68.000000}";
},
{
horizontal = 1;
place = "{435.000000, 73.000000}";
}
);
layerId = UUID0;
name = Regular;
paths = (
{
closed = 1;
nodes = (
"177 -216 LINE",
"163 -157 LINE",
"163 31 LINE",
"196 0 OFFCURVE",
"242 -13 OFFCURVE",
"287 -13 CURVE SMOOTH",
"437 -13 OFFCURVE",
"510 114 OFFCURVE",
"510 251 CURVE SMOOTH",
"510 376 OFFCURVE",
"444 508 OFFCURVE",
"303 508 CURVE SMOOTH",
"246 508 OFFCURVE",
"192 480 OFFCURVE",
"157 436 CURVE",
"154 459 OFFCURVE",
"148 482 OFFCURVE",
"138 504 CURVE",
"50 493 LINE",
"73 457 OFFCURVE",
"81 393 OFFCURVE",
"81 352 CURVE SMOOTH",
"81 -216 LINE"
);
},
{
closed = 1;
nodes = (
"163 369 LINE",
"191 402 OFFCURVE",
"232 435 OFFCURVE",
"278 435 CURVE SMOOTH",
"384 435 OFFCURVE",
"422 337 OFFCURVE",
"422 245 CURVE SMOOTH",
"422 157 OFFCURVE",
"390 55 OFFCURVE",
"285 55 CURVE SMOOTH",
"198 55 OFFCURVE",
"163 122 OFFCURVE",
"163 201 CURVE SMOOTH"
);
}
);
width = 556;
},
{
hints = (
{
place = "{67.000000, 121.000000}";
},
{
place = "{399.000000, 131.000000}";
},
{
horizontal = 1;
place = "{-10.000000, 85.000000}";
},
{
horizontal = 1;
place = "{422.000000, 89.000000}";
},
{
horizontal = 1;
place = "{-217.000000, 21.000000}";
target = up;
type = BottomGhost;
}
);
layerId = "9AE9C081-2011-43F2-9F6D-8F63AE9DAFAF";
name = Bold;
paths = (
{
closed = 1;
nodes = (
"530 383 OFFCURVE",
"459 511 OFFCURVE",
"316 511 CURVE SMOOTH",
"269 511 OFFCURVE",
"207 488 OFFCURVE",
"178 448 CURVE",
"175 468 OFFCURVE",
"170 489 OFFCURVE",
"163 508 CURVE",
"38 493 LINE",
"60 461 OFFCURVE",
"67 394 OFFCURVE",
"67 357 CURVE SMOOTH",
"67 -217 LINE",
"202 -217 LINE",
"200 -212 OFFCURVE",
"188 -162 OFFCURVE",
"188 -162 CURVE",
"188 -36 LINE SMOOTH",
"188 -19 OFFCURVE",
"186 22 OFFCURVE",
"186 22 CURVE",
"214 0 OFFCURVE",
"263 -10 OFFCURVE",
"297 -10 CURVE SMOOTH",
"451 -10 OFFCURVE",
"530 110 OFFCURVE",
"530 254 CURVE SMOOTH"
);
},
{
closed = 1;
nodes = (
"399 180 OFFCURVE",
"375 75 OFFCURVE",
"287 75 CURVE SMOOTH",
"210 75 OFFCURVE",
"188 141 OFFCURVE",
"188 207 CURVE SMOOTH",
"188 370 LINE",
"208 400 OFFCURVE",
"247 422 OFFCURVE",
"283 422 CURVE SMOOTH",
"372 422 OFFCURVE",
"399 321 OFFCURVE",
"399 249 CURVE SMOOTH"
);
}
);
width = 556;
}
);
leftKerningGroup = n;
rightKerningGroup = b;
unicode = 0070;
},
{
glyphname = thorn;
lastChange = "2015-02-06 22:44:54 +0000";
layers = (
{
layerId = UUID0;
name = Regular;
paths = (
{
closed = 1;
nodes = (
"166 -212 LINE",
"166 43 LINE",
"199 8 OFFCURVE",
"244 -11 OFFCURVE",
"294 -11 CURVE SMOOTH",
"432 -11 OFFCURVE",
"511 113 OFFCURVE",
"511 253 CURVE SMOOTH",
"511 374 OFFCURVE",
"449 504 OFFCURVE",
"317 504 CURVE SMOOTH",
"260 504 OFFCURVE",
"210 482 OFFCURVE",
"166 438 CURVE",
"166 762 LINE",
"70 762 LINE",
"71 757 OFFCURVE",
"84 706 OFFCURVE",
"84 704 CURVE SMOOTH",
"84 -212 LINE"
);
},
{
closed = 1;
nodes = (
"166 372 LINE",
"196 408 OFFCURVE",
"242 438 OFFCURVE",
"291 438 CURVE SMOOTH",
"391 438 OFFCURVE",
"423 332 OFFCURVE",
"423 249 CURVE SMOOTH",
"423 168 OFFCURVE",
"393 49 OFFCURVE",
"291 49 CURVE SMOOTH",
"210 49 OFFCURVE",
"166 119 OFFCURVE",
"166 204 CURVE SMOOTH"
);
}
);
width = 557;
},
{
hints = (
{
place = "{68.000000, 120.000000}";
},
{
place = "{399.000000, 131.000000}";
},
{
horizontal = 1;
place = "{-12.000000, 82.000000}";
},
{
horizontal = 1;
place = "{416.000000, 92.000000}";
},
{
horizontal = 1;
place = "{768.000000, -20.000000}";
target = down;
type = TopGhost;
},
{
horizontal = 1;
place = "{-217.000000, 21.000000}";
target = up;
type = BottomGhost;
}
);
layerId = "9AE9C081-2011-43F2-9F6D-8F63AE9DAFAF";
name = Bold;
paths = (
{
closed = 1;
nodes = (
"188 768 LINE",
"57 768 LINE",
"58 763 OFFCURVE",
"67 721 OFFCURVE",
"68 715 CURVE",
"68 -217 LINE",
"188 -217 LINE",
"188 18 LINE",
"218 -2 OFFCURVE",
"254 -12 OFFCURVE",
"295 -12 CURVE SMOOTH",
"445 -12 OFFCURVE",
"530 111 OFFCURVE",
"530 251 CURVE SMOOTH",
"530 370 OFFCURVE",
"462 508 OFFCURVE",
"327 508 CURVE SMOOTH",
"272 508 OFFCURVE",
"230 493 OFFCURVE",
"188 457 CURVE"
);
},
{
closed = 1;
nodes = (
"188 368 LINE",
"212 395 OFFCURVE",
"249 416 OFFCURVE",
"286 416 CURVE SMOOTH",
"370 416 OFFCURVE",
"399 312 OFFCURVE",
"399 245 CURVE SMOOTH",
"399 179 OFFCURVE",
"378 70 OFFCURVE",
"292 70 CURVE SMOOTH",
"214 70 OFFCURVE",
"188 138 OFFCURVE",
"188 205 CURVE SMOOTH"
);
}
);
width = 558;
}
);
leftKerningGroup = b;
rightKerningGroup = b;
unicode = 00FE;
},
{
glyphname = q;
lastChange = "2015-02-06 22:44:54 +0000";
layers = (
{
hints = (
{
place = "{44.000000, 89.000000}";
},
{
place = "{391.000000, 83.000000}";
},
{
horizontal = 1;
place = "{-216.000000, 20.000000}";
},
{
horizontal = 1;
place = "{-12.000000, 72.000000}";
},
{
horizontal = 1;
place = "{446.000000, 63.000000}";
}
);
layerId = UUID0;
name = Regular;
paths = (
{
closed = 1;
nodes = (
"487 -216 LINE",
"486 -211 OFFCURVE",
"474 -159 OFFCURVE",
"474 -157 CURVE SMOOTH",
"474 428 LINE SMOOTH",
"474 451 OFFCURVE",
"476 474 OFFCURVE",
"477 497 CURVE",
"427 497 LINE",
"409 444 LINE",
"373 488 OFFCURVE",
"318 509 OFFCURVE",
"262 509 CURVE SMOOTH",
"113 509 OFFCURVE",
"44 380 OFFCURVE",
"44 245 CURVE SMOOTH",
"44 122 OFFCURVE",
"112 -12 OFFCURVE",
"251 -12 CURVE SMOOTH",
"309 -12 OFFCURVE",
"349 4 OFFCURVE",
"391 43 CURVE",
"391 -216 LINE"
);
},
{
closed = 1;
nodes = (
"391 115 LINE",
"363 82 OFFCURVE",
"315 60 OFFCURVE",
"272 60 CURVE SMOOTH",
"170 60 OFFCURVE",
"133 161 OFFCURVE",
"133 248 CURVE SMOOTH",
"133 328 OFFCURVE",
"166 446 OFFCURVE",
"266 446 CURVE SMOOTH",
"358 446 OFFCURVE",
"391 380 OFFCURVE",
"391 296 CURVE SMOOTH"
);
}
);
width = 556;
},
{
hints = (
{
place = "{27.000000, 130.000000}";
},
{
place = "{368.000000, 121.000000}";
},
{
horizontal = 1;
place = "{-11.000000, 87.000000}";
},
{
horizontal = 1;
place = "{428.000000, 69.000000}";
},
{
horizontal = 1;
place = "{428.000000, 81.000000}";
},
{
horizontal = 1;
place = "{-217.000000, 21.000000}";
target = up;
type = BottomGhost;
}
);
layerId = "9AE9C081-2011-43F2-9F6D-8F63AE9DAFAF";
name = Bold;
paths = (
{
closed = 1;
nodes = (
"502 -217 LINE",
"501 -212 OFFCURVE",
"489 -164 OFFCURVE",
"489 -162 CURVE SMOOTH",
"489 433 LINE SMOOTH",
"489 455 OFFCURVE",
"490 475 OFFCURVE",
"492 497 CURVE",
"430 497 LINE",
"409 441 LINE",
"372 486 OFFCURVE",
"320 509 OFFCURVE",
"261 509 CURVE SMOOTH",
"111 509 OFFCURVE",
"27 387 OFFCURVE",
"27 246 CURVE SMOOTH",
"27 128 OFFCURVE",
"94 -11 OFFCURVE",
"229 -11 CURVE SMOOTH",
"280 -11 OFFCURVE",
"331 8 OFFCURVE",
"370 41 CURVE",
"370 17 OFFCURVE",
"368 10 OFFCURVE",
"368 -35 CURVE SMOOTH",
"368 -217 LINE"
);
},
{
closed = 1;
nodes = (
"368 125 LINE",
"344 97 OFFCURVE",
"307 76 OFFCURVE",
"270 76 CURVE SMOOTH",
"186 76 OFFCURVE",
"157 177 OFFCURVE",
"157 244 CURVE SMOOTH",
"157 321 OFFCURVE",
"179 428 OFFCURVE",
"265 428 CURVE SMOOTH",
"342 428 OFFCURVE",
"368 360 OFFCURVE",
"368 293 CURVE SMOOTH"
);
}
);
width = 556;
}
);
leftKerningGroup = c;
unicode = 0071;
},
{
glyphname = r;
lastChange = "2015-02-06 22:44:54 +0000";
layers = (
{
hints = (
{
place = "{81.000000, 83.000000}";
},
{
horizontal = 1;
place = "{0.000000, 20.000000}";
},
{
horizontal = 1;
place = "{418.000000, 88.000000}";
}
);
layerId = UUID0;
name = Regular;
paths = (
{
closed = 1;
nodes = (
"164 0 LINE",
"164 330 LINE",
"198 380 OFFCURVE",
"241 418 OFFCURVE",
"305 418 CURVE",
"325 506 LINE",
"259 506 OFFCURVE",
"197 467 OFFCURVE",
"162 413 CURVE",
"159 444 OFFCURVE",
"151 477 OFFCURVE",
"139 506 CURVE",
"49 495 LINE",
"72 461 OFFCURVE",
"81 399 OFFCURVE",
"81 360 CURVE SMOOTH",
"81 0 LINE"
);
}
);
width = 349;
},
{
hints = (
{
place = "{68.000000, 120.000000}";
},
{
horizontal = 1;
place = "{388.000000, 114.000000}";
},
{
horizontal = 1;
place = "{507.000000, -20.000000}";
target = down;
type = TopGhost;
},
{
horizontal = 1;
place = "{0.000000, 21.000000}";
target = up;
type = BottomGhost;
}
);
layerId = "9AE9C081-2011-43F2-9F6D-8F63AE9DAFAF";
name = Bold;
paths = (
{
closed = 1;
nodes = (
"352 507 LINE",
"285 507 OFFCURVE",
"220 458 OFFCURVE",
"187 402 CURVE",
"186 436 OFFCURVE",
"177 476 OFFCURVE",
"163 507 CURVE",
"36 497 LINE",
"60 465 OFFCURVE",
"68 401 OFFCURVE",
"68 363 CURVE SMOOTH",
"68 0 LINE",
"188 0 LINE",
"188 296 LINE",
"223 345 OFFCURVE",
"264 388 OFFCURVE",
"328 388 CURVE",
"332 388 LINE"
);
}
);
width = 349;
}
);
leftKerningGroup = n;
unicode = 0072;
},
{
glyphname = s;
lastChange = "2015-02-06 22:44:54 +0000";
layers = (
{
hints = (
{
place = "{60.000000, 85.000000}";
},
{
place = "{293.000000, 86.000000}";
},
{
horizontal = 1;
place = "{-13.000000, 63.000000}";
},
{
horizontal = 1;
place = "{446.000000, 63.000000}";
}
);
layerId = UUID0;
name = Regular;
paths = (
{
closed = 1;
nodes = (
"51 29 LINE",
"102 3 OFFCURVE",
"142 -13 OFFCURVE",
"200 -13 CURVE SMOOTH",
"294 -13 OFFCURVE",
"379 26 OFFCURVE",
"379 132 CURVE SMOOTH",
"379 287 OFFCURVE",
"145 268 OFFCURVE",
"145 378 CURVE SMOOTH",
"145 431 OFFCURVE",
"201 446 OFFCURVE",
"244 446 CURVE SMOOTH",
"275 446 OFFCURVE",
"314 429 OFFCURVE",
"339 410 CURVE",
"368 474 LINE",
"329 498 OFFCURVE",
"281 509 OFFCURVE",
"235 509 CURVE SMOOTH",
"146 509 OFFCURVE",
"60 463 OFFCURVE",
"60 364 CURVE SMOOTH",
"60 213 OFFCURVE",
"293 231 OFFCURVE",
"293 120 CURVE SMOOTH",
"293 64 OFFCURVE",
"237 50 OFFCURVE",
"192 50 CURVE SMOOTH",
"157 50 OFFCURVE",
"115 70 OFFCURVE",
"86 90 CURVE"
);
}
);
width = 430;
},
{
hints = (
{
place = "{44.000000, 130.000000}";
},
{
place = "{263.000000, 130.000000}";
},
{
horizontal = 1;
place = "{-14.000000, 85.000000}";
},
{
horizontal = 1;
place = "{429.000000, 81.000000}";
}
);
layerId = "9AE9C081-2011-43F2-9F6D-8F63AE9DAFAF";
name = Bold;
paths = (
{
closed = 1;
nodes = (
"393 327 OFFCURVE",
"174 284 OFFCURVE",
"174 376 CURVE SMOOTH",
"174 414 OFFCURVE",
"209 429 OFFCURVE",
"242 429 CURVE SMOOTH",
"276 429 OFFCURVE",
"314 416 OFFCURVE",
"341 395 CURVE",
"383 479 LINE",
"341 500 OFFCURVE",
"282 510 OFFCURVE",
"236 510 CURVE SMOOTH",
"142 510 OFFCURVE",
"44 460 OFFCURVE",
"44 354 CURVE SMOOTH",
"44 190 OFFCURVE",
"263 236 OFFCURVE",
"263 135 CURVE SMOOTH",
"263 91 OFFCURVE",
"228 71 OFFCURVE",
"188 71 CURVE SMOOTH",
"147 71 OFFCURVE",
"109 91 OFFCURVE",
"75 111 CURVE",
"32 29 LINE",
"79 3 OFFCURVE",
"145 -14 OFFCURVE",
"198 -14 CURVE SMOOTH",
"297 -14 OFFCURVE",
"393 48 OFFCURVE",
"393 155 CURVE SMOOTH"
);
}
);
width = 430;
}
);
unicode = 0073;
},
{
glyphname = germandbls;
lastChange = "2015-02-06 22:44:54 +0000";
layers = (
{
hints = (
{
place = "{535.000000, -88.000000}";
},
{
place = "{322.000000, -73.000000}";
},
{
place = "{185.000000, -157.000000}";
},
{
horizontal = 1;
place = "{741.000000, -70.000000}";
},
{
horizontal = 1;
place = "{489.000000, -55.000000}";
},
{
horizontal = 1;
place = "{53.000000, -65.000000}";
}
);
layerId = UUID0;
name = Regular;
paths = (
{
closed = 1;
nodes = (
"236 8 LINE",
"267 -4 OFFCURVE",
"308 -12 OFFCURVE",
"341 -12 CURVE SMOOTH",
"459 -12 OFFCURVE",
"535 65 OFFCURVE",
"535 184 CURVE SMOOTH",
"535 292 OFFCURVE",
"450 334 OFFCURVE",
"367 373 CURVE SMOOTH",
"340 386 OFFCURVE",
"322 395 OFFCURVE",
"322 404 CURVE SMOOTH",
"322 410 OFFCURVE",
"336 417 OFFCURVE",
"351 426 CURVE SMOOTH",
"416 465 OFFCURVE",
"474 485 OFFCURVE",
"474 583 CURVE SMOOTH",
"474 687 OFFCURVE",
"409 741 OFFCURVE",
"306 741 CURVE SMOOTH",
"192 741 OFFCURVE",
"138 671 OFFCURVE",
"115 568 CURVE SMOOTH",
"102 509 OFFCURVE",
"91 489 OFFCURVE",
"28 489 CURVE",
"28 434 LINE",
"102 434 LINE",
"102 0 LINE",
"185 0 LINE",
"185 474 LINE SMOOTH",
"185 553 OFFCURVE",
"205 671 OFFCURVE",
"306 671 CURVE SMOOTH",
"362 671 OFFCURVE",
"386 636 OFFCURVE",
"386 582 CURVE SMOOTH",
"386 480 OFFCURVE",
"249 467 OFFCURVE",
"249 400 CURVE SMOOTH",
"249 304 OFFCURVE",
"447 305 OFFCURVE",
"447 169 CURVE SMOOTH",
"447 96 OFFCURVE",
"390 53 OFFCURVE",
"333 53 CURVE SMOOTH",
"311 53 OFFCURVE",
"286 60 OFFCURVE",
"264 66 CURVE"
);
}
);
width = 552;
},
{
hints = (
{
place = "{0.000000, 198.000000}";
},
{
place = "{75.000000, 123.000000}";
},
{
place = "{237.000000, 138.000000}";
},
{
place = "{377.000000, 134.000000}";
},
{
place = "{438.000000, 73.000000}";
},
{
place = "{438.000000, 134.000000}";
},
{
horizontal = 1;
place = "{-11.000000, 90.000000}";
},
{
horizontal = 1;
place = "{648.000000, 97.000000}";
},
{
horizontal = 1;
place = "{502.000000, -20.000000}";
target = down;
type = TopGhost;
},
{
horizontal = 1;
place = "{0.000000, 21.000000}";
target = up;
type = BottomGhost;
}
);
layerId = "9AE9C081-2011-43F2-9F6D-8F63AE9DAFAF";
name = Bold;
paths = (
{
closed = 1;
nodes = (
"572 370 OFFCURVE",
"375 362 OFFCURVE",
"375 406 CURVE SMOOTH",
"375 451 OFFCURVE",
"511 443 OFFCURVE",
"511 575 CURVE SMOOTH",
"511 694 OFFCURVE",
"413 745 OFFCURVE",
"306 745 CURVE SMOOTH",
"170 745 OFFCURVE",
"110 660 OFFCURVE",
"82 539 CURVE SMOOTH",
"74 505 OFFCURVE",
"26 502 OFFCURVE",
"0 502 CURVE",
"0 416 LINE",
"75 416 LINE",
"75 0 LINE",
"198 0 LINE",
"198 465 LINE SMOOTH",
"198 537 OFFCURVE",
"212 648 OFFCURVE",
"307 648 CURVE SMOOTH",
"343 648 OFFCURVE",
"377 617 OFFCURVE",
"377 580 CURVE SMOOTH",
"377 468 OFFCURVE",
"237 486 OFFCURVE",
"237 384 CURVE SMOOTH",
"237 324 OFFCURVE",
"341 294 OFFCURVE",
"385 270 CURVE SMOOTH",
"427 246 OFFCURVE",
"438 217 OFFCURVE",
"438 170 CURVE SMOOTH",
"438 122 OFFCURVE",
"390 79 OFFCURVE",
"343 79 CURVE SMOOTH",
"316 79 OFFCURVE",
"289 87 OFFCURVE",
"264 96 CURVE",
"225 19 LINE",
"266 0 OFFCURVE",
"310 -11 OFFCURVE",
"355 -11 CURVE SMOOTH",
"475 -11 OFFCURVE",
"572 64 OFFCURVE",
"572 189 CURVE SMOOTH"
);
}
);
width = 590;
}
);
leftKerningGroup = f;
unicode = 00DF;
},
{
glyphname = t;
lastChange = "2015-02-06 23:31:50 +0000";
layers = (
{
hints = (
{
place = "{94.000000, 83.000000}";
},
{
horizontal = 1;
place = "{-11.000000, 64.000000}";
},
{
horizontal = 1;
place = "{434.000000, 63.000000}";
}
);
layerId = UUID0;
name = Regular;
paths = (
{
closed = 1;
nodes = (
"293 63 LINE",
"273 58 OFFCURVE",
"251 53 OFFCURVE",
"230 53 CURVE SMOOTH",
"187 53 OFFCURVE",
"177 77 OFFCURVE",
"177 116 CURVE SMOOTH",
"177 434 LINE",
"289 434 LINE",
"307 497 LINE",
"177 497 LINE",
"177 543 OFFCURVE",
"188 594 OFFCURVE",
"199 639 CURVE",
"136 639 LINE",
"124 576 OFFCURVE",
"99 486 OFFCURVE",
"20 484 CURVE",
"20 434 LINE",
"94 434 LINE",
"94 118 LINE SMOOTH",
"94 36 OFFCURVE",
"123 -11 OFFCURVE",
"208 -11 CURVE SMOOTH",
"246 -11 OFFCURVE",
"274 -3 OFFCURVE",
"307 7 CURVE"
);
}
);
width = 327;
},
{
hints = (
{
place = "{84.000000, 122.000000}";
},
{
horizontal = 1;
place = "{-10.000000, 86.000000}";
},
{
horizontal = 1;
place = "{418.000000, 66.000000}";
},
{
horizontal = 1;
place = "{418.000000, 79.000000}";
}
);
layerId = "9AE9C081-2011-43F2-9F6D-8F63AE9DAFAF";
name = Bold;
paths = (
{
closed = 1;
nodes = (
"313 86 LINE",
"292 81 OFFCURVE",
"270 76 OFFCURVE",
"248 76 CURVE SMOOTH",
"208 76 OFFCURVE",
"206 120 OFFCURVE",
"206 143 CURVE SMOOTH",
"206 418 LINE",
"303 418 LINE",
"327 497 LINE",
"206 497 LINE",
"206 545 OFFCURVE",
"215 595 OFFCURVE",
"226 642 CURVE",
"139 642 LINE",
"124 573 OFFCURVE",
"84 486 OFFCURVE",
"2 484 CURVE",
"2 418 LINE",
"84 418 LINE",
"84 116 LINE SMOOTH",
"84 28 OFFCURVE",
"123 -10 OFFCURVE",
"209 -10 CURVE SMOOTH",
"245 -10 OFFCURVE",
"292 0 OFFCURVE",
"327 11 CURVE"
);
}
);
width = 327;
}
);
leftKerningGroup = t;
rightKerningGroup = t;
unicode = 0074;
},
